<svg id="Capa_1" data-name="Capa 1" xmlns="http://www.w3.org/2000/svg" viewBox="0 0 462 53.19"><defs><style>.cls-1{fill:#fff;}</style></defs><title>flechas blancas</title><path class="cls-1" d="M757.23,537.17l-3-2.41-2.62-2.15c-7-5.82-13.62-12-20.42-18.44-.6-.58-1.13-.48-1.08-.07L730,514l.23.56c-.72-.68-1.4-.38-.94,1.18,1.45,4.85,3.24,9.64,5.2,14.4q1.46,3.44,2.92,6.87c.17-.53-.38,1.44-.68,2.5l-1.07,3.69-2.36,8.12-.56,2-.75,3c-.6,2.48-1,4.78-1.48,7l-.65,3.43c0,.12,0,.07.07,0l.16-.15.32-.31.64-.6,1.27-1.21c1.64-1.53,3.42-3.34,5.15-5.09l6.44-6.65,9.51-10.06,2.35-2.49,1.49-1.57.76-.78C757.92,537.63,757.48,537.4,757.23,537.17Z" transform="translate(-729.14 -513.67)"/><path class="cls-1" d="M796.12,538.68,794,536.44c-3.46-3.46-6.74-6.42-9.91-9.25q-3.29-2.94-6.72-5.71l-3.55-2.78c-1.64-1.25-3.27-2.44-4.92-3.62l-1.24-.89c-.32-.17-1.11-1-.72-.15l.83,2.93,1.66,5.68,2.48,8.44,2.5,8.44c.27.85.38,1,.08,1.62l-.76,2-1.61,4.07c-2.22,5.39-4.58,10.77-6.55,16.25a4.12,4.12,0,0,0-.2.74c-.67.59-.55,1.14,0,1,.19.62.79.59,1.45-.64a1.14,1.14,0,0,1,.1-.19c6.57-3.83,13.11-9.8,19.53-15.92l5.17-4.89c1-.87,1.41-1.34,3.21-2.9l1.11-1,.54-.48c.17-.07,0-.18-.09-.27Zm-3,.35-.23.21-1,.86-5.22,4.82c-6,5.67-12,11.47-18.44,16.91,1.95-3.76,3.85-7.56,5.64-11.52,1.1-2.46,2.14-5,3.07-7.55l.4-1.11.34-.93a3.61,3.61,0,0,0-.22-.93l-.65-2.13-1.19-3.85L773,525.4l-1.25-4.06-.31-.84-.09-.25c0-.09-.08-.2,0-.12l.35.21.41.26.25.16.14.1.43.32q3.48,2.61,6.82,5.39,5.58,4.62,10.64,9.6l2.23,2.22.43.43C793.24,538.9,793.16,539,793.07,539Z" transform="translate(-729.14 -513.67)"/><path class="cls-1" d="M829.42,537.17l-3-2.41-2.62-2.15c-7-5.82-13.62-12-20.42-18.44-.61-.58-1.13-.48-1.09-.07l-.09-.09c.07.19.15.38.23.56-.72-.68-1.4-.38-.94,1.18,1.45,4.85,3.24,9.64,5.19,14.4q1.47,3.44,2.92,6.87c.18-.53-.37,1.44-.67,2.5l-1.07,3.69-2.36,8.12-.56,2-.75,3c-.61,2.48-1,4.78-1.48,7l-.65,3.43c0,.12,0,.07.07,0l.16-.15.32-.31.64-.6,1.27-1.21c1.64-1.53,3.42-3.34,5.15-5.09l6.44-6.65,9.51-10.06,2.34-2.49,1.5-1.57.76-.78C830.11,537.63,829.67,537.4,829.42,537.17Z" transform="translate(-729.14 -513.67)"/><path class="cls-1" d="M868.31,538.68l-2.13-2.24c-3.46-3.46-6.75-6.42-9.91-9.25q-3.28-2.94-6.72-5.71L846,518.7c-1.64-1.25-3.27-2.44-4.92-3.62l-1.24-.89c-.32-.17-1.11-1-.72-.15L840,517l1.66,5.68,2.48,8.44,2.5,8.44c.27.85.38,1,.07,1.62l-.76,2-1.6,4.07c-2.23,5.39-4.58,10.77-6.56,16.25a5.05,5.05,0,0,0-.19.74c-.67.59-.56,1.14,0,1,.19.62.79.59,1.45-.64l.09-.19c6.58-3.83,13.12-9.8,19.54-15.92l5.17-4.89c1-.87,1.41-1.34,3.21-2.9l1.1-1,.55-.48c.16-.07,0-.18-.09-.27Zm-3.06.35-.22.21-.95.86-5.23,4.82c-6,5.67-12,11.47-18.43,16.91,2-3.76,3.85-7.56,5.63-11.52,1.11-2.46,2.14-5,3.08-7.55l.4-1.11.34-.93a3.61,3.61,0,0,0-.22-.93l-.65-2.13-1.19-3.85-2.59-8.41L844,521.34l-.31-.84-.09-.25c0-.09-.08-.2,0-.12l.35.21.42.26.25.16.14.1.43.32q3.48,2.61,6.82,5.39,5.57,4.62,10.64,9.6l2.23,2.22.43.43C865.42,538.9,865.35,539,865.25,539Z" transform="translate(-729.14 -513.67)"/><path class="cls-1" d="M901.61,537.17l-3-2.41L896,532.61c-7-5.82-13.62-12-20.41-18.44-.61-.58-1.13-.48-1.09-.07l-.1-.09.24.56c-.72-.68-1.41-.38-.94,1.18,1.44,4.85,3.24,9.64,5.19,14.4q1.46,3.44,2.92,6.87c.17-.53-.37,1.44-.68,2.5L880,543.21l-2.37,8.12-.56,2-.75,3c-.6,2.48-1,4.78-1.47,7l-.66,3.43c0,.12,0,.07.08,0l.16-.15.32-.31.64-.6,1.26-1.21c1.64-1.53,3.43-3.34,5.15-5.09l6.44-6.65,9.51-10.06,2.35-2.49,1.5-1.57.76-.78C902.3,537.63,901.86,537.4,901.61,537.17Z" transform="translate(-729.14 -513.67)"/><path class="cls-1" d="M940.49,538.68l-2.13-2.24c-3.46-3.46-6.74-6.42-9.9-9.25q-3.3-2.94-6.73-5.71l-3.54-2.78c-1.64-1.25-3.28-2.44-4.92-3.62l-1.24-.89c-.33-.17-1.11-1-.72-.15l.83,2.93,1.65,5.68,2.48,8.44,2.5,8.44c.27.85.39,1,.08,1.62l-.76,2-1.61,4.07c-2.22,5.39-4.57,10.77-6.55,16.25a5.05,5.05,0,0,0-.19.74c-.68.59-.56,1.14,0,1,.19.62.79.59,1.44-.64l.1-.19c6.58-3.83,13.11-9.8,19.53-15.92l5.18-4.89c1-.87,1.41-1.34,3.21-2.9l1.1-1,.54-.48c.17-.07,0-.18-.08-.27Zm-3,.35-.23.21-.94.86L931,544.92c-6,5.67-12,11.47-18.43,16.91,1.95-3.76,3.85-7.56,5.63-11.52,1.1-2.46,2.14-5,3.08-7.55l.4-1.11.34-.93a3.62,3.62,0,0,0-.23-.93l-.65-2.13L920,533.81l-2.58-8.41-1.24-4.06-.32-.84-.09-.25c0-.09-.08-.2,0-.12l.35.21.42.26.25.16.13.1.44.32q3.48,2.61,6.82,5.39,5.57,4.62,10.64,9.6l2.23,2.22.43.43C937.61,538.9,937.53,539,937.44,539Z" transform="translate(-729.14 -513.67)"/><path class="cls-1" d="M973.8,537.17l-3-2.41-2.63-2.15c-7-5.82-13.62-12-20.41-18.44-.61-.58-1.14-.48-1.09-.07l-.1-.09.23.56c-.72-.68-1.4-.38-.94,1.18,1.45,4.85,3.25,9.64,5.2,14.4q1.46,3.44,2.92,6.87c.17-.53-.38,1.44-.68,2.5l-1.07,3.69-2.36,8.12-.56,2-.75,3c-.6,2.48-1,4.78-1.48,7l-.65,3.43c0,.12,0,.07.08,0l.16-.15.32-.31.63-.6,1.27-1.21c1.64-1.53,3.42-3.34,5.15-5.09l6.44-6.65L970,542.72l2.35-2.49,1.5-1.57.75-.78C974.48,537.63,974,537.4,973.8,537.17Z" transform="translate(-729.14 -513.67)"/><path class="cls-1" d="M1012.68,538.68l-2.13-2.24c-3.46-3.46-6.74-6.42-9.91-9.25q-3.28-2.94-6.72-5.71l-3.54-2.78c-1.64-1.25-3.28-2.44-4.93-3.62l-1.24-.89c-.32-.17-1.11-1-.72-.15l.84,2.93,1.65,5.68,2.48,8.44,2.5,8.44c.27.85.39,1,.08,1.62l-.76,2-1.61,4.07c-2.22,5.39-4.58,10.77-6.55,16.25a4.12,4.12,0,0,0-.2.74c-.67.59-.55,1.14,0,1,.18.62.78.59,1.44-.64a1.14,1.14,0,0,1,.1-.19c6.58-3.83,13.11-9.8,19.53-15.92l5.17-4.89c1-.87,1.41-1.34,3.21-2.9l1.11-1,.54-.48c.17-.07,0-.18-.09-.27Zm-3,.35-.23.21-.94.86-5.23,4.82c-6,5.67-12,11.47-18.44,16.91,2-3.76,3.85-7.56,5.64-11.52,1.1-2.46,2.14-5,3.08-7.55l.39-1.11.34-.93a3.61,3.61,0,0,0-.22-.93l-.65-2.13-1.19-3.85-2.58-8.41-1.25-4.06-.31-.84-.09-.25c0-.09-.08-.2,0-.12l.35.21.42.26.24.16.14.1.43.32q3.48,2.61,6.82,5.39,5.58,4.62,10.64,9.6l2.23,2.22.44.43C1009.8,538.9,1009.72,539,1009.63,539Z" transform="translate(-729.14 -513.67)"/><path class="cls-1" d="M1046,537.17l-3-2.41-2.62-2.15c-7-5.82-13.62-12-20.42-18.44-.61-.58-1.13-.48-1.09-.07l-.09-.09c.08.19.15.38.23.56-.72-.68-1.4-.38-.94,1.18,1.45,4.85,3.24,9.64,5.2,14.4l2.91,6.87c.18-.53-.37,1.44-.67,2.5l-1.07,3.69-2.36,8.12-.56,2-.75,3c-.6,2.48-1,4.78-1.48,7l-.65,3.43c0,.12,0,.07.07,0l.16-.15.32-.31.64-.6,1.27-1.21c1.64-1.53,3.42-3.34,5.15-5.09l6.44-6.65,9.51-10.06,2.34-2.49,1.5-1.57.76-.78C1046.67,537.63,1046.23,537.4,1046,537.17Z" transform="translate(-729.14 -513.67)"/><path class="cls-1" d="M1084.87,538.68l-2.13-2.24c-3.46-3.46-6.75-6.42-9.91-9.25q-3.28-2.94-6.72-5.71l-3.55-2.78c-1.64-1.25-3.27-2.44-4.92-3.62l-1.24-.89c-.32-.17-1.11-1-.72-.15l.83,2.93,1.66,5.68,2.48,8.44,2.5,8.44c.27.85.38,1,.08,1.62l-.76,2-1.61,4.07c-2.23,5.39-4.58,10.77-6.55,16.25a4.12,4.12,0,0,0-.2.74c-.67.59-.56,1.14,0,1,.19.62.79.59,1.45-.64l.09-.19c6.58-3.83,13.12-9.8,19.54-15.92l5.17-4.89c1-.87,1.41-1.34,3.21-2.9l1.1-1,.55-.48c.17-.07,0-.18-.09-.27Zm-3.06.35-.22.21-.95.86-5.23,4.82c-6,5.67-12,11.47-18.43,16.91,2-3.76,3.85-7.56,5.64-11.52,1.1-2.46,2.14-5,3.07-7.55l.4-1.11.34-.93a3.61,3.61,0,0,0-.22-.93l-.65-2.13-1.19-3.85-2.58-8.41-1.25-4.06-.31-.84-.09-.25c0-.09-.08-.2,0-.12l.35.21.42.26.25.16.14.1.43.32q3.48,2.61,6.82,5.39,5.58,4.62,10.64,9.6l2.23,2.22.43.43C1082,538.9,1081.91,539,1081.81,539Z" transform="translate(-729.14 -513.67)"/><path class="cls-1" d="M1118.17,537.17l-3-2.41-2.63-2.15c-7-5.82-13.62-12-20.41-18.44-.61-.58-1.13-.48-1.09-.07l-.1-.09.24.56c-.72-.68-1.4-.38-.94,1.18,1.45,4.85,3.24,9.64,5.19,14.4l2.92,6.87c.17-.53-.37,1.44-.67,2.5l-1.07,3.69-2.36,8.12-.56,2-.75,3c-.61,2.48-1,4.78-1.48,7l-.66,3.43c0,.12,0,.07.08,0l.16-.15.32-.31.64-.6,1.27-1.21c1.63-1.53,3.42-3.34,5.14-5.09l6.45-6.65,9.5-10.06,2.35-2.49,1.5-1.57.76-.78C1118.86,537.63,1118.42,537.4,1118.17,537.17Z" transform="translate(-729.14 -513.67)"/><path class="cls-1" d="M1157.05,538.68l-2.13-2.24c-3.46-3.46-6.74-6.42-9.9-9.25q-3.29-2.94-6.73-5.71l-3.54-2.78c-1.64-1.25-3.28-2.44-4.92-3.62l-1.24-.89c-.33-.17-1.11-1-.72-.15l.83,2.93,1.66,5.68,2.47,8.44,2.51,8.44c.26.85.38,1,.07,1.62l-.76,2-1.61,4.07c-2.22,5.39-4.57,10.77-6.55,16.25a5.05,5.05,0,0,0-.19.74c-.67.59-.56,1.14,0,1,.19.62.79.59,1.44-.64l.1-.19c6.58-3.83,13.11-9.8,19.53-15.92l5.18-4.89c1-.87,1.41-1.34,3.21-2.9l1.1-1,.54-.48c.17-.07,0-.18-.08-.27Zm-3,.35-.22.21-1,.86-5.23,4.82c-6,5.67-11.95,11.47-18.43,16.91,1.95-3.76,3.85-7.56,5.63-11.52,1.1-2.46,2.14-5,3.08-7.55l.4-1.11.34-.93a3.61,3.61,0,0,0-.22-.93l-.66-2.13-1.19-3.85L1134,525.4l-1.24-4.06-.32-.84-.09-.25c0-.09-.08-.2,0-.12l.35.21.42.26.25.16.13.1.44.32q3.48,2.61,6.82,5.39,5.57,4.62,10.64,9.6l2.23,2.22.43.43C1154.17,538.9,1154.09,539,1154,539Z" transform="translate(-729.14 -513.67)"/><path class="cls-1" d="M1190.36,537.17l-3-2.41-2.63-2.15c-7-5.82-13.62-12-20.41-18.44-.61-.58-1.13-.48-1.09-.07l-.1-.09.24.56c-.73-.68-1.41-.38-.94,1.18,1.44,4.85,3.24,9.64,5.19,14.4q1.46,3.44,2.92,6.87c.17-.53-.38,1.44-.68,2.5l-1.07,3.69-2.36,8.12-.56,2-.75,3c-.6,2.48-1,4.78-1.47,7l-.66,3.43c0,.12,0,.07.08,0l.16-.15.32-.31.63-.6,1.27-1.21c1.64-1.53,3.43-3.34,5.15-5.09l6.44-6.65,9.51-10.06,2.35-2.49,1.5-1.57.75-.78C1191.05,537.63,1190.6,537.4,1190.36,537.17Z" transform="translate(-729.14 -513.67)"/></svg>