<svg width="1316" height="53.190000000000005" xmlns="http://www.w3.org/2000/svg" data-name="Capa 1">
 <style>.cls-1{fill:#2B4F60;}</style>
 <title>flechas moradas</title>

 <g>
  <title>Layer 1</title>
  <path class="cls-1" d="m28.08999,23.50002l-3,-2.41l-2.62,-2.15c-7,-5.82 -13.62,-12 -20.42,-18.44c-0.6,-0.58 -1.13,-0.48 -1.08,-0.07l-0.11,-0.1l0.23,0.56c-0.72,-0.68 -1.4,-0.38 -0.94,1.18c1.45,4.85 3.24,9.64 5.2,14.4q1.46,3.44 2.92,6.87c0.17,-0.53 -0.38,1.44 -0.68,2.5l-1.07,3.69l-2.36,8.12l-0.56,2l-0.75,3c-0.6,2.48 -1,4.78 -1.48,7l-0.65,3.43c0,0.12 0,0.07 0.07,0l0.16,-0.15l0.32,-0.31l0.64,-0.6l1.27,-1.21c1.64,-1.53 3.42,-3.34 5.15,-5.09l6.44,-6.65l9.51,-10.06l2.35,-2.49l1.49,-1.57l0.76,-0.78c-0.1,-0.21 -0.54,-0.44 -0.79,-0.67z" id="svg_1"/>
  <path class="cls-1" d="m66.97999,25.01002l-2.12,-2.24c-3.46,-3.46 -6.74,-6.42 -9.91,-9.25q-3.29,-2.94 -6.72,-5.71l-3.55,-2.78c-1.64,-1.25 -3.27,-2.44 -4.92,-3.62l-1.24,-0.89c-0.32,-0.17 -1.11,-1 -0.72,-0.15l0.83,2.93l1.66,5.68l2.48,8.44l2.5,8.44c0.27,0.85 0.38,1 0.08,1.62l-0.76,2l-1.61,4.07c-2.22,5.39 -4.58,10.77 -6.55,16.25a4.12,4.12 0 0 0 -0.2,0.74c-0.67,0.59 -0.55,1.14 0,1c0.19,0.62 0.79,0.59 1.45,-0.64a1.14,1.14 0 0 1 0.1,-0.19c6.57,-3.83 13.11,-9.8 19.53,-15.92l5.17,-4.89c1,-0.87 1.41,-1.34 3.21,-2.9l1.11,-1l0.54,-0.48c0.17,-0.07 0,-0.18 -0.09,-0.27l-0.27,-0.24zm-3,0.35l-0.23,0.21l-1,0.86l-5.22,4.82c-6,5.67 -12,11.47 -18.44,16.91c1.95,-3.76 3.85,-7.56 5.64,-11.52c1.1,-2.46 2.14,-5 3.07,-7.55l0.4,-1.11l0.34,-0.93a3.61,3.61 0 0 0 -0.22,-0.93l-0.65,-2.13l-1.19,-3.85l-2.62,-8.41l-1.25,-4.06l-0.31,-0.84l-0.09,-0.25c0,-0.09 -0.08,-0.2 0,-0.12l0.35,0.21l0.41,0.26l0.25,0.16l0.14,0.1l0.43,0.32q3.48,2.61 6.82,5.39q5.58,4.62 10.64,9.6l2.23,2.22l0.43,0.43c0.19,0.08 0.11,0.18 0.02,0.18l0.05,0.03z" id="svg_2"/>
  <path class="cls-1" d="m100.27999,23.50002l-3,-2.41l-2.62,-2.15c-7,-5.82 -13.62,-12 -20.42,-18.44c-0.61,-0.58 -1.13,-0.48 -1.09,-0.07l-0.09,-0.09c0.07,0.19 0.15,0.38 0.23,0.56c-0.72,-0.68 -1.4,-0.38 -0.94,1.18c1.45,4.85 3.24,9.64 5.19,14.4q1.47,3.44 2.92,6.87c0.18,-0.53 -0.37,1.44 -0.67,2.5l-1.07,3.69l-2.36,8.12l-0.56,2l-0.75,3c-0.61,2.48 -1,4.78 -1.48,7l-0.65,3.43c0,0.12 0,0.07 0.07,0l0.16,-0.15l0.32,-0.31l0.64,-0.6l1.27,-1.21c1.64,-1.53 3.42,-3.34 5.15,-5.09l6.44,-6.65l9.51,-10.06l2.34,-2.49l1.5,-1.57l0.76,-0.78c-0.11,-0.22 -0.55,-0.45 -0.8,-0.68z" id="svg_3"/>
  <path class="cls-1" d="m139.16999,25.01002l-2.13,-2.24c-3.46,-3.46 -6.75,-6.42 -9.91,-9.25q-3.28,-2.94 -6.72,-5.71l-3.55,-2.78c-1.64,-1.25 -3.27,-2.44 -4.92,-3.62l-1.24,-0.89c-0.32,-0.17 -1.11,-1 -0.72,-0.15l0.88,2.96l1.66,5.68l2.48,8.44l2.5,8.44c0.27,0.85 0.38,1 0.07,1.62l-0.76,2l-1.6,4.07c-2.23,5.39 -4.58,10.77 -6.56,16.25a5.05,5.05 0 0 0 -0.19,0.74c-0.67,0.59 -0.56,1.14 0,1c0.19,0.62 0.79,0.59 1.45,-0.64l0.09,-0.19c6.58,-3.83 13.12,-9.8 19.54,-15.92l5.17,-4.89c1,-0.87 1.41,-1.34 3.21,-2.9l1.1,-1l0.55,-0.48c0.16,-0.07 0,-0.18 -0.09,-0.27l-0.31,-0.27zm-3.06,0.35l-0.22,0.21l-0.95,0.86l-5.23,4.82c-6,5.67 -12,11.47 -18.43,16.91c2,-3.76 3.85,-7.56 5.63,-11.52c1.11,-2.46 2.14,-5 3.08,-7.55l0.4,-1.11l0.34,-0.93a3.61,3.61 0 0 0 -0.22,-0.93l-0.65,-2.13l-1.19,-3.85l-2.59,-8.41l-1.22,-4.06l-0.31,-0.84l-0.09,-0.25c0,-0.09 -0.08,-0.2 0,-0.12l0.35,0.21l0.42,0.26l0.25,0.16l0.14,0.1l0.43,0.32q3.48,2.61 6.82,5.39q5.57,4.62 10.64,9.6l2.23,2.22l0.43,0.43c0.11,0.08 0.04,0.18 -0.06,0.18l0,0.03z" id="svg_4"/>
  <path class="cls-1" d="m172.46999,23.50002l-3,-2.41l-2.61,-2.15c-7,-5.82 -13.62,-12 -20.41,-18.44c-0.61,-0.58 -1.13,-0.48 -1.09,-0.07l-0.1,-0.09l0.24,0.56c-0.72,-0.68 -1.41,-0.38 -0.94,1.18c1.44,4.85 3.24,9.64 5.19,14.4q1.46,3.44 2.92,6.87c0.17,-0.53 -0.37,1.44 -0.68,2.5l-1.13,3.69l-2.37,8.12l-0.56,2l-0.75,3c-0.6,2.48 -1,4.78 -1.47,7l-0.66,3.43c0,0.12 0,0.07 0.08,0l0.16,-0.15l0.32,-0.31l0.64,-0.6l1.26,-1.21c1.64,-1.53 3.43,-3.34 5.15,-5.09l6.44,-6.65l9.51,-10.06l2.35,-2.49l1.5,-1.57l0.76,-0.78c-0.06,-0.22 -0.5,-0.45 -0.75,-0.68z" id="svg_5"/>
  <path class="cls-1" d="m211.34999,25.01002l-2.13,-2.24c-3.46,-3.46 -6.74,-6.42 -9.9,-9.25q-3.3,-2.94 -6.73,-5.71l-3.54,-2.78c-1.64,-1.25 -3.28,-2.44 -4.92,-3.62l-1.24,-0.89c-0.33,-0.17 -1.11,-1 -0.72,-0.15l0.83,2.93l1.65,5.68l2.48,8.44l2.5,8.44c0.27,0.85 0.39,1 0.08,1.62l-0.76,2l-1.61,4.07c-2.22,5.39 -4.57,10.77 -6.55,16.25a5.05,5.05 0 0 0 -0.19,0.74c-0.68,0.59 -0.56,1.14 0,1c0.19,0.62 0.79,0.59 1.44,-0.64l0.1,-0.19c6.58,-3.83 13.11,-9.8 19.53,-15.92l5.18,-4.89c1,-0.87 1.41,-1.34 3.21,-2.9l1.1,-1l0.54,-0.48c0.17,-0.07 0,-0.18 -0.08,-0.27l-0.27,-0.24zm-3,0.35l-0.23,0.21l-0.94,0.86l-5.32,4.82c-6,5.67 -12,11.47 -18.43,16.91c1.95,-3.76 3.85,-7.56 5.63,-11.52c1.1,-2.46 2.14,-5 3.08,-7.55l0.4,-1.11l0.34,-0.93a3.62,3.62 0 0 0 -0.23,-0.93l-0.65,-2.13l-1.14,-3.85l-2.58,-8.41l-1.24,-4.06l-0.32,-0.84l-0.09,-0.25c0,-0.09 -0.08,-0.2 0,-0.12l0.35,0.21l0.42,0.26l0.25,0.16l0.13,0.1l0.44,0.32q3.48,2.61 6.82,5.39q5.57,4.62 10.64,9.6l2.23,2.22l0.43,0.43c0.13,0.08 0.05,0.18 -0.04,0.18l0.05,0.03z" id="svg_6"/>
  <path class="cls-1" d="m244.65999,23.50002l-3,-2.41l-2.63,-2.15c-7,-5.82 -13.62,-12 -20.41,-18.44c-0.61,-0.58 -1.14,-0.48 -1.09,-0.07l-0.1,-0.09l0.23,0.56c-0.72,-0.68 -1.4,-0.38 -0.94,1.18c1.45,4.85 3.25,9.64 5.2,14.4q1.46,3.44 2.92,6.87c0.17,-0.53 -0.38,1.44 -0.68,2.5l-1.07,3.69l-2.36,8.12l-0.56,2l-0.75,3c-0.6,2.48 -1,4.78 -1.48,7l-0.65,3.43c0,0.12 0,0.07 0.08,0l0.16,-0.15l0.32,-0.31l0.63,-0.6l1.27,-1.21c1.64,-1.53 3.42,-3.34 5.15,-5.09l6.44,-6.65l9.52,-10.03l2.35,-2.49l1.5,-1.57l0.75,-0.78c-0.12,-0.25 -0.6,-0.48 -0.8,-0.71z" id="svg_7"/>
  <path class="cls-1" d="m283.53999,25.01002l-2.13,-2.24c-3.46,-3.46 -6.74,-6.42 -9.91,-9.25q-3.28,-2.94 -6.72,-5.71l-3.54,-2.78c-1.64,-1.25 -3.28,-2.44 -4.93,-3.62l-1.24,-0.89c-0.32,-0.17 -1.11,-1 -0.72,-0.15l0.84,2.93l1.65,5.68l2.48,8.44l2.5,8.44c0.27,0.85 0.39,1 0.08,1.62l-0.76,2l-1.61,4.07c-2.22,5.39 -4.58,10.77 -6.55,16.25a4.12,4.12 0 0 0 -0.2,0.74c-0.67,0.59 -0.55,1.14 0,1c0.18,0.62 0.78,0.59 1.44,-0.64a1.14,1.14 0 0 1 0.1,-0.19c6.58,-3.83 13.11,-9.8 19.53,-15.92l5.17,-4.89c1,-0.87 1.41,-1.34 3.21,-2.9l1.11,-1l0.54,-0.48c0.17,-0.07 0,-0.18 -0.09,-0.27l-0.25,-0.24zm-3,0.35l-0.23,0.21l-0.94,0.86l-5.23,4.82c-6,5.67 -12,11.47 -18.44,16.91c2,-3.76 3.85,-7.56 5.64,-11.52c1.1,-2.46 2.14,-5 3.08,-7.55l0.39,-1.11l0.34,-0.93a3.61,3.61 0 0 0 -0.22,-0.93l-0.65,-2.13l-1.19,-3.85l-2.58,-8.41l-1.25,-4.06l-0.31,-0.84l-0.09,-0.25c0,-0.09 -0.08,-0.2 0,-0.12l0.35,0.21l0.42,0.26l0.24,0.16l0.14,0.1l0.43,0.32q3.48,2.61 6.82,5.39q5.58,4.62 10.64,9.6l2.23,2.22l0.44,0.43c0.09,0.08 0.01,0.18 -0.08,0.18l0.05,0.03z" id="svg_8"/>
  <path class="cls-1" d="m316.85999,23.50002l-3,-2.41l-2.62,-2.15c-7,-5.82 -13.62,-12 -20.42,-18.44c-0.61,-0.58 -1.13,-0.48 -1.09,-0.07l-0.09,-0.09c0.08,0.19 0.15,0.38 0.23,0.56c-0.72,-0.68 -1.4,-0.38 -0.94,1.18c1.45,4.85 3.24,9.64 5.2,14.4l2.91,6.87c0.18,-0.53 -0.37,1.44 -0.67,2.5l-1.07,3.69l-2.36,8.12l-0.56,2l-0.75,3c-0.6,2.48 -1,4.78 -1.48,7l-0.65,3.43c0,0.12 0,0.07 0.07,0l0.16,-0.15l0.32,-0.31l0.64,-0.6l1.27,-1.21c1.64,-1.53 3.42,-3.34 5.15,-5.09l6.44,-6.65l9.51,-10.06l2.34,-2.49l1.5,-1.57l0.76,-0.78c-0.13,-0.22 -0.57,-0.45 -0.8,-0.68z" id="svg_9"/>
  <path class="cls-1" d="m355.72999,25.01002l-2.13,-2.24c-3.46,-3.46 -6.75,-6.42 -9.91,-9.25q-3.28,-2.94 -6.72,-5.71l-3.55,-2.78c-1.64,-1.25 -3.27,-2.44 -4.92,-3.62l-1.24,-0.89c-0.32,-0.17 -1.11,-1 -0.72,-0.15l0.83,2.93l1.66,5.68l2.48,8.44l2.5,8.44c0.27,0.85 0.38,1 0.08,1.62l-0.76,2l-1.61,4.07c-2.23,5.39 -4.58,10.77 -6.55,16.25a4.12,4.12 0 0 0 -0.2,0.74c-0.67,0.59 -0.56,1.14 0,1c0.19,0.62 0.79,0.59 1.45,-0.64l0.09,-0.19c6.58,-3.83 13.12,-9.8 19.54,-15.92l5.17,-4.89c1,-0.87 1.41,-1.34 3.21,-2.9l1.1,-1l0.55,-0.48c0.17,-0.07 0,-0.18 -0.09,-0.27l-0.26,-0.24zm-3.06,0.35l-0.22,0.21l-0.95,0.86l-5.23,4.82c-6,5.67 -12,11.47 -18.43,16.91c2,-3.76 3.85,-7.56 5.64,-11.52c1.1,-2.46 2.14,-5 3.07,-7.55l0.4,-1.11l0.34,-0.93a3.61,3.61 0 0 0 -0.22,-0.93l-0.65,-2.13l-1.19,-3.85l-2.58,-8.41l-1.25,-4.06l-0.31,-0.84l-0.09,-0.25c0,-0.09 -0.08,-0.2 0,-0.12l0.35,0.21l0.42,0.26l0.25,0.16l0.14,0.1l0.43,0.32q3.48,2.61 6.82,5.39q5.58,4.62 10.64,9.6l2.23,2.22l0.43,0.43c0.15,0.08 0.06,0.18 -0.04,0.18l0,0.03z" id="svg_10"/>
  <path class="cls-1" d="m389.02999,23.50002l-3,-2.41l-2.63,-2.15c-7,-5.82 -13.62,-12 -20.41,-18.44c-0.61,-0.58 -1.13,-0.48 -1.09,-0.07l-0.1,-0.09l0.24,0.56c-0.72,-0.68 -1.4,-0.38 -0.94,1.18c1.45,4.85 3.24,9.64 5.19,14.4l2.92,6.87c0.17,-0.53 -0.37,1.44 -0.67,2.5l-1.07,3.69l-2.36,8.12l-0.56,2l-0.75,3c-0.61,2.48 -1,4.78 -1.48,7l-0.66,3.43c0,0.12 0,0.07 0.08,0l0.16,-0.15l0.32,-0.31l0.64,-0.6l1.27,-1.21c1.63,-1.53 3.42,-3.34 5.14,-5.09l6.45,-6.65l9.5,-10.06l2.35,-2.49l1.5,-1.57l0.76,-0.78c-0.11,-0.22 -0.55,-0.45 -0.8,-0.68z" id="svg_11"/>
  <path class="cls-1" d="m427.90999,25.01002l-2.13,-2.24c-3.46,-3.46 -6.74,-6.42 -9.9,-9.25q-3.29,-2.94 -6.73,-5.71l-3.54,-2.78c-1.64,-1.25 -3.28,-2.44 -4.92,-3.62l-1.24,-0.89c-0.33,-0.17 -1.11,-1 -0.72,-0.15l0.83,2.93l1.66,5.68l2.47,8.44l2.51,8.44c0.26,0.85 0.38,1 0.07,1.62l-0.76,2l-1.61,4.07c-2.22,5.39 -4.57,10.77 -6.55,16.25a5.05,5.05 0 0 0 -0.19,0.74c-0.67,0.59 -0.56,1.14 0,1c0.19,0.62 0.79,0.59 1.44,-0.64l0.1,-0.19c6.58,-3.83 13.11,-9.8 19.53,-15.92l5.18,-4.89c1,-0.87 1.41,-1.34 3.21,-2.9l1.1,-1l0.54,-0.48c0.17,-0.07 0,-0.18 -0.08,-0.27l-0.27,-0.24zm-3,0.35l-0.22,0.21l-1,0.86l-5.23,4.82c-6,5.67 -11.95,11.47 -18.43,16.91c1.95,-3.76 3.85,-7.56 5.63,-11.52c1.1,-2.46 2.14,-5 3.08,-7.55l0.4,-1.11l0.34,-0.93a3.61,3.61 0 0 0 -0.22,-0.93l-0.66,-2.13l-1.19,-3.85l-2.55,-8.41l-1.24,-4.06l-0.32,-0.84l-0.09,-0.25c0,-0.09 -0.08,-0.2 0,-0.12l0.35,0.21l0.42,0.26l0.25,0.16l0.13,0.1l0.44,0.32q3.48,2.61 6.82,5.39q5.57,4.62 10.64,9.6l2.23,2.22l0.43,0.43c0.11,0.08 0.03,0.18 -0.06,0.18l0.05,0.03z" id="svg_12" stroke="null"/>
  <path class="cls-1" d="m461.21999,23.50002l-3,-2.41l-2.63,-2.15c-7,-5.82 -13.62,-12 -20.41,-18.44c-0.61,-0.58 -1.13,-0.48 -1.09,-0.07l-0.1,-0.09l0.24,0.56c-0.73,-0.68 -1.41,-0.38 -0.94,1.18c1.44,4.85 3.24,9.64 5.19,14.4q1.46,3.44 2.92,6.87c0.17,-0.53 -0.38,1.44 -0.68,2.5l-1.07,3.69l-2.36,8.12l-0.56,2l-0.75,3c-0.6,2.48 -1,4.78 -1.47,7l-0.66,3.43c0,0.12 0,0.07 0.08,0l0.16,-0.15l0.32,-0.31l0.63,-0.6l1.27,-1.21c1.64,-1.53 3.43,-3.34 5.15,-5.09l6.44,-6.65l9.51,-10.06l2.35,-2.49l1.5,-1.57l0.75,-0.78c-0.1,-0.22 -0.55,-0.45 -0.79,-0.68z" id="svg_13"/>
  <path class="cls-1" d="m495.12311,25.66576l-2.13,-2.24c-3.46,-3.46 -6.74,-6.42 -9.9,-9.25q-3.29,-2.94 -6.73,-5.71l-3.54,-2.78c-1.64,-1.25 -3.28,-2.44 -4.92,-3.62l-1.24,-0.89c-0.33,-0.17 -1.11,-1 -0.72,-0.15l0.83,2.93l1.66,5.68l2.47,8.44l2.51,8.44c0.26,0.85 0.38,1 0.07,1.62l-0.76,2l-1.61,4.07c-2.22,5.39 -4.57,10.77 -6.55,16.25a5.05,5.05 0 0 0 -0.19,0.74c-0.67,0.59 -0.56,1.14 0,1c0.19,0.62 0.79,0.59 1.44,-0.64l0.1,-0.19c6.58,-3.83 13.11,-9.8 19.53,-15.92l5.18,-4.89c1,-0.87 1.41,-1.34 3.21,-2.9l1.1,-1l0.54,-0.48c0.17,-0.07 0,-0.18 -0.08,-0.27l-0.27,-0.24zm-3,0.35l-0.22,0.21l-1,0.86l-5.23,4.82c-6,5.67 -11.95,11.47 -18.43,16.91c1.95,-3.76 3.85,-7.56 5.63,-11.52c1.1,-2.46 2.14,-5 3.08,-7.55l0.4,-1.11l0.34,-0.93a3.61,3.61 0 0 0 -0.22,-0.93l-0.66,-2.13l-1.19,-3.85l-2.55,-8.41l-1.24,-4.06l-0.32,-0.84l-0.09,-0.25c0,-0.09 -0.08,-0.2 0,-0.12l0.35,0.21l0.42,0.26l0.25,0.16l0.13,0.1l0.44,0.32q3.48,2.61 6.82,5.39q5.57,4.62 10.64,9.6l2.23,2.22l0.43,0.43c0.11,0.08 0.03,0.18 -0.06,0.18l0.05,0.03z" id="svg_15" stroke="null"/>
  <path class="cls-1" d="m528.67874,23.50002l-3,-2.41l-2.62,-2.15c-7,-5.82 -13.62,-12 -20.42,-18.44c-0.6,-0.58 -1.13,-0.48 -1.08,-0.07l-0.11,-0.1l0.23,0.56c-0.72,-0.68 -1.4,-0.38 -0.94,1.18c1.45,4.85 3.24,9.64 5.2,14.4q1.46,3.44 2.92,6.87c0.17,-0.53 -0.38,1.44 -0.68,2.5l-1.07,3.69l-2.36,8.12l-0.56,2l-0.75,3c-0.6,2.48 -1,4.78 -1.48,7l-0.65,3.43c0,0.12 0,0.07 0.07,0l0.16,-0.15l0.32,-0.31l0.64,-0.6l1.27,-1.21c1.64,-1.53 3.42,-3.34 5.15,-5.09l6.44,-6.65l9.51,-10.06l2.35,-2.49l1.49,-1.57l0.76,-0.78c-0.1,-0.21 -0.54,-0.44 -0.79,-0.67z" id="svg_16"/>
  <path class="cls-1" d="m567.56874,25.01002l-2.12,-2.24c-3.46,-3.46 -6.74,-6.42 -9.91,-9.25q-3.29,-2.94 -6.72,-5.71l-3.55,-2.78c-1.64,-1.25 -3.27,-2.44 -4.92,-3.62l-1.24,-0.89c-0.32,-0.17 -1.11,-1 -0.72,-0.15l0.83,2.93l1.66,5.68l2.48,8.44l2.5,8.44c0.27,0.85 0.38,1 0.08,1.62l-0.76,2l-1.61,4.07c-2.22,5.39 -4.58,10.77 -6.55,16.25a4.12,4.12 0 0 0 -0.2,0.74c-0.67,0.59 -0.55,1.14 0,1c0.19,0.62 0.79,0.59 1.45,-0.64a1.14,1.14 0 0 1 0.1,-0.19c6.57,-3.83 13.11,-9.8 19.53,-15.92l5.17,-4.89c1,-0.87 1.41,-1.34 3.21,-2.9l1.11,-1l0.54,-0.48c0.17,-0.07 0,-0.18 -0.09,-0.27l-0.27,-0.24zm-3,0.35l-0.23,0.21l-1,0.86l-5.22,4.82c-6,5.67 -12,11.47 -18.44,16.91c1.95,-3.76 3.85,-7.56 5.64,-11.52c1.1,-2.46 2.14,-5 3.07,-7.55l0.4,-1.11l0.34,-0.93a3.61,3.61 0 0 0 -0.22,-0.93l-0.65,-2.13l-1.19,-3.85l-2.62,-8.41l-1.25,-4.06l-0.31,-0.84l-0.09,-0.25c0,-0.09 -0.08,-0.2 0,-0.12l0.35,0.21l0.41,0.26l0.25,0.16l0.14,0.1l0.43,0.32q3.48,2.61 6.82,5.39q5.58,4.62 10.64,9.6l2.23,2.22l0.43,0.43c0.19,0.08 0.11,0.18 0.02,0.18l0.05,0.03z" id="svg_17"/>
  <path class="cls-1" d="m600.86874,23.50002l-3,-2.41l-2.62,-2.15c-7,-5.82 -13.62,-12 -20.42,-18.44c-0.61,-0.58 -1.13,-0.48 -1.09,-0.07l-0.09,-0.09c0.07,0.19 0.15,0.38 0.23,0.56c-0.72,-0.68 -1.4,-0.38 -0.94,1.18c1.45,4.85 3.24,9.64 5.19,14.4q1.47,3.44 2.92,6.87c0.18,-0.53 -0.37,1.44 -0.67,2.5l-1.07,3.69l-2.36,8.12l-0.56,2l-0.75,3c-0.61,2.48 -1,4.78 -1.48,7l-0.65,3.43c0,0.12 0,0.07 0.07,0l0.16,-0.15l0.32,-0.31l0.64,-0.6l1.27,-1.21c1.64,-1.53 3.42,-3.34 5.15,-5.09l6.44,-6.65l9.51,-10.06l2.34,-2.49l1.5,-1.57l0.76,-0.78c-0.11,-0.22 -0.55,-0.45 -0.8,-0.68z" id="svg_18"/>
  <path class="cls-1" d="m639.75874,25.01002l-2.13,-2.24c-3.46,-3.46 -6.75,-6.42 -9.91,-9.25q-3.28,-2.94 -6.72,-5.71l-3.55,-2.78c-1.64,-1.25 -3.27,-2.44 -4.92,-3.62l-1.24,-0.89c-0.32,-0.17 -1.11,-1 -0.72,-0.15l0.88,2.96l1.66,5.68l2.48,8.44l2.5,8.44c0.27,0.85 0.38,1 0.07,1.62l-0.76,2l-1.6,4.07c-2.23,5.39 -4.58,10.77 -6.56,16.25a5.05,5.05 0 0 0 -0.19,0.74c-0.67,0.59 -0.56,1.14 0,1c0.19,0.62 0.79,0.59 1.45,-0.64l0.09,-0.19c6.58,-3.83 13.12,-9.8 19.54,-15.92l5.17,-4.89c1,-0.87 1.41,-1.34 3.21,-2.9l1.1,-1l0.55,-0.48c0.16,-0.07 0,-0.18 -0.09,-0.27l-0.31,-0.27zm-3.06,0.35l-0.22,0.21l-0.95,0.86l-5.23,4.82c-6,5.67 -12,11.47 -18.43,16.91c2,-3.76 3.85,-7.56 5.63,-11.52c1.11,-2.46 2.14,-5 3.08,-7.55l0.4,-1.11l0.34,-0.93a3.61,3.61 0 0 0 -0.22,-0.93l-0.65,-2.13l-1.19,-3.85l-2.59,-8.41l-1.22,-4.06l-0.31,-0.84l-0.09,-0.25c0,-0.09 -0.08,-0.2 0,-0.12l0.35,0.21l0.42,0.26l0.25,0.16l0.14,0.1l0.43,0.32q3.48,2.61 6.82,5.39q5.57,4.62 10.64,9.6l2.23,2.22l0.43,0.43c0.11,0.08 0.04,0.18 -0.06,0.18l0,0.03z" id="svg_19"/>
  <path class="cls-1" d="m673.05874,23.50002l-3,-2.41l-2.61,-2.15c-7,-5.82 -13.62,-12 -20.41,-18.44c-0.61,-0.58 -1.13,-0.48 -1.09,-0.07l-0.1,-0.09l0.24,0.56c-0.72,-0.68 -1.41,-0.38 -0.94,1.18c1.44,4.85 3.24,9.64 5.19,14.4q1.46,3.44 2.92,6.87c0.17,-0.53 -0.37,1.44 -0.68,2.5l-1.13,3.69l-2.37,8.12l-0.56,2l-0.75,3c-0.6,2.48 -1,4.78 -1.47,7l-0.66,3.43c0,0.12 0,0.07 0.08,0l0.16,-0.15l0.32,-0.31l0.64,-0.6l1.26,-1.21c1.64,-1.53 3.43,-3.34 5.15,-5.09l6.44,-6.65l9.51,-10.06l2.35,-2.49l1.5,-1.57l0.76,-0.78c-0.06,-0.22 -0.5,-0.45 -0.75,-0.68z" id="svg_20"/>
  <path class="cls-1" d="m711.93874,25.01002l-2.13,-2.24c-3.46,-3.46 -6.74,-6.42 -9.9,-9.25q-3.3,-2.94 -6.73,-5.71l-3.54,-2.78c-1.64,-1.25 -3.28,-2.44 -4.92,-3.62l-1.24,-0.89c-0.33,-0.17 -1.11,-1 -0.72,-0.15l0.83,2.93l1.65,5.68l2.48,8.44l2.5,8.44c0.27,0.85 0.39,1 0.08,1.62l-0.76,2l-1.61,4.07c-2.22,5.39 -4.57,10.77 -6.55,16.25a5.05,5.05 0 0 0 -0.19,0.74c-0.68,0.59 -0.56,1.14 0,1c0.19,0.62 0.79,0.59 1.44,-0.64l0.1,-0.19c6.58,-3.83 13.11,-9.8 19.53,-15.92l5.18,-4.89c1,-0.87 1.41,-1.34 3.21,-2.9l1.1,-1l0.54,-0.48c0.17,-0.07 0,-0.18 -0.08,-0.27l-0.27,-0.24zm-3,0.35l-0.23,0.21l-0.94,0.86l-5.32,4.82c-6,5.67 -12,11.47 -18.43,16.91c1.95,-3.76 3.85,-7.56 5.63,-11.52c1.1,-2.46 2.14,-5 3.08,-7.55l0.4,-1.11l0.34,-0.93a3.62,3.62 0 0 0 -0.23,-0.93l-0.65,-2.13l-1.14,-3.85l-2.58,-8.41l-1.24,-4.06l-0.32,-0.84l-0.09,-0.25c0,-0.09 -0.08,-0.2 0,-0.12l0.35,0.21l0.42,0.26l0.25,0.16l0.13,0.1l0.44,0.32q3.48,2.61 6.82,5.39q5.57,4.62 10.64,9.6l2.23,2.22l0.43,0.43c0.13,0.08 0.05,0.18 -0.04,0.18l0.05,0.03z" id="svg_21"/>
  <path class="cls-1" d="m745.24874,23.50002l-3,-2.41l-2.63,-2.15c-7,-5.82 -13.62,-12 -20.41,-18.44c-0.61,-0.58 -1.14,-0.48 -1.09,-0.07l-0.1,-0.09l0.23,0.56c-0.72,-0.68 -1.4,-0.38 -0.94,1.18c1.45,4.85 3.25,9.64 5.2,14.4q1.46,3.44 2.92,6.87c0.17,-0.53 -0.38,1.44 -0.68,2.5l-1.07,3.69l-2.36,8.12l-0.56,2l-0.75,3c-0.6,2.48 -1,4.78 -1.48,7l-0.65,3.43c0,0.12 0,0.07 0.08,0l0.16,-0.15l0.32,-0.31l0.63,-0.6l1.27,-1.21c1.64,-1.53 3.42,-3.34 5.15,-5.09l6.44,-6.65l9.52,-10.03l2.35,-2.49l1.5,-1.57l0.75,-0.78c-0.12,-0.25 -0.6,-0.48 -0.8,-0.71z" id="svg_22"/>
  <path class="cls-1" d="m784.12874,25.01002l-2.13,-2.24c-3.46,-3.46 -6.74,-6.42 -9.91,-9.25q-3.28,-2.94 -6.72,-5.71l-3.54,-2.78c-1.64,-1.25 -3.28,-2.44 -4.93,-3.62l-1.24,-0.89c-0.32,-0.17 -1.11,-1 -0.72,-0.15l0.84,2.93l1.65,5.68l2.48,8.44l2.5,8.44c0.27,0.85 0.39,1 0.08,1.62l-0.76,2l-1.61,4.07c-2.22,5.39 -4.58,10.77 -6.55,16.25a4.12,4.12 0 0 0 -0.2,0.74c-0.67,0.59 -0.55,1.14 0,1c0.18,0.62 0.78,0.59 1.44,-0.64a1.14,1.14 0 0 1 0.1,-0.19c6.58,-3.83 13.11,-9.8 19.53,-15.92l5.17,-4.89c1,-0.87 1.41,-1.34 3.21,-2.9l1.11,-1l0.54,-0.48c0.17,-0.07 0,-0.18 -0.09,-0.27l-0.25,-0.24zm-3,0.35l-0.23,0.21l-0.94,0.86l-5.23,4.82c-6,5.67 -12,11.47 -18.44,16.91c2,-3.76 3.85,-7.56 5.64,-11.52c1.1,-2.46 2.14,-5 3.08,-7.55l0.39,-1.11l0.34,-0.93a3.61,3.61 0 0 0 -0.22,-0.93l-0.65,-2.13l-1.19,-3.85l-2.58,-8.41l-1.25,-4.06l-0.31,-0.84l-0.09,-0.25c0,-0.09 -0.08,-0.2 0,-0.12l0.35,0.21l0.42,0.26l0.24,0.16l0.14,0.1l0.43,0.32q3.48,2.61 6.82,5.39q5.58,4.62 10.64,9.6l2.23,2.22l0.44,0.43c0.09,0.08 0.01,0.18 -0.08,0.18l0.05,0.03z" id="svg_23"/>
  <path class="cls-1" d="m817.44874,23.50002l-3,-2.41l-2.62,-2.15c-7,-5.82 -13.62,-12 -20.42,-18.44c-0.61,-0.58 -1.13,-0.48 -1.09,-0.07l-0.09,-0.09c0.08,0.19 0.15,0.38 0.23,0.56c-0.72,-0.68 -1.4,-0.38 -0.94,1.18c1.45,4.85 3.24,9.64 5.2,14.4l2.91,6.87c0.18,-0.53 -0.37,1.44 -0.67,2.5l-1.07,3.69l-2.36,8.12l-0.56,2l-0.75,3c-0.6,2.48 -1,4.78 -1.48,7l-0.65,3.43c0,0.12 0,0.07 0.07,0l0.16,-0.15l0.32,-0.31l0.64,-0.6l1.27,-1.21c1.64,-1.53 3.42,-3.34 5.15,-5.09l6.44,-6.65l9.51,-10.06l2.34,-2.49l1.5,-1.57l0.76,-0.78c-0.13,-0.22 -0.57,-0.45 -0.8,-0.68z" id="svg_24"/>
  <path class="cls-1" d="m856.31874,25.01002l-2.13,-2.24c-3.46,-3.46 -6.75,-6.42 -9.91,-9.25q-3.28,-2.94 -6.72,-5.71l-3.55,-2.78c-1.64,-1.25 -3.27,-2.44 -4.92,-3.62l-1.24,-0.89c-0.32,-0.17 -1.11,-1 -0.72,-0.15l0.83,2.93l1.66,5.68l2.48,8.44l2.5,8.44c0.27,0.85 0.38,1 0.08,1.62l-0.76,2l-1.61,4.07c-2.23,5.39 -4.58,10.77 -6.55,16.25a4.12,4.12 0 0 0 -0.2,0.74c-0.67,0.59 -0.56,1.14 0,1c0.19,0.62 0.79,0.59 1.45,-0.64l0.09,-0.19c6.58,-3.83 13.12,-9.8 19.54,-15.92l5.17,-4.89c1,-0.87 1.41,-1.34 3.21,-2.9l1.1,-1l0.55,-0.48c0.17,-0.07 0,-0.18 -0.09,-0.27l-0.26,-0.24zm-3.06,0.35l-0.22,0.21l-0.95,0.86l-5.23,4.82c-6,5.67 -12,11.47 -18.43,16.91c2,-3.76 3.85,-7.56 5.64,-11.52c1.1,-2.46 2.14,-5 3.07,-7.55l0.4,-1.11l0.34,-0.93a3.61,3.61 0 0 0 -0.22,-0.93l-0.65,-2.13l-1.19,-3.85l-2.58,-8.41l-1.25,-4.06l-0.31,-0.84l-0.09,-0.25c0,-0.09 -0.08,-0.2 0,-0.12l0.35,0.21l0.42,0.26l0.25,0.16l0.14,0.1l0.43,0.32q3.48,2.61 6.82,5.39q5.58,4.62 10.64,9.6l2.23,2.22l0.43,0.43c0.15,0.08 0.06,0.18 -0.04,0.18l0,0.03z" id="svg_25"/>
  <path class="cls-1" d="m889.61874,23.50002l-3,-2.41l-2.63,-2.15c-7,-5.82 -13.62,-12 -20.41,-18.44c-0.61,-0.58 -1.13,-0.48 -1.09,-0.07l-0.1,-0.09l0.24,0.56c-0.72,-0.68 -1.4,-0.38 -0.94,1.18c1.45,4.85 3.24,9.64 5.19,14.4l2.92,6.87c0.17,-0.53 -0.37,1.44 -0.67,2.5l-1.07,3.69l-2.36,8.12l-0.56,2l-0.75,3c-0.61,2.48 -1,4.78 -1.48,7l-0.66,3.43c0,0.12 0,0.07 0.08,0l0.16,-0.15l0.32,-0.31l0.64,-0.6l1.27,-1.21c1.63,-1.53 3.42,-3.34 5.14,-5.09l6.45,-6.65l9.5,-10.06l2.35,-2.49l1.5,-1.57l0.76,-0.78c-0.11,-0.22 -0.55,-0.45 -0.8,-0.68z" id="svg_26"/>
  <path class="cls-1" d="m923.79588,24.9692l-2.13,-2.24c-3.46,-3.46 -6.74,-6.42 -9.9,-9.25q-3.3,-2.94 -6.73,-5.71l-3.54,-2.78c-1.64,-1.25 -3.28,-2.44 -4.92,-3.62l-1.24,-0.89c-0.33,-0.17 -1.11,-1 -0.72,-0.15l0.83,2.93l1.65,5.68l2.48,8.44l2.5,8.44c0.27,0.85 0.39,1 0.08,1.62l-0.76,2l-1.61,4.07c-2.22,5.39 -4.57,10.77 -6.55,16.25a5.05,5.05 0 0 0 -0.19,0.74c-0.68,0.59 -0.56,1.14 0,1c0.19,0.62 0.79,0.59 1.44,-0.64l0.1,-0.19c6.58,-3.83 13.11,-9.8 19.53,-15.92l5.18,-4.89c1,-0.87 1.41,-1.34 3.21,-2.9l1.1,-1l0.54,-0.48c0.17,-0.07 0,-0.18 -0.08,-0.27l-0.27,-0.24zm-3,0.35l-0.23,0.21l-0.94,0.86l-5.32,4.82c-6,5.67 -12,11.47 -18.43,16.91c1.95,-3.76 3.85,-7.56 5.63,-11.52c1.1,-2.46 2.14,-5 3.08,-7.55l0.4,-1.11l0.34,-0.93a3.62,3.62 0 0 0 -0.23,-0.93l-0.65,-2.13l-1.14,-3.85l-2.58,-8.41l-1.24,-4.06l-0.32,-0.84l-0.09,-0.25c0,-0.09 -0.08,-0.2 0,-0.12l0.35,0.21l0.42,0.26l0.25,0.16l0.13,0.1l0.44,0.32q3.48,2.61 6.82,5.39q5.57,4.62 10.64,9.6l2.23,2.22l0.43,0.43c0.13,0.08 0.05,0.18 -0.04,0.18l0.05,0.03z" id="svg_14"/>
  <path class="cls-1" d="m957.10588,23.4592l-3,-2.41l-2.63,-2.15c-7,-5.82 -13.62,-12 -20.41,-18.44c-0.61,-0.58 -1.14,-0.48 -1.09,-0.07l-0.1,-0.09l0.23,0.56c-0.72,-0.68 -1.4,-0.38 -0.94,1.18c1.45,4.85 3.25,9.64 5.2,14.4q1.46,3.44 2.92,6.87c0.17,-0.53 -0.38,1.44 -0.68,2.5l-1.07,3.69l-2.36,8.12l-0.56,2l-0.75,3c-0.6,2.48 -1,4.78 -1.48,7l-0.65,3.43c0,0.12 0,0.07 0.08,0l0.16,-0.15l0.32,-0.31l0.63,-0.6l1.27,-1.21c1.64,-1.53 3.42,-3.34 5.15,-5.09l6.44,-6.65l9.52,-10.03l2.35,-2.49l1.5,-1.57l0.75,-0.78c-0.12,-0.25 -0.6,-0.48 -0.8,-0.71z" id="svg_27"/>
  <path class="cls-1" d="m995.98588,24.9692l-2.13,-2.24c-3.46,-3.46 -6.74,-6.42 -9.91,-9.25q-3.28,-2.94 -6.72,-5.71l-3.54,-2.78c-1.64,-1.25 -3.28,-2.44 -4.93,-3.62l-1.24,-0.89c-0.32,-0.17 -1.11,-1 -0.72,-0.15l0.84,2.93l1.65,5.68l2.48,8.44l2.5,8.44c0.27,0.85 0.39,1 0.08,1.62l-0.76,2l-1.61,4.07c-2.22,5.39 -4.58,10.77 -6.55,16.25a4.12,4.12 0 0 0 -0.2,0.74c-0.67,0.59 -0.55,1.14 0,1c0.18,0.62 0.78,0.59 1.44,-0.64a1.14,1.14 0 0 1 0.1,-0.19c6.58,-3.83 13.11,-9.8 19.53,-15.92l5.17,-4.89c1,-0.87 1.41,-1.34 3.21,-2.9l1.11,-1l0.54,-0.48c0.17,-0.07 0,-0.18 -0.09,-0.27l-0.25,-0.24zm-3,0.35l-0.23,0.21l-0.94,0.86l-5.23,4.82c-6,5.67 -12,11.47 -18.44,16.91c2,-3.76 3.85,-7.56 5.64,-11.52c1.1,-2.46 2.14,-5 3.08,-7.55l0.39,-1.11l0.34,-0.93a3.61,3.61 0 0 0 -0.22,-0.93l-0.65,-2.13l-1.19,-3.85l-2.58,-8.41l-1.25,-4.06l-0.31,-0.84l-0.09,-0.25c0,-0.09 -0.08,-0.2 0,-0.12l0.35,0.21l0.42,0.26l0.24,0.16l0.14,0.1l0.43,0.32q3.48,2.61 6.82,5.39q5.58,4.62 10.64,9.6l2.23,2.22l0.44,0.43c0.09,0.08 0.01,0.18 -0.08,0.18l0.05,0.03z" id="svg_28"/>
  <path class="cls-1" d="m1029.30588,23.4592l-3,-2.41l-2.62,-2.15c-7,-5.82 -13.62,-12 -20.42,-18.44c-0.61,-0.58 -1.13,-0.48 -1.09,-0.07l-0.09,-0.09c0.08,0.19 0.15,0.38 0.23,0.56c-0.72,-0.68 -1.4,-0.38 -0.94,1.18c1.45,4.85 3.24,9.64 5.2,14.4l2.91,6.87c0.18,-0.53 -0.37,1.44 -0.67,2.5l-1.07,3.69l-2.36,8.12l-0.56,2l-0.75,3c-0.6,2.48 -1,4.78 -1.48,7l-0.65,3.43c0,0.12 0,0.07 0.07,0l0.16,-0.15l0.32,-0.31l0.64,-0.6l1.27,-1.21c1.64,-1.53 3.42,-3.34 5.15,-5.09l6.44,-6.65l9.51,-10.06l2.34,-2.49l1.5,-1.57l0.76,-0.78c-0.13,-0.22 -0.57,-0.45 -0.8,-0.68z" id="svg_29"/>
  <path class="cls-1" d="m1068.17588,24.9692l-2.13,-2.24c-3.46,-3.46 -6.75,-6.42 -9.91,-9.25q-3.28,-2.94 -6.72,-5.71l-3.55,-2.78c-1.64,-1.25 -3.27,-2.44 -4.92,-3.62l-1.24,-0.89c-0.32,-0.17 -1.11,-1 -0.72,-0.15l0.83,2.93l1.66,5.68l2.48,8.44l2.5,8.44c0.27,0.85 0.38,1 0.08,1.62l-0.76,2l-1.61,4.07c-2.23,5.39 -4.58,10.77 -6.55,16.25a4.12,4.12 0 0 0 -0.2,0.74c-0.67,0.59 -0.56,1.14 0,1c0.19,0.62 0.79,0.59 1.45,-0.64l0.09,-0.19c6.58,-3.83 13.12,-9.8 19.54,-15.92l5.17,-4.89c1,-0.87 1.41,-1.34 3.21,-2.9l1.1,-1l0.55,-0.48c0.17,-0.07 0,-0.18 -0.09,-0.27l-0.26,-0.24zm-3.06,0.35l-0.22,0.21l-0.95,0.86l-5.23,4.82c-6,5.67 -12,11.47 -18.43,16.91c2,-3.76 3.85,-7.56 5.64,-11.52c1.1,-2.46 2.14,-5 3.07,-7.55l0.4,-1.11l0.34,-0.93a3.61,3.61 0 0 0 -0.22,-0.93l-0.65,-2.13l-1.19,-3.85l-2.58,-8.41l-1.25,-4.06l-0.31,-0.84l-0.09,-0.25c0,-0.09 -0.08,-0.2 0,-0.12l0.35,0.21l0.42,0.26l0.25,0.16l0.14,0.1l0.43,0.32q3.48,2.61 6.82,5.39q5.58,4.62 10.64,9.6l2.23,2.22l0.43,0.43c0.15,0.08 0.06,0.18 -0.04,0.18l0,0.03z" id="svg_30"/>
  <path class="cls-1" d="m1101.47588,23.4592l-3,-2.41l-2.63,-2.15c-7,-5.82 -13.62,-12 -20.41,-18.44c-0.61,-0.58 -1.13,-0.48 -1.09,-0.07l-0.1,-0.09l0.24,0.56c-0.72,-0.68 -1.4,-0.38 -0.94,1.18c1.45,4.85 3.24,9.64 5.19,14.4l2.92,6.87c0.17,-0.53 -0.37,1.44 -0.67,2.5l-1.07,3.69l-2.36,8.12l-0.56,2l-0.75,3c-0.61,2.48 -1,4.78 -1.48,7l-0.66,3.43c0,0.12 0,0.07 0.08,0l0.16,-0.15l0.32,-0.31l0.64,-0.6l1.27,-1.21c1.63,-1.53 3.42,-3.34 5.14,-5.09l6.45,-6.65l9.5,-10.06l2.35,-2.49l1.5,-1.57l0.76,-0.78c-0.11,-0.22 -0.55,-0.45 -0.8,-0.68z" id="svg_31"/>
  <path class="cls-1" d="m1137.79588,24.9692l-2.13,-2.24c-3.46,-3.46 -6.74,-6.42 -9.9,-9.25q-3.3,-2.94 -6.73,-5.71l-3.54,-2.78c-1.64,-1.25 -3.28,-2.44 -4.92,-3.62l-1.24,-0.89c-0.33,-0.17 -1.11,-1 -0.72,-0.15l0.83,2.93l1.65,5.68l2.48,8.44l2.5,8.44c0.27,0.85 0.39,1 0.08,1.62l-0.76,2l-1.61,4.07c-2.22,5.39 -4.57,10.77 -6.55,16.25a5.05,5.05 0 0 0 -0.19,0.74c-0.68,0.59 -0.56,1.14 0,1c0.19,0.62 0.79,0.59 1.44,-0.64l0.1,-0.19c6.58,-3.83 13.11,-9.8 19.53,-15.92l5.18,-4.89c1,-0.87 1.41,-1.34 3.21,-2.9l1.1,-1l0.54,-0.48c0.17,-0.07 0,-0.18 -0.08,-0.27l-0.27,-0.24zm-3,0.35l-0.23,0.21l-0.94,0.86l-5.32,4.82c-6,5.67 -12,11.47 -18.43,16.91c1.95,-3.76 3.85,-7.56 5.63,-11.52c1.1,-2.46 2.14,-5 3.08,-7.55l0.4,-1.11l0.34,-0.93a3.62,3.62 0 0 0 -0.23,-0.93l-0.65,-2.13l-1.14,-3.85l-2.58,-8.41l-1.24,-4.06l-0.32,-0.84l-0.09,-0.25c0,-0.09 -0.08,-0.2 0,-0.12l0.35,0.21l0.42,0.26l0.25,0.16l0.13,0.1l0.44,0.32q3.48,2.61 6.82,5.39q5.57,4.62 10.64,9.6l2.23,2.22l0.43,0.43c0.13,0.08 0.05,0.18 -0.04,0.18l0.05,0.03z" id="svg_37"/>
  <path class="cls-1" d="m1171.10588,23.4592l-3,-2.41l-2.63,-2.15c-7,-5.82 -13.62,-12 -20.41,-18.44c-0.61,-0.58 -1.14,-0.48 -1.09,-0.07l-0.1,-0.09l0.23,0.56c-0.72,-0.68 -1.4,-0.38 -0.94,1.18c1.45,4.85 3.25,9.64 5.2,14.4q1.46,3.44 2.92,6.87c0.17,-0.53 -0.38,1.44 -0.68,2.5l-1.07,3.69l-2.36,8.12l-0.56,2l-0.75,3c-0.6,2.48 -1,4.78 -1.48,7l-0.65,3.43c0,0.12 0,0.07 0.08,0l0.16,-0.15l0.32,-0.31l0.63,-0.6l1.27,-1.21c1.64,-1.53 3.42,-3.34 5.15,-5.09l6.44,-6.65l9.52,-10.03l2.35,-2.49l1.5,-1.57l0.75,-0.78c-0.12,-0.25 -0.6,-0.48 -0.8,-0.71z" id="svg_38"/>
  <path class="cls-1" d="m1209.98588,24.9692l-2.13,-2.24c-3.46,-3.46 -6.74,-6.42 -9.91,-9.25q-3.28,-2.94 -6.72,-5.71l-3.54,-2.78c-1.64,-1.25 -3.28,-2.44 -4.93,-3.62l-1.24,-0.89c-0.32,-0.17 -1.11,-1 -0.72,-0.15l0.84,2.93l1.65,5.68l2.48,8.44l2.5,8.44c0.27,0.85 0.39,1 0.08,1.62l-0.76,2l-1.61,4.07c-2.22,5.39 -4.58,10.77 -6.55,16.25a4.12,4.12 0 0 0 -0.2,0.74c-0.67,0.59 -0.55,1.14 0,1c0.18,0.62 0.78,0.59 1.44,-0.64a1.14,1.14 0 0 1 0.1,-0.19c6.58,-3.83 13.11,-9.8 19.53,-15.92l5.17,-4.89c1,-0.87 1.41,-1.34 3.21,-2.9l1.11,-1l0.54,-0.48c0.17,-0.07 0,-0.18 -0.09,-0.27l-0.25,-0.24zm-3,0.35l-0.23,0.21l-0.94,0.86l-5.23,4.82c-6,5.67 -12,11.47 -18.44,16.91c2,-3.76 3.85,-7.56 5.64,-11.52c1.1,-2.46 2.14,-5 3.08,-7.55l0.39,-1.11l0.34,-0.93a3.61,3.61 0 0 0 -0.22,-0.93l-0.65,-2.13l-1.19,-3.85l-2.58,-8.41l-1.25,-4.06l-0.31,-0.84l-0.09,-0.25c0,-0.09 -0.08,-0.2 0,-0.12l0.35,0.21l0.42,0.26l0.24,0.16l0.14,0.1l0.43,0.32q3.48,2.61 6.82,5.39q5.58,4.62 10.64,9.6l2.23,2.22l0.44,0.43c0.09,0.08 0.01,0.18 -0.08,0.18l0.05,0.03z" id="svg_39"/>
  <path class="cls-1" d="m1314.30588,24.4592l-3,-2.41l-2.62,-2.15c-7,-5.82 -13.62,-12 -20.42,-18.44c-0.61,-0.58 -1.13,-0.48 -1.09,-0.07l-0.09,-0.09c0.08,0.19 0.15,0.38 0.23,0.56c-0.72,-0.68 -1.4,-0.38 -0.94,1.18c1.45,4.85 3.24,9.64 5.2,14.4l2.91,6.87c0.18,-0.53 -0.37,1.44 -0.67,2.5l-1.07,3.69l-2.36,8.12l-0.56,2l-0.75,3c-0.6,2.48 -1,4.78 -1.48,7l-0.65,3.43c0,0.12 0,0.07 0.07,0l0.16,-0.15l0.32,-0.31l0.64,-0.6l1.27,-1.21c1.64,-1.53 3.42,-3.34 5.15,-5.09l6.44,-6.65l9.51,-10.06l2.34,-2.49l1.5,-1.57l0.76,-0.78c-0.13,-0.22 -0.57,-0.45 -0.8,-0.68z" id="svg_40"/>
  <path class="cls-1" d="m1282.17588,24.9692l-2.13,-2.24c-3.46,-3.46 -6.75,-6.42 -9.91,-9.25q-3.28,-2.94 -6.72,-5.71l-3.55,-2.78c-1.64,-1.25 -3.27,-2.44 -4.92,-3.62l-1.24,-0.89c-0.32,-0.17 -1.11,-1 -0.72,-0.15l0.83,2.93l1.66,5.68l2.48,8.44l2.5,8.44c0.27,0.85 0.38,1 0.08,1.62l-0.76,2l-1.61,4.07c-2.23,5.39 -4.58,10.77 -6.55,16.25a4.12,4.12 0 0 0 -0.2,0.74c-0.67,0.59 -0.56,1.14 0,1c0.19,0.62 0.79,0.59 1.45,-0.64l0.09,-0.19c6.58,-3.83 13.12,-9.8 19.54,-15.92l5.17,-4.89c1,-0.87 1.41,-1.34 3.21,-2.9l1.1,-1l0.55,-0.48c0.17,-0.07 0,-0.18 -0.09,-0.27l-0.26,-0.24zm-3.06,0.35l-0.22,0.21l-0.95,0.86l-5.23,4.82c-6,5.67 -12,11.47 -18.43,16.91c2,-3.76 3.85,-7.56 5.64,-11.52c1.1,-2.46 2.14,-5 3.07,-7.55l0.4,-1.11l0.34,-0.93a3.61,3.61 0 0 0 -0.22,-0.93l-0.65,-2.13l-1.19,-3.85l-2.58,-8.41l-1.25,-4.06l-0.31,-0.84l-0.09,-0.25c0,-0.09 -0.08,-0.2 0,-0.12l0.35,0.21l0.42,0.26l0.25,0.16l0.14,0.1l0.43,0.32q3.48,2.61 6.82,5.39q5.58,4.62 10.64,9.6l2.23,2.22l0.43,0.43c0.15,0.08 0.06,0.18 -0.04,0.18l0,0.03z" id="svg_41"/>
  <path class="cls-1" d="m1243.30588,23.4592l-3,-2.41l-2.62,-2.15c-7,-5.82 -13.62,-12 -20.42,-18.44c-0.61,-0.58 -1.13,-0.48 -1.09,-0.07l-0.09,-0.09c0.08,0.19 0.15,0.38 0.23,0.56c-0.72,-0.68 -1.4,-0.38 -0.94,1.18c1.45,4.85 3.24,9.64 5.2,14.4l2.91,6.87c0.18,-0.53 -0.37,1.44 -0.67,2.5l-1.07,3.69l-2.36,8.12l-0.56,2l-0.75,3c-0.6,2.48 -1,4.78 -1.48,7l-0.65,3.43c0,0.12 0,0.07 0.07,0l0.16,-0.15l0.32,-0.31l0.64,-0.6l1.27,-1.21c1.64,-1.53 3.42,-3.34 5.15,-5.09l6.44,-6.65l9.51,-10.06l2.34,-2.49l1.5,-1.57l0.76,-0.78c-0.13,-0.22 -0.57,-0.45 -0.8,-0.68z" id="svg_32"/>
 </g>
</svg>