<svg width="855.7" height="72.002" viewBox="0 0 855.7 72.002" xmlns="http://www.w3.org/2000/svg">
<g id="svgGroup" stroke-linecap="round" fill-rule="evenodd" font-size="9pt" stroke="#bee5d3" stroke-width="0.25mm" fill="#bee5d3" style="stroke:#bee5d3;stroke-width:0.25mm;fill:#bee5d3">
<path d="M 161.4 71.001 L 149.1 71.001 L 149 24.601 L 126 63.001 L 120.2 63.001 L 97.2 25.201 L 97.2 71.001 L 84.8 71.001 L 84.8 1.001 L 95.5 1.001 L 123.3 47.401 L 150.6 1.001 L 161.3 1.001 L 161.4 71.001 Z M 441.3 60.101 L 480.8 60.101 L 480.8 71.001 L 428.3 71.001 L 428.3 1.001 L 479.4 1.001 L 479.4 11.901 L 441.3 11.901 L 441.3 30.101 L 475.1 30.101 L 475.1 40.801 L 441.3 40.801 L 441.3 60.101 Z M 595.8 60.101 L 635.3 60.101 L 635.3 71.001 L 582.8 71.001 L 582.8 1.001 L 633.9 1.001 L 633.9 11.901 L 595.8 11.901 L 595.8 30.101 L 629.6 30.101 L 629.6 40.801 L 595.8 40.801 L 595.8 60.101 Z M 816.2 60.101 L 855.7 60.101 L 855.7 71.001 L 803.2 71.001 L 803.2 1.001 L 854.3 1.001 L 854.3 11.901 L 816.2 11.901 L 816.2 30.101 L 850 30.101 L 850 40.801 L 816.2 40.801 L 816.2 60.101 Z M 771.4 1.001 L 784.4 1.001 L 784.4 71.001 L 771.4 71.001 L 771.4 41.001 L 735.2 41.001 L 735.2 71.001 L 722.2 71.001 L 722.2 1.001 L 735.2 1.001 L 735.2 29.901 L 771.4 29.901 L 771.4 1.001 Z M 249.3 63.601 L 253.8 53.501 Q 258.1 56.901 264.35 59.051 Q 270.6 61.201 276.9 61.201 A 39.107 39.107 0 0 0 280.975 61.003 Q 285.262 60.552 287.926 59.075 A 10.444 10.444 0 0 0 288.55 58.701 A 9.657 9.657 0 0 0 290.702 56.84 A 7.131 7.131 0 0 0 292.4 52.101 Q 292.4 49.101 290.25 47.151 A 13.518 13.518 0 0 0 287.291 45.135 A 17.999 17.999 0 0 0 284.8 44.101 A 69.005 69.005 0 0 0 282.503 43.384 Q 279.904 42.618 276.315 41.728 A 238.241 238.241 0 0 0 275.8 41.601 Q 267.8 39.701 262.85 37.801 Q 257.9 35.901 254.35 31.851 Q 250.984 28.01 250.81 21.607 A 25.979 25.979 0 0 1 250.8 20.901 Q 250.8 15.101 253.95 10.351 A 18.973 18.973 0 0 1 258.977 5.286 A 26.367 26.367 0 0 1 263.45 2.801 Q 269.8 0.001 279 0.001 Q 285.4 0.001 291.6 1.601 A 39.591 39.591 0 0 1 297.542 3.623 A 30.633 30.633 0 0 1 302.3 6.201 L 298.2 16.301 Q 293.6 13.601 288.6 12.201 A 37.657 37.657 0 0 0 281.867 10.937 A 32.63 32.63 0 0 0 278.9 10.801 Q 271.75 10.801 268.006 13.042 A 9.91 9.91 0 0 0 267.45 13.401 Q 263.7 16.001 263.7 20.301 A 6.814 6.814 0 0 0 264.141 22.793 A 6.183 6.183 0 0 0 265.85 25.201 A 13.697 13.697 0 0 0 268.633 27.085 A 18.495 18.495 0 0 0 271.3 28.201 A 69.005 69.005 0 0 0 273.597 28.917 Q 276.196 29.684 279.785 30.573 A 238.241 238.241 0 0 0 280.3 30.701 Q 285.914 31.996 290.077 33.369 A 60.446 60.446 0 0 1 293.1 34.451 Q 298.1 36.401 301.65 40.401 A 13.512 13.512 0 0 1 304.614 46.138 Q 305.127 48.15 305.191 50.517 A 25.25 25.25 0 0 1 305.2 51.201 Q 305.2 57.001 302.05 61.701 Q 298.9 66.401 292.5 69.201 A 31.209 31.209 0 0 1 285.885 71.21 Q 282.812 71.803 279.294 71.951 A 56.902 56.902 0 0 1 276.9 72.001 Q 268.8 72.001 261.25 69.701 A 44.047 44.047 0 0 1 256.03 67.765 Q 252.05 65.976 249.3 63.601 Z M 709.7 11.701 L 701.3 19.601 A 25.141 25.141 0 0 0 691.643 12.97 A 25.552 25.552 0 0 0 682.6 11.401 Q 675.4 11.401 669.7 14.551 Q 664 17.701 660.8 23.301 A 24.44 24.44 0 0 0 657.695 33.604 A 29.901 29.901 0 0 0 657.6 36.001 A 26.964 26.964 0 0 0 658.67 43.709 A 23.51 23.51 0 0 0 660.8 48.701 Q 664 54.301 669.7 57.451 A 25.407 25.407 0 0 0 679.946 60.489 A 31.112 31.112 0 0 0 682.6 60.601 A 24.241 24.241 0 0 0 700.519 53.122 A 30.179 30.179 0 0 0 701.3 52.301 L 709.7 60.301 Q 704.8 66.001 697.65 69.001 A 38.848 38.848 0 0 1 685.722 71.847 A 46.664 46.664 0 0 1 681.9 72.001 Q 671.3 72.001 662.75 67.351 Q 654.2 62.701 649.35 54.501 Q 644.5 46.301 644.5 36.001 A 37.13 37.13 0 0 1 646.414 23.946 A 33.761 33.761 0 0 1 649.4 17.501 Q 654.3 9.301 662.85 4.651 A 38.606 38.606 0 0 1 679.059 0.092 A 46.46 46.46 0 0 1 682 0.001 A 42.911 42.911 0 0 1 691.684 1.058 A 36.586 36.586 0 0 1 697.7 3.001 Q 704.8 6.001 709.7 11.701 Z M 62.3 71.001 L 55.3 54.801 L 20.3 54.801 L 13.4 71.001 L 0 71.001 L 31.5 1.001 L 44.3 1.001 L 75.9 71.001 L 62.3 71.001 Z M 232.7 71.001 L 225.7 54.801 L 190.7 54.801 L 183.8 71.001 L 170.4 71.001 L 201.9 1.001 L 214.7 1.001 L 246.3 71.001 L 232.7 71.001 Z M 345.7 71.001 L 345.7 1.001 L 376.3 1.001 A 49.221 49.221 0 0 1 387.185 2.157 A 39.636 39.636 0 0 1 396.2 5.351 Q 404.9 9.701 409.7 17.651 A 33.409 33.409 0 0 1 414.27 31.568 A 41.864 41.864 0 0 1 414.5 36.001 A 38.238 38.238 0 0 1 413.145 46.359 A 32.193 32.193 0 0 1 409.7 54.351 Q 404.9 62.301 396.2 66.651 A 41.035 41.035 0 0 1 383.056 70.576 A 52.196 52.196 0 0 1 376.3 71.001 L 345.7 71.001 Z M 522.9 71.001 L 522.9 1.001 L 535.9 1.001 L 535.9 60.001 L 572.5 60.001 L 572.5 71.001 L 522.9 71.001 Z M 358.7 60.001 L 375.7 60.001 A 34.139 34.139 0 0 0 382.725 59.308 A 26.53 26.53 0 0 0 389.25 57.051 Q 395.1 54.101 398.25 48.651 A 23.393 23.393 0 0 0 401.151 39.912 A 29.859 29.859 0 0 0 401.4 36.001 Q 401.4 28.801 398.25 23.351 Q 395.1 17.901 389.25 14.951 A 27.208 27.208 0 0 0 380.995 12.382 A 35.522 35.522 0 0 0 375.7 12.001 L 358.7 12.001 L 358.7 60.001 Z M 24.7 44.601 L 51 44.601 L 37.8 14.001 L 24.7 44.601 Z M 195.1 44.601 L 221.4 44.601 L 208.2 14.001 L 195.1 44.601 Z" vector-effect="non-scaling-stroke"/>
</g>
</svg>