<svg width="1153.501" height="90.401" viewBox="0 0 1153.501 90.401" xmlns="http://www.w3.org/2000/svg">
<g id="svgGroup" stroke-linecap="round" fill-rule="evenodd" font-size="9pt" stroke="#bee5d3" stroke-width="0.25mm" fill="#bee5d3" style="stroke:#bee5d3;stroke-width:0.25mm;fill:#bee5d3">
<path d="M 596.301 19.4 L 609.201 19.4 L 609.201 89.4 L 598.501 89.4 L 559.901 42 L 559.901 89.4 L 547.001 89.4 L 547.001 19.4 L 557.701 19.4 L 596.301 66.8 L 596.301 19.4 Z M 233.301 78.5 L 272.801 78.5 L 272.801 89.4 L 220.301 89.4 L 220.301 19.4 L 271.401 19.4 L 271.401 30.3 L 233.301 30.3 L 233.301 48.5 L 267.101 48.5 L 267.101 59.2 L 233.301 59.2 L 233.301 78.5 Z M 1049.101 78.5 L 1088.601 78.5 L 1088.601 89.4 L 1036.101 89.4 L 1036.101 19.4 L 1087.201 19.4 L 1087.201 30.3 L 1049.101 30.3 L 1049.101 48.5 L 1082.901 48.5 L 1082.901 59.2 L 1049.101 59.2 L 1049.101 78.5 Z M 810.401 58.9 L 810.401 19.4 L 823.401 19.4 L 823.401 58.4 A 34.675 34.675 0 0 0 824.193 66.174 Q 827.156 79 841.201 79 A 21.586 21.586 0 0 0 848.71 77.801 Q 858.901 74.031 858.901 58.4 L 858.901 19.4 L 871.701 19.4 L 871.701 58.9 Q 871.701 74.1 863.651 82.25 Q 855.813 90.185 841.861 90.394 A 50.698 50.698 0 0 1 841.101 90.4 A 41.469 41.469 0 0 1 831.889 89.437 Q 823.817 87.598 818.501 82.25 Q 810.401 74.1 810.401 58.9 Z M 65.201 30.1 L 56.801 38 A 25.141 25.141 0 0 0 47.144 31.37 A 25.552 25.552 0 0 0 38.101 29.8 Q 30.901 29.8 25.201 32.95 Q 19.501 36.1 16.301 41.7 A 24.44 24.44 0 0 0 13.196 52.004 A 29.901 29.901 0 0 0 13.101 54.4 A 26.964 26.964 0 0 0 14.171 62.108 A 23.51 23.51 0 0 0 16.301 67.1 Q 19.501 72.7 25.201 75.85 A 25.407 25.407 0 0 0 35.447 78.889 A 31.112 31.112 0 0 0 38.101 79 A 24.241 24.241 0 0 0 56.02 71.522 A 30.179 30.179 0 0 0 56.801 70.7 L 65.201 78.7 Q 60.301 84.4 53.151 87.4 A 38.848 38.848 0 0 1 41.224 90.246 A 46.664 46.664 0 0 1 37.401 90.4 Q 26.801 90.4 18.251 85.75 Q 9.701 81.1 4.851 72.9 Q 0.001 64.7 0.001 54.4 A 37.13 37.13 0 0 1 1.915 42.345 A 33.761 33.761 0 0 1 4.901 35.9 Q 9.801 27.7 18.351 23.05 A 38.606 38.606 0 0 1 34.56 18.492 A 46.46 46.46 0 0 1 37.501 18.4 A 42.911 42.911 0 0 1 47.185 19.458 A 36.586 36.586 0 0 1 53.201 21.4 Q 60.301 24.4 65.201 30.1 Z M 347.201 30.1 L 338.801 38 A 25.141 25.141 0 0 0 329.144 31.37 A 25.552 25.552 0 0 0 320.101 29.8 Q 312.901 29.8 307.201 32.95 Q 301.501 36.1 298.301 41.7 A 24.44 24.44 0 0 0 295.196 52.004 A 29.901 29.901 0 0 0 295.101 54.4 A 26.964 26.964 0 0 0 296.171 62.108 A 23.51 23.51 0 0 0 298.301 67.1 Q 301.501 72.7 307.201 75.85 A 25.407 25.407 0 0 0 317.447 78.889 A 31.112 31.112 0 0 0 320.101 79 A 24.241 24.241 0 0 0 338.02 71.522 A 30.179 30.179 0 0 0 338.801 70.7 L 347.201 78.7 Q 342.301 84.4 335.151 87.4 A 38.848 38.848 0 0 1 323.224 90.246 A 46.664 46.664 0 0 1 319.401 90.4 Q 308.801 90.4 300.251 85.75 Q 291.701 81.1 286.851 72.9 Q 282.001 64.7 282.001 54.4 A 37.13 37.13 0 0 1 283.915 42.345 A 33.761 33.761 0 0 1 286.901 35.9 Q 291.801 27.7 300.351 23.05 A 38.606 38.606 0 0 1 316.56 18.492 A 46.46 46.46 0 0 1 319.501 18.4 A 42.911 42.911 0 0 1 329.185 19.458 A 36.586 36.586 0 0 1 335.201 21.4 Q 342.301 24.4 347.201 30.1 Z M 418.401 30.1 L 410.001 38 A 25.141 25.141 0 0 0 400.344 31.37 A 25.552 25.552 0 0 0 391.301 29.8 Q 384.101 29.8 378.401 32.95 Q 372.701 36.1 369.501 41.7 A 24.44 24.44 0 0 0 366.396 52.004 A 29.901 29.901 0 0 0 366.301 54.4 A 26.964 26.964 0 0 0 367.371 62.108 A 23.51 23.51 0 0 0 369.501 67.1 Q 372.701 72.7 378.401 75.85 A 25.407 25.407 0 0 0 388.647 78.889 A 31.112 31.112 0 0 0 391.301 79 A 24.241 24.241 0 0 0 409.22 71.522 A 30.179 30.179 0 0 0 410.001 70.7 L 418.401 78.7 Q 413.501 84.4 406.351 87.4 A 38.848 38.848 0 0 1 394.424 90.246 A 46.664 46.664 0 0 1 390.601 90.4 Q 380.001 90.4 371.451 85.75 Q 362.901 81.1 358.051 72.9 Q 353.201 64.7 353.201 54.4 A 37.13 37.13 0 0 1 355.115 42.345 A 33.761 33.761 0 0 1 358.101 35.9 Q 363.001 27.7 371.551 23.05 A 38.606 38.606 0 0 1 387.76 18.492 A 46.46 46.46 0 0 1 390.701 18.4 A 42.911 42.911 0 0 1 400.385 19.458 A 36.586 36.586 0 0 1 406.401 21.4 Q 413.501 24.4 418.401 30.1 Z M 715.801 30.1 L 707.401 38 A 25.141 25.141 0 0 0 697.744 31.37 A 25.552 25.552 0 0 0 688.701 29.8 Q 681.501 29.8 675.801 32.95 Q 670.101 36.1 666.901 41.7 A 24.44 24.44 0 0 0 663.796 52.004 A 29.901 29.901 0 0 0 663.701 54.4 A 26.964 26.964 0 0 0 664.771 62.108 A 23.51 23.51 0 0 0 666.901 67.1 Q 670.101 72.7 675.801 75.85 A 25.407 25.407 0 0 0 686.047 78.889 A 31.112 31.112 0 0 0 688.701 79 A 24.241 24.241 0 0 0 706.62 71.522 A 30.179 30.179 0 0 0 707.401 70.7 L 715.801 78.7 Q 710.901 84.4 703.751 87.4 A 38.848 38.848 0 0 1 691.824 90.246 A 46.664 46.664 0 0 1 688.001 90.4 Q 677.401 90.4 668.851 85.75 Q 660.301 81.1 655.451 72.9 Q 650.601 64.7 650.601 54.4 A 37.13 37.13 0 0 1 652.515 42.345 A 33.761 33.761 0 0 1 655.501 35.9 Q 660.401 27.7 668.951 23.05 A 38.606 38.606 0 0 1 685.16 18.492 A 46.46 46.46 0 0 1 688.101 18.4 A 42.911 42.911 0 0 1 697.785 19.458 A 36.586 36.586 0 0 1 703.801 21.4 Q 710.901 24.4 715.801 30.1 Z M 949.701 89.4 L 935.701 89.4 L 921.401 68.9 Q 920.712 68.977 919.495 68.995 A 54.016 54.016 0 0 1 918.701 69 L 902.901 69 L 902.901 89.4 L 889.901 89.4 L 889.901 19.4 L 918.701 19.4 A 46.554 46.554 0 0 1 926.465 20.016 A 33.652 33.652 0 0 1 934.551 22.4 A 25.222 25.222 0 0 1 940.814 26.304 A 21.533 21.533 0 0 1 944.901 31 A 22.513 22.513 0 0 1 948.2 40.024 A 29.442 29.442 0 0 1 948.501 44.3 A 27.166 27.166 0 0 1 947.655 51.223 A 21.673 21.673 0 0 1 944.651 57.9 A 21.974 21.974 0 0 1 936.49 65.09 A 28.105 28.105 0 0 1 933.601 66.4 L 949.701 89.4 Z M 1022.801 89.4 L 1008.801 89.4 L 994.501 68.9 Q 993.812 68.977 992.595 68.995 A 54.016 54.016 0 0 1 991.801 69 L 976.001 69 L 976.001 89.4 L 963.001 89.4 L 963.001 19.4 L 991.801 19.4 A 46.554 46.554 0 0 1 999.565 20.016 A 33.652 33.652 0 0 1 1007.651 22.4 A 25.222 25.222 0 0 1 1013.914 26.304 A 21.533 21.533 0 0 1 1018.001 31 A 22.513 22.513 0 0 1 1021.3 40.024 A 29.442 29.442 0 0 1 1021.601 44.3 A 27.166 27.166 0 0 1 1020.755 51.223 A 21.673 21.673 0 0 1 1017.751 57.9 A 21.974 21.974 0 0 1 1009.59 65.09 A 28.105 28.105 0 0 1 1006.701 66.4 L 1022.801 89.4 Z M 1117.301 89.4 L 1117.301 30.4 L 1094.101 30.4 L 1094.101 19.4 L 1153.501 19.4 L 1153.501 30.4 L 1130.301 30.4 L 1130.301 89.4 L 1117.301 89.4 Z M 160.401 89.4 L 160.401 19.4 L 173.401 19.4 L 173.401 78.4 L 210.001 78.4 L 210.001 89.4 L 160.401 89.4 Z M 96.64 88.673 A 42.359 42.359 0 0 0 108.901 90.4 A 47.102 47.102 0 0 0 112.204 90.286 A 38.963 38.963 0 0 0 128.201 85.75 Q 136.801 81.1 141.701 72.9 A 33.761 33.761 0 0 0 144.687 66.455 A 37.13 37.13 0 0 0 146.601 54.4 A 42.061 42.061 0 0 0 146.554 52.408 A 34.879 34.879 0 0 0 141.701 35.9 Q 136.801 27.7 128.201 23.05 A 37.426 37.426 0 0 0 121.162 20.127 A 42.359 42.359 0 0 0 108.901 18.4 A 47.102 47.102 0 0 0 105.598 18.514 A 38.963 38.963 0 0 0 89.601 23.05 Q 81.001 27.7 76.101 35.95 A 34.407 34.407 0 0 0 73.597 41.089 A 36.5 36.5 0 0 0 71.201 54.4 Q 71.201 64.6 76.101 72.85 Q 81.001 81.1 89.601 85.75 A 37.426 37.426 0 0 0 96.64 88.673 Z M 483.24 88.673 A 42.359 42.359 0 0 0 495.501 90.4 A 47.102 47.102 0 0 0 498.804 90.286 A 38.963 38.963 0 0 0 514.801 85.75 Q 523.401 81.1 528.301 72.9 A 33.761 33.761 0 0 0 531.287 66.455 A 37.13 37.13 0 0 0 533.201 54.4 A 42.061 42.061 0 0 0 533.154 52.408 A 34.879 34.879 0 0 0 528.301 35.9 Q 523.401 27.7 514.801 23.05 A 37.426 37.426 0 0 0 507.762 20.127 A 42.359 42.359 0 0 0 495.501 18.4 A 47.102 47.102 0 0 0 492.198 18.514 A 38.963 38.963 0 0 0 476.201 23.05 Q 467.601 27.7 462.701 35.95 A 34.407 34.407 0 0 0 460.197 41.089 A 36.5 36.5 0 0 0 457.801 54.4 Q 457.801 64.6 462.701 72.85 Q 467.601 81.1 476.201 85.75 A 37.426 37.426 0 0 0 483.24 88.673 Z M 747.24 88.673 A 42.359 42.359 0 0 0 759.501 90.4 A 47.102 47.102 0 0 0 762.804 90.286 A 38.963 38.963 0 0 0 778.801 85.75 Q 787.401 81.1 792.301 72.9 A 33.761 33.761 0 0 0 795.287 66.455 A 37.13 37.13 0 0 0 797.201 54.4 A 42.061 42.061 0 0 0 797.154 52.408 A 34.879 34.879 0 0 0 792.301 35.9 Q 787.401 27.7 778.801 23.05 A 37.426 37.426 0 0 0 771.762 20.127 A 42.359 42.359 0 0 0 759.501 18.4 A 47.102 47.102 0 0 0 756.198 18.514 A 38.963 38.963 0 0 0 740.201 23.05 Q 731.601 27.7 726.701 35.95 A 34.407 34.407 0 0 0 724.197 41.089 A 36.5 36.5 0 0 0 721.801 54.4 Q 721.801 64.6 726.701 72.85 Q 731.601 81.1 740.201 85.75 A 37.426 37.426 0 0 0 747.24 88.673 Z M 430.901 89.4 L 430.901 19.4 L 443.901 19.4 L 443.901 89.4 L 430.901 89.4 Z M 108.901 79 Q 115.901 79 121.501 75.85 Q 127.101 72.7 130.301 67.05 A 24.862 24.862 0 0 0 133.468 55.808 A 29.762 29.762 0 0 0 133.501 54.4 A 26.35 26.35 0 0 0 132.156 45.89 A 24.025 24.025 0 0 0 130.301 41.75 Q 127.101 36.1 121.501 32.95 A 24.722 24.722 0 0 0 110.842 29.862 A 29.87 29.87 0 0 0 108.901 29.8 Q 101.901 29.8 96.301 32.95 Q 90.701 36.1 87.501 41.75 A 24.862 24.862 0 0 0 84.334 52.992 A 29.762 29.762 0 0 0 84.301 54.4 A 26.35 26.35 0 0 0 85.647 62.91 A 24.025 24.025 0 0 0 87.501 67.05 Q 90.701 72.7 96.301 75.85 A 24.722 24.722 0 0 0 106.96 78.938 A 29.87 29.87 0 0 0 108.901 79 Z M 495.501 79 Q 502.501 79 508.101 75.85 Q 513.701 72.7 516.901 67.05 A 24.862 24.862 0 0 0 520.068 55.808 A 29.762 29.762 0 0 0 520.101 54.4 A 26.35 26.35 0 0 0 518.756 45.89 A 24.025 24.025 0 0 0 516.901 41.75 Q 513.701 36.1 508.101 32.95 A 24.722 24.722 0 0 0 497.442 29.862 A 29.87 29.87 0 0 0 495.501 29.8 Q 488.501 29.8 482.901 32.95 Q 477.301 36.1 474.101 41.75 A 24.862 24.862 0 0 0 470.934 52.992 A 29.762 29.762 0 0 0 470.901 54.4 A 26.35 26.35 0 0 0 472.247 62.91 A 24.025 24.025 0 0 0 474.101 67.05 Q 477.301 72.7 482.901 75.85 A 24.722 24.722 0 0 0 493.56 78.938 A 29.87 29.87 0 0 0 495.501 79 Z M 759.501 79 Q 766.501 79 772.101 75.85 Q 777.701 72.7 780.901 67.05 A 24.862 24.862 0 0 0 784.068 55.808 A 29.762 29.762 0 0 0 784.101 54.4 A 26.35 26.35 0 0 0 782.756 45.89 A 24.025 24.025 0 0 0 780.901 41.75 Q 777.701 36.1 772.101 32.95 A 24.722 24.722 0 0 0 761.442 29.862 A 29.87 29.87 0 0 0 759.501 29.8 Q 752.501 29.8 746.901 32.95 Q 741.301 36.1 738.101 41.75 A 24.862 24.862 0 0 0 734.934 52.992 A 29.762 29.762 0 0 0 734.901 54.4 A 26.35 26.35 0 0 0 736.247 62.91 A 24.025 24.025 0 0 0 738.101 67.05 Q 741.301 72.7 746.901 75.85 A 24.722 24.722 0 0 0 757.56 78.938 A 29.87 29.87 0 0 0 759.501 79 Z M 918.101 30.4 L 902.901 30.4 L 902.901 58.3 L 918.101 58.3 A 31.635 31.635 0 0 0 922.957 57.952 Q 925.458 57.563 927.469 56.737 A 13.541 13.541 0 0 0 931.001 54.65 A 11.882 11.882 0 0 0 935.175 47.179 A 17.588 17.588 0 0 0 935.401 44.3 A 16.324 16.324 0 0 0 934.881 40.06 A 11.469 11.469 0 0 0 931.001 34 A 14.175 14.175 0 0 0 926.415 31.555 Q 924.364 30.878 921.863 30.598 A 33.845 33.845 0 0 0 918.101 30.4 Z M 991.201 30.4 L 976.001 30.4 L 976.001 58.3 L 991.201 58.3 A 31.635 31.635 0 0 0 996.057 57.952 Q 998.558 57.563 1000.569 56.737 A 13.541 13.541 0 0 0 1004.101 54.65 A 11.882 11.882 0 0 0 1008.275 47.179 A 17.588 17.588 0 0 0 1008.501 44.3 A 16.324 16.324 0 0 0 1007.981 40.06 A 11.469 11.469 0 0 0 1004.101 34 A 14.175 14.175 0 0 0 999.515 31.555 Q 997.464 30.878 994.963 30.598 A 33.845 33.845 0 0 0 991.201 30.4 Z M 487.101 13.7 L 500.601 0 L 515.301 0 L 497.901 13.7 L 487.101 13.7 Z" vector-effect="non-scaling-stroke"/>
</g>
</svg>