<svg width="303.6" height="70.001" viewBox="0 0 303.6 70.001" xmlns="http://www.w3.org/2000/svg">
<g id="svgGroup" stroke-linecap="round" fill-rule="evenodd" font-size="9pt" stroke="#bee5d3" stroke-width="0.25mm" fill="#bee5d3" style="stroke:#bee5d3;stroke-width:0.25mm;fill:#bee5d3">
<path d="M 95.6 59.101 L 135.1 59.101 L 135.1 70.001 L 82.6 70.001 L 82.6 0.001 L 133.7 0.001 L 133.7 10.901 L 95.6 10.901 L 95.6 29.101 L 129.4 29.101 L 129.4 39.801 L 95.6 39.801 L 95.6 59.101 Z M 290 70.001 L 283 53.801 L 248 53.801 L 241.1 70.001 L 227.7 70.001 L 259.2 0.001 L 272 0.001 L 303.6 70.001 L 290 70.001 Z M 0 70.001 L 0 0.001 L 30.6 0.001 A 49.221 49.221 0 0 1 41.485 1.157 A 39.636 39.636 0 0 1 50.5 4.351 Q 59.2 8.701 64 16.651 A 33.409 33.409 0 0 1 68.57 30.568 A 41.864 41.864 0 0 1 68.8 35.001 A 38.238 38.238 0 0 1 67.445 45.359 A 32.193 32.193 0 0 1 64 53.351 Q 59.2 61.301 50.5 65.651 A 41.035 41.035 0 0 1 37.356 69.576 A 52.196 52.196 0 0 1 30.6 70.001 L 0 70.001 Z M 177.2 70.001 L 177.2 0.001 L 190.2 0.001 L 190.2 59.001 L 226.8 59.001 L 226.8 70.001 L 177.2 70.001 Z M 13 59.001 L 30 59.001 A 34.139 34.139 0 0 0 37.025 58.309 A 26.53 26.53 0 0 0 43.55 56.051 Q 49.4 53.101 52.55 47.651 A 23.393 23.393 0 0 0 55.451 38.912 A 29.859 29.859 0 0 0 55.7 35.001 Q 55.7 27.801 52.55 22.351 Q 49.4 16.901 43.55 13.951 A 27.208 27.208 0 0 0 35.295 11.382 A 35.522 35.522 0 0 0 30 11.001 L 13 11.001 L 13 59.001 Z M 252.4 43.601 L 278.7 43.601 L 265.5 13.001 L 252.4 43.601 Z" vector-effect="non-scaling-stroke"/>
</g>
</svg>