<svg width="1191.78" height="53.701" viewBox="0 0 1191.78 53.701" xmlns="http://www.w3.org/2000/svg"><g id="svgGroup" stroke-linecap="round" fill-rule="evenodd" font-size="9pt" stroke="#bee5d3" stroke-width="0.25mm" fill="#bee5d3" style="stroke:#bee5d3;stroke-width:0.25mm;fill:#bee5d3"><path d="M 515.88 48 L 540.36 48 L 540.36 53.22 L 509.88 53.22 L 509.88 11.22 L 539.52 11.22 L 539.52 16.44 L 515.88 16.44 L 515.88 29.34 L 536.94 29.34 L 536.94 34.44 L 515.88 34.44 L 515.88 48 Z M 607.86 48 L 632.34 48 L 632.34 53.22 L 601.86 53.22 L 601.86 11.22 L 631.5 11.22 L 631.5 16.44 L 607.86 16.44 L 607.86 29.34 L 628.92 29.34 L 628.92 34.44 L 607.86 34.44 L 607.86 48 Z M 1128.9 48 L 1153.38 48 L 1153.38 53.22 L 1122.9 53.22 L 1122.9 11.22 L 1152.54 11.22 L 1152.54 16.44 L 1128.9 16.44 L 1128.9 29.34 L 1149.96 29.34 L 1149.96 34.44 L 1128.9 34.44 L 1128.9 48 Z M 201.54 45.66 L 201.54 31.98 L 207.3 31.98 L 207.3 48.36 A 22.017 22.017 0 0 1 201.059 51.956 A 25.436 25.436 0 0 1 200.04 52.32 Q 195.9 53.7 191.4 53.7 A 24.915 24.915 0 0 1 184.117 52.664 A 22.031 22.031 0 0 1 179.94 50.91 Q 174.84 48.12 171.93 43.23 A 20.843 20.843 0 0 1 169.046 33.357 A 25.043 25.043 0 0 1 169.02 32.22 A 22.101 22.101 0 0 1 170.303 24.621 A 20.461 20.461 0 0 1 171.93 21.18 Q 174.84 16.26 179.97 13.5 A 23.268 23.268 0 0 1 189.158 10.837 A 28.292 28.292 0 0 1 191.52 10.74 A 26.668 26.668 0 0 1 196.896 11.262 A 21.986 21.986 0 0 1 200.67 12.39 Q 204.78 14.04 207.66 17.22 L 203.94 20.94 Q 198.9 16.08 191.76 16.08 Q 186.96 16.08 183.15 18.15 Q 179.34 20.22 177.18 23.91 A 15.891 15.891 0 0 0 175.046 31.221 A 19.14 19.14 0 0 0 175.02 32.22 A 16.558 16.558 0 0 0 176.041 38.079 A 15.482 15.482 0 0 0 177.18 40.47 Q 179.34 44.16 183.15 46.26 A 17.051 17.051 0 0 0 190.385 48.318 A 20.559 20.559 0 0 0 191.7 48.36 Q 197.34 48.36 201.54 45.66 Z M 403.08 48.42 L 405.3 43.74 A 15.865 15.865 0 0 0 408.231 45.806 Q 409.692 46.617 411.45 47.25 Q 415.2 48.6 419.16 48.6 Q 424.38 48.6 426.96 46.83 A 6.406 6.406 0 0 0 428.529 45.342 A 5.311 5.311 0 0 0 429.54 42.12 A 5.389 5.389 0 0 0 429.298 40.47 A 4.394 4.394 0 0 0 428.13 38.61 A 8.999 8.999 0 0 0 425.673 36.953 A 11.03 11.03 0 0 0 424.65 36.54 A 32.2 32.2 0 0 0 423.508 36.169 Q 422.22 35.774 420.478 35.332 A 116.564 116.564 0 0 0 418.8 34.92 Q 415.615 34.154 413.257 33.388 A 37.844 37.844 0 0 1 411.15 32.64 Q 408.24 31.5 406.17 29.13 A 8.033 8.033 0 0 1 404.455 25.786 Q 404.144 24.577 404.106 23.152 A 15.126 15.126 0 0 1 404.1 22.74 Q 404.1 19.38 405.87 16.68 A 10.773 10.773 0 0 1 408.662 13.822 A 15.045 15.045 0 0 1 411.24 12.36 Q 414.286 10.989 418.578 10.778 A 32.652 32.652 0 0 1 420.18 10.74 Q 423.9 10.74 427.5 11.7 Q 431.1 12.66 433.68 14.46 L 431.7 19.26 Q 429.06 17.58 426.06 16.71 Q 423.06 15.84 420.18 15.84 A 22.566 22.566 0 0 0 417.513 15.987 Q 414.501 16.347 412.694 17.584 A 6.728 6.728 0 0 0 412.53 17.7 Q 409.98 19.56 409.98 22.5 A 5.268 5.268 0 0 0 410.236 24.178 A 4.383 4.383 0 0 0 411.42 26.01 A 9.368 9.368 0 0 0 413.726 27.583 A 11.726 11.726 0 0 0 414.99 28.11 A 32.209 32.209 0 0 0 416.471 28.588 Q 418.145 29.087 420.449 29.623 A 107.785 107.785 0 0 0 420.78 29.7 Q 423.891 30.448 426.2 31.196 A 36.901 36.901 0 0 1 428.4 31.98 Q 431.28 33.12 433.35 35.46 A 7.93 7.93 0 0 1 435.091 38.862 Q 435.42 40.182 435.42 41.76 Q 435.42 45.06 433.62 47.79 A 10.718 10.718 0 0 1 430.736 50.694 A 14.962 14.962 0 0 1 428.16 52.11 A 17.84 17.84 0 0 1 424.429 53.238 Q 422.636 53.584 420.569 53.671 A 33.657 33.657 0 0 1 419.16 53.7 Q 414.42 53.7 410.01 52.23 A 25.271 25.271 0 0 1 406.968 51.005 Q 405.396 50.242 404.165 49.322 A 13.234 13.234 0 0 1 403.08 48.42 Z M 638.22 48.42 L 640.44 43.74 A 15.865 15.865 0 0 0 643.371 45.806 Q 644.832 46.617 646.59 47.25 Q 650.34 48.6 654.3 48.6 Q 659.52 48.6 662.1 46.83 A 6.406 6.406 0 0 0 663.669 45.342 A 5.311 5.311 0 0 0 664.68 42.12 A 5.389 5.389 0 0 0 664.438 40.47 A 4.394 4.394 0 0 0 663.27 38.61 A 8.999 8.999 0 0 0 660.813 36.953 A 11.03 11.03 0 0 0 659.79 36.54 A 32.2 32.2 0 0 0 658.648 36.169 Q 657.36 35.774 655.618 35.332 A 116.564 116.564 0 0 0 653.94 34.92 Q 650.755 34.154 648.397 33.388 A 37.844 37.844 0 0 1 646.29 32.64 Q 643.38 31.5 641.31 29.13 A 8.033 8.033 0 0 1 639.595 25.786 Q 639.284 24.577 639.246 23.152 A 15.126 15.126 0 0 1 639.24 22.74 Q 639.24 19.38 641.01 16.68 A 10.773 10.773 0 0 1 643.802 13.822 A 15.045 15.045 0 0 1 646.38 12.36 Q 649.426 10.989 653.718 10.778 A 32.652 32.652 0 0 1 655.32 10.74 Q 659.04 10.74 662.64 11.7 Q 666.24 12.66 668.82 14.46 L 666.84 19.26 Q 664.2 17.58 661.2 16.71 Q 658.2 15.84 655.32 15.84 A 22.566 22.566 0 0 0 652.653 15.987 Q 649.641 16.347 647.834 17.584 A 6.728 6.728 0 0 0 647.67 17.7 Q 645.12 19.56 645.12 22.5 A 5.268 5.268 0 0 0 645.376 24.178 A 4.383 4.383 0 0 0 646.56 26.01 A 9.368 9.368 0 0 0 648.866 27.583 A 11.726 11.726 0 0 0 650.13 28.11 A 32.209 32.209 0 0 0 651.611 28.588 Q 653.285 29.087 655.589 29.623 A 107.785 107.785 0 0 0 655.92 29.7 Q 659.031 30.448 661.34 31.196 A 36.901 36.901 0 0 1 663.54 31.98 Q 666.42 33.12 668.49 35.46 A 7.93 7.93 0 0 1 670.231 38.862 Q 670.56 40.182 670.56 41.76 Q 670.56 45.06 668.76 47.79 A 10.718 10.718 0 0 1 665.876 50.694 A 14.962 14.962 0 0 1 663.3 52.11 A 17.84 17.84 0 0 1 659.569 53.238 Q 657.776 53.584 655.709 53.671 A 33.657 33.657 0 0 1 654.3 53.7 Q 649.56 53.7 645.15 52.23 A 25.271 25.271 0 0 1 642.108 51.005 Q 640.536 50.242 639.305 49.322 A 13.234 13.234 0 0 1 638.22 48.42 Z M 712.8 35.1 L 712.8 11.22 L 718.8 11.22 L 718.8 34.86 A 22.437 22.437 0 0 0 719.326 39.955 Q 720.953 46.908 727.617 48.109 A 16.939 16.939 0 0 0 730.62 48.36 A 15.95 15.95 0 0 0 734.109 48.001 Q 736.463 47.474 738.187 46.17 A 9.403 9.403 0 0 0 739.44 45.03 A 10.297 10.297 0 0 0 741.532 41.444 Q 742.076 39.905 742.315 38.014 A 25.274 25.274 0 0 0 742.5 34.86 L 742.5 11.22 L 748.32 11.22 L 748.32 35.1 A 28.048 28.048 0 0 1 747.84 40.464 Q 746.821 45.688 743.64 48.93 A 15.344 15.344 0 0 1 736.172 53.07 Q 733.612 53.7 730.56 53.7 A 23.626 23.626 0 0 1 725.225 53.133 Q 721.245 52.211 718.427 49.79 A 14.723 14.723 0 0 1 717.48 48.9 A 15.493 15.493 0 0 1 713.761 42.394 Q 712.8 39.178 712.8 35.1 Z M 987.84 35.1 L 987.84 11.22 L 993.84 11.22 L 993.84 34.86 A 22.437 22.437 0 0 0 994.366 39.955 Q 995.993 46.908 1002.657 48.109 A 16.939 16.939 0 0 0 1005.66 48.36 A 15.95 15.95 0 0 0 1009.149 48.001 Q 1011.503 47.474 1013.227 46.17 A 9.403 9.403 0 0 0 1014.48 45.03 A 10.297 10.297 0 0 0 1016.572 41.444 Q 1017.116 39.905 1017.355 38.014 A 25.274 25.274 0 0 0 1017.54 34.86 L 1017.54 11.22 L 1023.36 11.22 L 1023.36 35.1 A 28.048 28.048 0 0 1 1022.88 40.464 Q 1021.861 45.688 1018.68 48.93 A 15.344 15.344 0 0 1 1011.212 53.07 Q 1008.652 53.7 1005.6 53.7 A 23.626 23.626 0 0 1 1000.265 53.133 Q 996.285 52.211 993.467 49.79 A 14.723 14.723 0 0 1 992.52 48.9 A 15.493 15.493 0 0 1 988.801 42.394 Q 987.84 39.178 987.84 35.1 Z M 930.12 17.28 L 926.22 21.06 A 15.579 15.579 0 0 0 914.895 16.086 A 19.787 19.787 0 0 0 914.4 16.08 A 17.953 17.953 0 0 0 908.773 16.942 A 16.236 16.236 0 0 0 905.94 18.18 Q 902.16 20.28 900.03 23.97 A 16.037 16.037 0 0 0 897.913 31.513 A 19.102 19.102 0 0 0 897.9 32.22 A 16.806 16.806 0 0 0 898.862 37.955 A 15.573 15.573 0 0 0 900.03 40.47 Q 902.16 44.16 905.94 46.26 A 16.822 16.822 0 0 0 913.244 48.327 A 20.144 20.144 0 0 0 914.4 48.36 A 16.026 16.026 0 0 0 921.864 46.63 A 16.402 16.402 0 0 0 926.22 43.32 L 930.12 47.1 Q 927.24 50.34 923.13 52.02 A 22.797 22.797 0 0 1 916.288 53.614 A 27.307 27.307 0 0 1 914.1 53.7 A 24.468 24.468 0 0 1 906.727 52.617 A 21.856 21.856 0 0 1 902.73 50.91 Q 897.66 48.12 894.78 43.23 A 20.982 20.982 0 0 1 891.93 33.45 A 25.247 25.247 0 0 1 891.9 32.22 A 22.314 22.314 0 0 1 893.053 24.967 A 20.305 20.305 0 0 1 894.78 21.21 Q 897.66 16.32 902.76 13.53 A 22.944 22.944 0 0 1 912.604 10.784 A 27.484 27.484 0 0 1 914.16 10.74 A 25.502 25.502 0 0 1 919.844 11.353 A 21.699 21.699 0 0 1 923.16 12.39 Q 927.24 14.04 930.12 17.28 Z M 29.64 16.44 L 6 16.44 L 6 31.08 L 27.06 31.08 L 27.06 36.24 L 6 36.24 L 6 53.22 L 0 53.22 L 0 11.22 L 29.64 11.22 L 29.64 16.44 Z M 335.94 16.44 L 312.3 16.44 L 312.3 31.08 L 333.36 31.08 L 333.36 36.24 L 312.3 36.24 L 312.3 53.22 L 306.3 53.22 L 306.3 11.22 L 335.94 11.22 L 335.94 16.44 Z M 253.38 53.22 L 246.84 53.22 L 237.78 40.32 Q 236.395 40.419 235.5 40.436 A 18.587 18.587 0 0 1 235.14 40.44 L 224.76 40.44 L 224.76 53.22 L 218.76 53.22 L 218.76 11.22 L 235.14 11.22 A 27.556 27.556 0 0 1 240.312 11.676 Q 244.9 12.553 247.98 15.12 A 12.753 12.753 0 0 1 252.557 23.894 A 18.225 18.225 0 0 1 252.66 25.86 A 16.389 16.389 0 0 1 252.171 29.952 A 12.751 12.751 0 0 1 250.26 34.14 A 12.975 12.975 0 0 1 245.265 38.348 A 16.705 16.705 0 0 1 243.42 39.12 L 253.38 53.22 Z M 1070.28 53.22 L 1063.74 53.22 L 1054.68 40.32 Q 1053.295 40.419 1052.4 40.436 A 18.587 18.587 0 0 1 1052.04 40.44 L 1041.66 40.44 L 1041.66 53.22 L 1035.66 53.22 L 1035.66 11.22 L 1052.04 11.22 A 27.556 27.556 0 0 1 1057.212 11.676 Q 1061.8 12.553 1064.88 15.12 A 12.753 12.753 0 0 1 1069.457 23.894 A 18.225 18.225 0 0 1 1069.56 25.86 A 16.389 16.389 0 0 1 1069.071 29.952 A 12.751 12.751 0 0 1 1067.16 34.14 A 12.975 12.975 0 0 1 1062.165 38.348 A 16.705 16.705 0 0 1 1060.32 39.12 L 1070.28 53.22 Z M 1113.9 53.22 L 1107.36 53.22 L 1098.3 40.32 Q 1096.915 40.419 1096.02 40.436 A 18.587 18.587 0 0 1 1095.66 40.44 L 1085.28 40.44 L 1085.28 53.22 L 1079.28 53.22 L 1079.28 11.22 L 1095.66 11.22 A 27.556 27.556 0 0 1 1100.832 11.676 Q 1105.42 12.553 1108.5 15.12 A 12.753 12.753 0 0 1 1113.077 23.894 A 18.225 18.225 0 0 1 1113.18 25.86 A 16.389 16.389 0 0 1 1112.691 29.952 A 12.751 12.751 0 0 1 1110.78 34.14 A 12.975 12.975 0 0 1 1105.785 38.348 A 16.705 16.705 0 0 1 1103.94 39.12 L 1113.9 53.22 Z M 293.76 53.22 L 289.14 42.72 L 266.82 42.72 L 262.2 53.22 L 256.02 53.22 L 275.04 11.22 L 280.98 11.22 L 300.06 53.22 L 293.76 53.22 Z M 394.38 53.22 L 389.76 42.72 L 367.44 42.72 L 362.82 53.22 L 356.64 53.22 L 375.66 11.22 L 381.6 11.22 L 400.68 53.22 L 394.38 53.22 Z M 95.76 53.22 L 95.76 16.44 L 81.36 16.44 L 81.36 11.22 L 116.1 11.22 L 116.1 16.44 L 101.7 16.44 L 101.7 53.22 L 95.76 53.22 Z M 687.06 53.22 L 687.06 16.44 L 672.66 16.44 L 672.66 11.22 L 707.4 11.22 L 707.4 16.44 L 693 16.44 L 693 53.22 L 687.06 53.22 Z M 1171.44 53.22 L 1171.44 16.44 L 1157.04 16.44 L 1157.04 11.22 L 1191.78 11.22 L 1191.78 16.44 L 1177.38 16.44 L 1177.38 53.22 L 1171.44 53.22 Z M 460.32 53.22 L 460.32 11.22 L 478.02 11.22 A 28.655 28.655 0 0 1 484.489 11.922 A 23.145 23.145 0 0 1 489.84 13.86 Q 495 16.5 497.85 21.27 A 20.193 20.193 0 0 1 500.582 29.768 A 25.08 25.08 0 0 1 500.7 32.22 A 22.794 22.794 0 0 1 499.848 38.558 A 19.455 19.455 0 0 1 497.85 43.17 Q 495 47.94 489.84 50.58 A 23.936 23.936 0 0 1 482.036 52.962 A 30.391 30.391 0 0 1 478.02 53.22 L 460.32 53.22 Z M 760.62 53.22 L 760.62 11.22 L 778.32 11.22 A 28.655 28.655 0 0 1 784.789 11.922 A 23.145 23.145 0 0 1 790.14 13.86 Q 795.3 16.5 798.15 21.27 A 20.193 20.193 0 0 1 800.882 29.768 A 25.08 25.08 0 0 1 801 32.22 A 22.794 22.794 0 0 1 800.148 38.558 A 19.455 19.455 0 0 1 798.15 43.17 Q 795.3 47.94 790.14 50.58 A 23.936 23.936 0 0 1 782.336 52.962 A 30.391 30.391 0 0 1 778.32 53.22 L 760.62 53.22 Z M 550.08 53.22 L 550.08 11.22 L 556.08 11.22 L 556.08 48 L 578.82 48 L 578.82 53.22 L 550.08 53.22 Z M 49.297 52.664 A 24.915 24.915 0 0 0 56.58 53.7 A 27.484 27.484 0 0 0 58.136 53.656 A 22.944 22.944 0 0 0 67.98 50.91 Q 73.08 48.12 75.96 43.23 Q 78.84 38.34 78.84 32.22 A 25.247 25.247 0 0 0 78.81 30.99 A 20.982 20.982 0 0 0 75.96 21.21 Q 73.08 16.32 67.98 13.53 A 22.105 22.105 0 0 0 64.159 11.885 A 24.507 24.507 0 0 0 56.58 10.74 A 27.728 27.728 0 0 0 54.623 10.808 A 22.922 22.922 0 0 0 45.12 13.53 Q 40.02 16.32 37.11 21.24 A 20.622 20.622 0 0 0 35.703 24.098 A 21.71 21.71 0 0 0 34.2 32.22 A 24.995 24.995 0 0 0 34.204 32.645 A 21.07 21.07 0 0 0 37.11 43.2 Q 40.02 48.12 45.12 50.91 A 22.031 22.031 0 0 0 49.297 52.664 Z M 133.717 52.664 A 24.915 24.915 0 0 0 141 53.7 A 27.484 27.484 0 0 0 142.556 53.656 A 22.944 22.944 0 0 0 152.4 50.91 Q 157.5 48.12 160.38 43.23 Q 163.26 38.34 163.26 32.22 A 25.247 25.247 0 0 0 163.23 30.99 A 20.982 20.982 0 0 0 160.38 21.21 Q 157.5 16.32 152.4 13.53 A 22.105 22.105 0 0 0 148.579 11.885 A 24.507 24.507 0 0 0 141 10.74 A 27.728 27.728 0 0 0 139.043 10.808 A 22.922 22.922 0 0 0 129.54 13.53 Q 124.44 16.32 121.53 21.24 A 20.622 20.622 0 0 0 120.123 24.098 A 21.71 21.71 0 0 0 118.62 32.22 A 24.995 24.995 0 0 0 118.624 32.645 A 21.07 21.07 0 0 0 121.53 43.2 Q 124.44 48.12 129.54 50.91 A 22.031 22.031 0 0 0 133.717 52.664 Z M 840.457 52.664 A 24.915 24.915 0 0 0 847.74 53.7 A 27.484 27.484 0 0 0 849.296 53.656 A 22.944 22.944 0 0 0 859.14 50.91 Q 864.24 48.12 867.12 43.23 Q 870 38.34 870 32.22 A 25.247 25.247 0 0 0 869.97 30.99 A 20.982 20.982 0 0 0 867.12 21.21 Q 864.24 16.32 859.14 13.53 A 22.105 22.105 0 0 0 855.319 11.885 A 24.507 24.507 0 0 0 847.74 10.74 A 27.728 27.728 0 0 0 845.783 10.808 A 22.922 22.922 0 0 0 836.28 13.53 Q 831.18 16.32 828.27 21.24 A 20.622 20.622 0 0 0 826.863 24.098 A 21.71 21.71 0 0 0 825.36 32.22 A 24.995 24.995 0 0 0 825.364 32.645 A 21.07 21.07 0 0 0 828.27 43.2 Q 831.18 48.12 836.28 50.91 A 22.031 22.031 0 0 0 840.457 52.664 Z M 949.477 52.664 A 24.915 24.915 0 0 0 956.76 53.7 A 27.484 27.484 0 0 0 958.316 53.656 A 22.944 22.944 0 0 0 968.16 50.91 Q 973.26 48.12 976.14 43.23 Q 979.02 38.34 979.02 32.22 A 25.247 25.247 0 0 0 978.99 30.99 A 20.982 20.982 0 0 0 976.14 21.21 Q 973.26 16.32 968.16 13.53 A 22.105 22.105 0 0 0 964.339 11.885 A 24.507 24.507 0 0 0 956.76 10.74 A 27.728 27.728 0 0 0 954.803 10.808 A 22.922 22.922 0 0 0 945.3 13.53 Q 940.2 16.32 937.29 21.24 A 20.622 20.622 0 0 0 935.883 24.098 A 21.71 21.71 0 0 0 934.38 32.22 A 24.995 24.995 0 0 0 934.384 32.645 A 21.07 21.07 0 0 0 937.29 43.2 Q 940.2 48.12 945.3 50.91 A 22.031 22.031 0 0 0 949.477 52.664 Z M 466.32 48 L 477.66 48 A 22.308 22.308 0 0 0 482.312 47.535 A 17.378 17.378 0 0 0 486.63 46.02 Q 490.5 44.04 492.6 40.47 A 15.202 15.202 0 0 0 494.569 34.491 A 19.168 19.168 0 0 0 494.7 32.22 A 17.72 17.72 0 0 0 494.142 27.689 A 14.673 14.673 0 0 0 492.6 23.97 Q 490.5 20.4 486.63 18.42 A 17.843 17.843 0 0 0 481.094 16.685 A 23.27 23.27 0 0 0 477.66 16.44 L 466.32 16.44 L 466.32 48 Z M 766.62 48 L 777.96 48 A 22.308 22.308 0 0 0 782.612 47.535 A 17.378 17.378 0 0 0 786.93 46.02 Q 790.8 44.04 792.9 40.47 A 15.202 15.202 0 0 0 794.869 34.491 A 19.168 19.168 0 0 0 795 32.22 A 17.72 17.72 0 0 0 794.442 27.689 A 14.673 14.673 0 0 0 792.9 23.97 Q 790.8 20.4 786.93 18.42 A 17.843 17.843 0 0 0 781.394 16.685 A 23.27 23.27 0 0 0 777.96 16.44 L 766.62 16.44 L 766.62 48 Z M 56.58 48.36 A 17.459 17.459 0 0 0 61.865 47.58 A 15.584 15.584 0 0 0 64.89 46.26 Q 68.58 44.16 70.71 40.47 A 16.037 16.037 0 0 0 72.827 32.927 A 19.102 19.102 0 0 0 72.84 32.22 A 16.806 16.806 0 0 0 71.878 26.485 A 15.573 15.573 0 0 0 70.71 23.97 Q 68.58 20.28 64.89 18.18 A 16.176 16.176 0 0 0 57.791 16.117 A 19.555 19.555 0 0 0 56.58 16.08 A 17.541 17.541 0 0 0 50.891 16.984 A 16.08 16.08 0 0 0 48.21 18.18 Q 44.46 20.28 42.33 23.97 A 16.037 16.037 0 0 0 40.213 31.513 A 19.102 19.102 0 0 0 40.2 32.22 A 16.806 16.806 0 0 0 41.162 37.955 A 15.573 15.573 0 0 0 42.33 40.47 Q 44.46 44.16 48.21 46.26 A 16.623 16.623 0 0 0 55.721 48.342 A 19.81 19.81 0 0 0 56.58 48.36 Z M 141 48.36 A 17.459 17.459 0 0 0 146.285 47.58 A 15.584 15.584 0 0 0 149.31 46.26 Q 153 44.16 155.13 40.47 A 16.037 16.037 0 0 0 157.247 32.927 A 19.102 19.102 0 0 0 157.26 32.22 A 16.806 16.806 0 0 0 156.298 26.485 A 15.573 15.573 0 0 0 155.13 23.97 Q 153 20.28 149.31 18.18 A 16.176 16.176 0 0 0 142.211 16.117 A 19.555 19.555 0 0 0 141 16.08 A 17.541 17.541 0 0 0 135.311 16.984 A 16.08 16.08 0 0 0 132.63 18.18 Q 128.88 20.28 126.75 23.97 A 16.037 16.037 0 0 0 124.633 31.513 A 19.102 19.102 0 0 0 124.62 32.22 A 16.806 16.806 0 0 0 125.582 37.955 A 15.573 15.573 0 0 0 126.75 40.47 Q 128.88 44.16 132.63 46.26 A 16.623 16.623 0 0 0 140.141 48.342 A 19.81 19.81 0 0 0 141 48.36 Z M 847.74 48.36 A 17.459 17.459 0 0 0 853.025 47.58 A 15.584 15.584 0 0 0 856.05 46.26 Q 859.74 44.16 861.87 40.47 A 16.037 16.037 0 0 0 863.987 32.927 A 19.102 19.102 0 0 0 864 32.22 A 16.806 16.806 0 0 0 863.038 26.485 A 15.573 15.573 0 0 0 861.87 23.97 Q 859.74 20.28 856.05 18.18 A 16.176 16.176 0 0 0 848.951 16.117 A 19.555 19.555 0 0 0 847.74 16.08 A 17.541 17.541 0 0 0 842.051 16.984 A 16.08 16.08 0 0 0 839.37 18.18 Q 835.62 20.28 833.49 23.97 A 16.037 16.037 0 0 0 831.373 31.513 A 19.102 19.102 0 0 0 831.36 32.22 A 16.806 16.806 0 0 0 832.322 37.955 A 15.573 15.573 0 0 0 833.49 40.47 Q 835.62 44.16 839.37 46.26 A 16.623 16.623 0 0 0 846.881 48.342 A 19.81 19.81 0 0 0 847.74 48.36 Z M 956.76 48.36 A 17.459 17.459 0 0 0 962.045 47.58 A 15.584 15.584 0 0 0 965.07 46.26 Q 968.76 44.16 970.89 40.47 A 16.037 16.037 0 0 0 973.007 32.927 A 19.102 19.102 0 0 0 973.02 32.22 A 16.806 16.806 0 0 0 972.058 26.485 A 15.573 15.573 0 0 0 970.89 23.97 Q 968.76 20.28 965.07 18.18 A 16.176 16.176 0 0 0 957.971 16.117 A 19.555 19.555 0 0 0 956.76 16.08 A 17.541 17.541 0 0 0 951.071 16.984 A 16.08 16.08 0 0 0 948.39 18.18 Q 944.64 20.28 942.51 23.97 A 16.037 16.037 0 0 0 940.393 31.513 A 19.102 19.102 0 0 0 940.38 32.22 A 16.806 16.806 0 0 0 941.342 37.955 A 15.573 15.573 0 0 0 942.51 40.47 Q 944.64 44.16 948.39 46.26 A 16.623 16.623 0 0 0 955.901 48.342 A 19.81 19.81 0 0 0 956.76 48.36 Z M 344.4 53.22 L 344.4 11.22 L 350.4 11.22 L 350.4 53.22 L 344.4 53.22 Z M 810.18 53.22 L 810.18 11.22 L 816.18 11.22 L 816.18 53.22 L 810.18 53.22 Z M 234.96 16.44 L 224.76 16.44 L 224.76 35.34 L 234.96 35.34 A 21.143 21.143 0 0 0 238.259 35.1 Q 241.598 34.571 243.66 32.88 A 7.99 7.99 0 0 0 246.495 27.882 A 11.868 11.868 0 0 0 246.66 25.86 A 11.064 11.064 0 0 0 246.306 22.977 A 7.735 7.735 0 0 0 243.66 18.87 A 9.746 9.746 0 0 0 240.518 17.209 Q 239.122 16.752 237.424 16.567 A 22.72 22.72 0 0 0 234.96 16.44 Z M 1051.86 16.44 L 1041.66 16.44 L 1041.66 35.34 L 1051.86 35.34 A 21.143 21.143 0 0 0 1055.159 35.1 Q 1058.498 34.571 1060.56 32.88 A 7.99 7.99 0 0 0 1063.395 27.882 A 11.868 11.868 0 0 0 1063.56 25.86 A 11.064 11.064 0 0 0 1063.206 22.977 A 7.735 7.735 0 0 0 1060.56 18.87 A 9.746 9.746 0 0 0 1057.418 17.209 Q 1056.022 16.752 1054.324 16.567 A 22.72 22.72 0 0 0 1051.86 16.44 Z M 1095.48 16.44 L 1085.28 16.44 L 1085.28 35.34 L 1095.48 35.34 A 21.143 21.143 0 0 0 1098.779 35.1 Q 1102.118 34.571 1104.18 32.88 A 7.99 7.99 0 0 0 1107.015 27.882 A 11.868 11.868 0 0 0 1107.18 25.86 A 11.064 11.064 0 0 0 1106.826 22.977 A 7.735 7.735 0 0 0 1104.18 18.87 A 9.746 9.746 0 0 0 1101.038 17.209 Q 1099.642 16.752 1097.944 16.567 A 22.72 22.72 0 0 0 1095.48 16.44 Z M 268.92 37.92 L 287.04 37.92 L 277.98 17.34 L 268.92 37.92 Z M 369.54 37.92 L 387.66 37.92 L 378.6 17.34 L 369.54 37.92 Z M 342.9 7.8 L 351.06 0 L 358.38 0 L 348.3 7.8 L 342.9 7.8 Z" vector-effect="non-scaling-stroke"/></g></svg>