<svg width="504" height="72.401" viewBox="0 0 504 72.401" xmlns="http://www.w3.org/2000/svg">
<g id="svgGroup" stroke-linecap="round" fill-rule="evenodd" font-size="9pt" stroke="#F1E9E5" stroke-width="0.25mm" fill="#F1E9E5" style="stroke:#F1E9E5;stroke-width:0.25mm;fill:#F1E9E5">
<path d="M 138.6 71.201 L 112.9 3.701 L 122.2 0.101 L 144.2 60.801 L 166.3 0.401 L 174.9 3.701 L 149.3 71.201 L 138.6 71.201 Z M 294.9 68.201 L 286 72.401 L 277.3 53.401 A 30.586 30.586 0 0 0 274.709 48.827 Q 272.203 45.222 269 43.301 Q 264.645 40.687 258.164 40.35 A 37.847 37.847 0 0 0 256.2 40.301 L 254.7 40.301 L 254.7 71.201 L 245.2 71.201 L 245.2 1.401 Q 250.6 0.901 255.35 0.651 Q 260.1 0.401 265.7 0.401 A 51.439 51.439 0 0 1 270.994 0.659 Q 273.599 0.929 275.87 1.481 A 29.796 29.796 0 0 1 276.9 1.751 A 27.344 27.344 0 0 1 280.985 3.239 A 19.912 19.912 0 0 1 284.9 5.601 Q 288.1 8.101 289.75 11.501 Q 291.4 14.901 291.4 19.001 A 19.88 19.88 0 0 1 290.749 24.22 A 14.672 14.672 0 0 1 287.05 30.751 Q 282.7 35.201 274.5 37.401 Q 276.5 38.301 278.2 39.451 Q 279.9 40.601 281.4 42.251 Q 282.9 43.901 284.35 46.201 A 35.914 35.914 0 0 1 285.445 48.066 Q 286.363 49.738 287.3 51.801 L 294.9 68.201 Z M 8.1 72.001 L 0 68.701 L 27.4 1.201 L 37.8 1.201 L 64.8 68.701 L 56.1 72.201 L 48.3 52.201 L 15.9 52.201 L 8.1 72.001 Z M 178.5 72.001 L 170.4 68.701 L 197.8 1.201 L 208.2 1.201 L 235.2 68.701 L 226.5 72.201 L 218.7 52.201 L 186.3 52.201 L 178.5 72.001 Z M 307 72.001 L 298.9 68.701 L 326.3 1.201 L 336.7 1.201 L 363.7 68.701 L 355 72.201 L 347.2 52.201 L 314.8 52.201 L 307 72.001 Z M 116.4 62.701 L 116.4 71.201 L 74.8 71.201 L 74.8 1.201 L 84.3 1.201 L 84.3 62.701 L 116.4 62.701 Z M 373.7 71.001 L 373.7 1.401 Q 378.4 0.901 382.9 0.651 A 151.31 151.31 0 0 1 387.086 0.48 Q 389.938 0.401 393.2 0.401 A 48.65 48.65 0 0 1 400.349 0.899 Q 404.942 1.582 408.7 3.201 A 31.116 31.116 0 0 1 416.441 7.911 A 27.99 27.99 0 0 1 419.5 10.901 Q 423.8 15.801 425.85 22.301 A 45.124 45.124 0 0 1 427.88 34.682 A 51.177 51.177 0 0 1 427.9 36.101 A 45.458 45.458 0 0 1 426.19 48.664 A 42.542 42.542 0 0 1 425.8 49.951 Q 423.7 56.501 419.35 61.401 Q 415 66.301 408.25 69.151 Q 401.975 71.8 393.409 71.986 A 60.192 60.192 0 0 1 392.1 72.001 Q 387.736 72.001 384.222 71.854 A 121.597 121.597 0 0 1 382.15 71.751 Q 377.9 71.501 373.7 71.001 Z M 438.869 26.468 A 46.437 46.437 0 0 0 437.9 36.101 A 48.913 48.913 0 0 0 437.935 37.961 A 42.769 42.769 0 0 0 440.15 50.201 A 39.376 39.376 0 0 0 440.589 51.424 A 34.353 34.353 0 0 0 446.65 61.751 Q 450.9 66.701 457 69.551 A 29.142 29.142 0 0 0 463.308 71.643 A 36.51 36.51 0 0 0 470.9 72.401 A 38.35 38.35 0 0 0 476.062 72.064 A 30.074 30.074 0 0 0 484.8 69.551 Q 490.9 66.701 495.2 61.751 Q 499.5 56.801 501.75 50.201 Q 504 43.601 504 36.101 Q 504 28.601 501.7 22.051 A 39.664 39.664 0 0 0 501.252 20.837 A 34.562 34.562 0 0 0 495.15 10.601 Q 490.9 5.701 484.75 2.851 A 29.531 29.531 0 0 0 478.965 0.877 A 35.739 35.739 0 0 0 470.9 0.001 A 39.631 39.631 0 0 0 465.626 0.34 A 30.859 30.859 0 0 0 457 2.751 Q 450.9 5.501 446.65 10.351 A 31.476 31.476 0 0 0 444.418 13.217 A 34.76 34.76 0 0 0 440.15 21.801 A 40.316 40.316 0 0 0 438.869 26.468 Z M 447.6 36.101 Q 447.6 41.501 449.15 46.601 A 28.9 28.9 0 0 0 452.127 53.312 A 26.021 26.021 0 0 0 453.7 55.601 Q 456.7 59.501 461.05 61.851 A 19.631 19.631 0 0 0 468.549 64.088 A 24.113 24.113 0 0 0 470.9 64.201 A 26.486 26.486 0 0 0 476.019 63.728 A 20.027 20.027 0 0 0 481.05 62.051 Q 485.4 59.901 488.35 56.151 A 24.679 24.679 0 0 0 491.842 50.037 A 30.056 30.056 0 0 0 492.8 47.251 A 37.865 37.865 0 0 0 494.181 39.408 A 45.286 45.286 0 0 0 494.3 36.101 Q 494.3 30.701 492.7 25.701 A 29.351 29.351 0 0 0 489.047 18.11 A 27.264 27.264 0 0 0 488.1 16.801 Q 485.1 12.901 480.75 10.551 A 19.631 19.631 0 0 0 473.251 8.313 A 24.113 24.113 0 0 0 470.9 8.201 Q 465.4 8.201 461.05 10.351 Q 456.7 12.501 453.7 16.251 A 25.203 25.203 0 0 0 449.956 22.784 A 30.211 30.211 0 0 0 449.15 25.101 Q 447.6 30.201 447.6 36.101 Z M 383.2 9.101 L 383.2 63.201 Q 385.3 63.501 387.6 63.601 A 107.265 107.265 0 0 0 391.163 63.694 A 121.297 121.297 0 0 0 392.4 63.701 A 36.818 36.818 0 0 0 397.918 63.308 Q 401.244 62.804 404 61.651 A 22.642 22.642 0 0 0 409.322 58.558 A 19.769 19.769 0 0 0 412.05 55.951 A 22.682 22.682 0 0 0 416.136 48.945 A 26.898 26.898 0 0 0 416.7 47.251 A 35.959 35.959 0 0 0 417.989 40.528 A 45.132 45.132 0 0 0 418.2 36.101 A 35.493 35.493 0 0 0 416.7 25.751 Q 415.2 20.801 412.1 16.951 A 21.631 21.631 0 0 0 405.085 11.286 A 25.328 25.328 0 0 0 404.2 10.851 A 23.096 23.096 0 0 0 398.262 9.031 A 31.81 31.81 0 0 0 392.9 8.601 Q 390 8.601 387.6 8.751 Q 385.2 8.901 383.2 9.101 Z M 32.1 10.601 L 18.9 44.201 L 45.2 44.201 L 32.1 10.601 Z M 202.5 10.601 L 189.3 44.201 L 215.6 44.201 L 202.5 10.601 Z M 331 10.601 L 317.8 44.201 L 344.1 44.201 L 331 10.601 Z M 254.7 8.801 L 254.7 32.301 L 265.7 32.301 A 26.489 26.489 0 0 0 270.623 31.869 Q 274.552 31.126 277.4 29.101 Q 281.9 25.901 281.9 19.901 A 9.811 9.811 0 0 0 278.627 12.436 A 13.272 13.272 0 0 0 277.7 11.651 A 13.923 13.923 0 0 0 273.336 9.429 Q 271.407 8.818 269.077 8.57 A 31.944 31.944 0 0 0 265.7 8.401 Q 262.526 8.401 259.962 8.488 A 118.974 118.974 0 0 0 259.6 8.501 Q 256.9 8.601 254.7 8.801 Z" vector-effect="non-scaling-stroke"/>
</g>
</svg>