<svg width="574.681" height="35.8" viewBox="0 0 574.681 35.8" xmlns="http://www.w3.org/2000/svg">
<g id="svgGroup" stroke-linecap="round" fill-rule="evenodd" font-size="9pt" stroke="#F1E9E5" stroke-width="0.25mm" fill="#F1E9E5" style="stroke:#F1E9E5;stroke-width:0.25mm;fill:#F1E9E5">
<path d="M 113.96 7.48 L 117.96 7.48 L 117.96 35.48 L 114.68 35.48 L 97.88 14.6 L 97.88 35.48 L 93.88 35.48 L 93.88 7.48 L 97.16 7.48 L 113.96 28.36 L 113.96 7.48 Z M 514 7.48 L 518 7.48 L 518 35.48 L 514.72 35.48 L 497.92 14.6 L 497.92 35.48 L 493.92 35.48 L 493.92 7.48 L 497.2 7.48 L 514 28.36 L 514 7.48 Z M 381.72 32 L 398.04 32 L 398.04 35.48 L 377.72 35.48 L 377.72 7.48 L 397.48 7.48 L 397.48 10.96 L 381.72 10.96 L 381.72 19.56 L 395.76 19.56 L 395.76 22.96 L 381.72 22.96 L 381.72 32 Z M 193.72 32.28 L 195.2 29.16 A 10.576 10.576 0 0 0 197.154 30.538 Q 198.098 31.061 199.227 31.474 A 17.297 17.297 0 0 0 199.3 31.5 Q 201.8 32.4 204.44 32.4 Q 207.72 32.4 209.436 31.352 A 4.571 4.571 0 0 0 209.64 31.22 A 4.271 4.271 0 0 0 210.686 30.228 A 3.541 3.541 0 0 0 211.36 28.08 A 3.592 3.592 0 0 0 211.199 26.98 A 2.929 2.929 0 0 0 210.42 25.74 Q 209.48 24.84 208.1 24.36 A 21.466 21.466 0 0 0 207.339 24.113 Q 206.481 23.85 205.319 23.555 A 77.708 77.708 0 0 0 204.2 23.28 Q 201.04 22.52 199.1 21.76 Q 197.16 21 195.78 19.42 A 5.355 5.355 0 0 1 194.637 17.191 Q 194.4 16.27 194.4 15.16 Q 194.4 12.92 195.58 11.12 Q 196.76 9.32 199.16 8.24 Q 201.56 7.16 205.12 7.16 Q 207.6 7.16 210 7.8 Q 212.4 8.44 214.12 9.64 L 212.8 12.84 Q 211.04 11.72 209.04 11.14 A 14.469 14.469 0 0 0 206.085 10.596 A 12.943 12.943 0 0 0 205.12 10.56 A 15.044 15.044 0 0 0 203.342 10.658 Q 201.335 10.898 200.13 11.723 A 4.485 4.485 0 0 0 200.02 11.8 A 4.469 4.469 0 0 0 198.984 12.831 A 3.675 3.675 0 0 0 198.32 15 A 3.512 3.512 0 0 0 198.491 16.119 A 2.922 2.922 0 0 0 199.28 17.34 A 6.245 6.245 0 0 0 200.818 18.388 A 7.817 7.817 0 0 0 201.66 18.74 Q 203.016 19.217 205.3 19.749 A 71.877 71.877 0 0 0 205.52 19.8 A 60.877 60.877 0 0 1 207.374 20.275 Q 208.327 20.536 209.134 20.798 A 24.601 24.601 0 0 1 210.6 21.32 Q 212.52 22.08 213.9 23.64 Q 215.229 25.142 215.279 27.644 A 9.872 9.872 0 0 1 215.28 27.84 Q 215.28 30.04 214.08 31.86 A 7.145 7.145 0 0 1 212.157 33.796 A 9.975 9.975 0 0 1 210.44 34.74 A 11.894 11.894 0 0 1 207.953 35.492 Q 206.758 35.723 205.38 35.781 A 22.438 22.438 0 0 1 204.44 35.8 Q 201.28 35.8 198.34 34.82 A 16.847 16.847 0 0 1 196.313 34.003 Q 194.77 33.255 193.72 32.28 Z M 553.12 32.28 L 554.6 29.16 A 10.576 10.576 0 0 0 556.554 30.538 Q 557.498 31.061 558.627 31.474 A 17.297 17.297 0 0 0 558.7 31.5 Q 561.2 32.4 563.84 32.4 Q 567.12 32.4 568.836 31.352 A 4.571 4.571 0 0 0 569.04 31.22 A 4.271 4.271 0 0 0 570.086 30.228 A 3.541 3.541 0 0 0 570.76 28.08 A 3.592 3.592 0 0 0 570.599 26.98 A 2.929 2.929 0 0 0 569.82 25.74 Q 568.88 24.84 567.5 24.36 A 21.466 21.466 0 0 0 566.739 24.113 Q 565.881 23.85 564.719 23.555 A 77.708 77.708 0 0 0 563.6 23.28 Q 560.44 22.52 558.5 21.76 Q 556.56 21 555.18 19.42 A 5.355 5.355 0 0 1 554.037 17.191 Q 553.8 16.27 553.8 15.16 Q 553.8 12.92 554.98 11.12 Q 556.16 9.32 558.56 8.24 Q 560.96 7.16 564.52 7.16 Q 567 7.16 569.4 7.8 Q 571.8 8.44 573.52 9.64 L 572.2 12.84 Q 570.44 11.72 568.44 11.14 A 14.469 14.469 0 0 0 565.485 10.596 A 12.943 12.943 0 0 0 564.52 10.56 A 15.044 15.044 0 0 0 562.742 10.658 Q 560.735 10.898 559.53 11.723 A 4.485 4.485 0 0 0 559.42 11.8 A 4.469 4.469 0 0 0 558.384 12.831 A 3.675 3.675 0 0 0 557.72 15 A 3.512 3.512 0 0 0 557.891 16.119 A 2.922 2.922 0 0 0 558.68 17.34 A 6.245 6.245 0 0 0 560.218 18.388 A 7.817 7.817 0 0 0 561.06 18.74 Q 562.416 19.217 564.7 19.749 A 71.877 71.877 0 0 0 564.92 19.8 A 60.877 60.877 0 0 1 566.774 20.275 Q 567.727 20.536 568.534 20.798 A 24.601 24.601 0 0 1 570 21.32 Q 571.92 22.08 573.3 23.64 Q 574.629 25.142 574.679 27.644 A 9.872 9.872 0 0 1 574.68 27.84 Q 574.68 30.04 573.48 31.86 A 7.145 7.145 0 0 1 571.557 33.796 A 9.975 9.975 0 0 1 569.84 34.74 A 11.894 11.894 0 0 1 567.353 35.492 Q 566.158 35.723 564.78 35.781 A 22.438 22.438 0 0 1 563.84 35.8 Q 560.68 35.8 557.74 34.82 A 16.847 16.847 0 0 1 555.713 34.003 Q 554.17 33.255 553.12 32.28 Z M 433.36 23.4 L 433.36 7.48 L 437.36 7.48 L 437.36 23.24 A 14.958 14.958 0 0 0 437.711 26.636 Q 438.796 31.272 443.238 32.073 A 11.292 11.292 0 0 0 445.24 32.24 Q 449.08 32.24 451.12 30.02 Q 452.658 28.346 453.037 25.343 A 16.849 16.849 0 0 0 453.16 23.24 L 453.16 7.48 L 457.04 7.48 L 457.04 23.4 A 18.699 18.699 0 0 1 456.72 26.976 Q 456.041 30.459 453.92 32.62 A 10.229 10.229 0 0 1 448.942 35.38 Q 447.235 35.8 445.2 35.8 Q 440.146 35.8 437.112 33.193 A 9.815 9.815 0 0 1 436.48 32.6 A 10.329 10.329 0 0 1 434.001 28.263 Q 433.521 26.655 433.4 24.723 A 21.326 21.326 0 0 1 433.36 23.4 Z M 25.48 11.52 L 22.88 14.04 A 10.386 10.386 0 0 0 15.33 10.724 A 13.191 13.191 0 0 0 15 10.72 A 11.969 11.969 0 0 0 11.249 11.295 A 10.824 10.824 0 0 0 9.36 12.12 Q 6.84 13.52 5.42 15.98 A 10.691 10.691 0 0 0 4.009 21.009 A 12.735 12.735 0 0 0 4 21.48 A 11.204 11.204 0 0 0 4.641 25.303 A 10.382 10.382 0 0 0 5.42 26.98 Q 6.84 29.44 9.36 30.84 Q 11.88 32.24 15 32.24 A 10.684 10.684 0 0 0 19.977 31.086 A 10.935 10.935 0 0 0 22.88 28.88 L 25.48 31.4 Q 23.56 33.56 20.82 34.68 Q 18.08 35.8 14.8 35.8 A 16.312 16.312 0 0 1 9.885 35.078 A 14.571 14.571 0 0 1 7.22 33.94 Q 3.84 32.08 1.92 28.82 A 13.988 13.988 0 0 1 0.02 22.3 A 16.831 16.831 0 0 1 0 21.48 A 14.876 14.876 0 0 1 0.769 16.645 A 13.537 13.537 0 0 1 1.92 14.14 Q 3.84 10.88 7.24 9.02 A 15.296 15.296 0 0 1 13.803 7.189 A 18.323 18.323 0 0 1 14.84 7.16 A 17.001 17.001 0 0 1 18.63 7.568 A 14.466 14.466 0 0 1 20.84 8.26 Q 23.56 9.36 25.48 11.52 Z M 161.96 11.52 L 159.36 14.04 A 10.386 10.386 0 0 0 151.81 10.724 A 13.191 13.191 0 0 0 151.48 10.72 A 11.969 11.969 0 0 0 147.729 11.295 A 10.824 10.824 0 0 0 145.84 12.12 Q 143.32 13.52 141.9 15.98 A 10.691 10.691 0 0 0 140.489 21.009 A 12.735 12.735 0 0 0 140.48 21.48 A 11.204 11.204 0 0 0 141.121 25.303 A 10.382 10.382 0 0 0 141.9 26.98 Q 143.32 29.44 145.84 30.84 Q 148.36 32.24 151.48 32.24 A 10.684 10.684 0 0 0 156.457 31.086 A 10.935 10.935 0 0 0 159.36 28.88 L 161.96 31.4 Q 160.04 33.56 157.3 34.68 Q 154.56 35.8 151.28 35.8 A 16.312 16.312 0 0 1 146.365 35.078 A 14.571 14.571 0 0 1 143.7 33.94 Q 140.32 32.08 138.4 28.82 A 13.988 13.988 0 0 1 136.5 22.3 A 16.831 16.831 0 0 1 136.48 21.48 A 14.876 14.876 0 0 1 137.249 16.645 A 13.537 13.537 0 0 1 138.4 14.14 Q 140.32 10.88 143.72 9.02 A 15.296 15.296 0 0 1 150.283 7.189 A 18.323 18.323 0 0 1 151.32 7.16 A 17.001 17.001 0 0 1 155.11 7.568 A 14.466 14.466 0 0 1 157.32 8.26 Q 160.04 9.36 161.96 11.52 Z M 280.92 10.96 L 265.16 10.96 L 265.16 20.72 L 279.2 20.72 L 279.2 24.16 L 265.16 24.16 L 265.16 35.48 L 261.16 35.48 L 261.16 7.48 L 280.92 7.48 L 280.92 10.96 Z M 54.28 35.48 L 49.92 35.48 L 43.88 26.88 Q 42.957 26.946 42.36 26.958 A 12.391 12.391 0 0 1 42.12 26.96 L 35.2 26.96 L 35.2 35.48 L 31.2 35.48 L 31.2 7.48 L 42.12 7.48 A 18.371 18.371 0 0 1 45.568 7.784 Q 48.627 8.369 50.68 10.08 A 8.502 8.502 0 0 1 53.732 15.929 A 12.15 12.15 0 0 1 53.8 17.24 A 10.926 10.926 0 0 1 53.475 19.968 A 8.501 8.501 0 0 1 52.2 22.76 A 8.65 8.65 0 0 1 48.87 25.566 A 11.137 11.137 0 0 1 47.64 26.08 L 54.28 35.48 Z M 309.64 35.48 L 305.28 35.48 L 299.24 26.88 Q 298.317 26.946 297.72 26.958 A 12.391 12.391 0 0 1 297.48 26.96 L 290.56 26.96 L 290.56 35.48 L 286.56 35.48 L 286.56 7.48 L 297.48 7.48 A 18.371 18.371 0 0 1 300.928 7.784 Q 303.987 8.369 306.04 10.08 A 8.502 8.502 0 0 1 309.092 15.929 A 12.15 12.15 0 0 1 309.16 17.24 A 10.926 10.926 0 0 1 308.835 19.968 A 8.501 8.501 0 0 1 307.56 22.76 A 8.65 8.65 0 0 1 304.23 25.566 A 11.137 11.137 0 0 1 303 26.08 L 309.64 35.48 Z M 427.6 35.48 L 423.24 35.48 L 417.2 26.88 Q 416.277 26.946 415.68 26.958 A 12.391 12.391 0 0 1 415.44 26.96 L 408.52 26.96 L 408.52 35.48 L 404.52 35.48 L 404.52 7.48 L 415.44 7.48 A 18.371 18.371 0 0 1 418.888 7.784 Q 421.947 8.369 424 10.08 A 8.502 8.502 0 0 1 427.052 15.929 A 12.15 12.15 0 0 1 427.12 17.24 A 10.926 10.926 0 0 1 426.795 19.968 A 8.501 8.501 0 0 1 425.52 22.76 A 8.65 8.65 0 0 1 422.19 25.566 A 11.137 11.137 0 0 1 420.96 26.08 L 427.6 35.48 Z M 187.92 35.48 L 184.84 28.48 L 169.96 28.48 L 166.88 35.48 L 162.76 35.48 L 175.44 7.48 L 179.4 7.48 L 192.12 35.48 L 187.92 35.48 Z M 252.8 35.48 L 249.72 28.48 L 234.84 28.48 L 231.76 35.48 L 227.64 35.48 L 240.32 7.48 L 244.28 7.48 L 257 35.48 L 252.8 35.48 Z M 485.56 35.48 L 482.48 28.48 L 467.6 28.48 L 464.52 35.48 L 460.4 35.48 L 473.08 7.48 L 477.04 7.48 L 489.76 35.48 L 485.56 35.48 Z M 547.32 35.48 L 544.24 28.48 L 529.36 28.48 L 526.28 35.48 L 522.16 35.48 L 534.84 7.48 L 538.8 7.48 L 551.52 35.48 L 547.32 35.48 Z M 360.16 27 L 353.24 27 L 353.24 35.48 L 349.24 35.48 L 349.24 7.48 L 360.16 7.48 A 18.371 18.371 0 0 1 363.608 7.784 Q 366.667 8.369 368.72 10.08 A 8.502 8.502 0 0 1 371.772 15.929 A 12.15 12.15 0 0 1 371.84 17.24 Q 371.84 21.8 368.72 24.4 A 10.528 10.528 0 0 1 364.819 26.41 Q 363.269 26.852 361.424 26.963 A 21.101 21.101 0 0 1 360.16 27 Z M 68.065 35.109 A 16.61 16.61 0 0 0 72.92 35.8 A 18.323 18.323 0 0 0 73.958 35.771 A 15.296 15.296 0 0 0 80.52 33.94 Q 83.92 32.08 85.84 28.82 A 13.537 13.537 0 0 0 86.992 26.315 A 14.876 14.876 0 0 0 87.76 21.48 A 16.831 16.831 0 0 0 87.741 20.66 A 13.988 13.988 0 0 0 85.84 14.14 Q 83.92 10.88 80.52 9.02 A 14.737 14.737 0 0 0 77.973 7.923 A 16.338 16.338 0 0 0 72.92 7.16 A 18.485 18.485 0 0 0 71.616 7.205 A 15.281 15.281 0 0 0 65.28 9.02 Q 61.88 10.88 59.94 14.16 A 13.748 13.748 0 0 0 59.003 16.065 A 14.473 14.473 0 0 0 58 21.48 A 16.66 16.66 0 0 0 58.003 21.763 A 14.047 14.047 0 0 0 59.94 28.8 Q 61.88 32.08 65.28 33.94 A 14.687 14.687 0 0 0 68.065 35.109 Z M 323.425 35.109 A 16.61 16.61 0 0 0 328.28 35.8 A 18.323 18.323 0 0 0 329.318 35.771 A 15.296 15.296 0 0 0 335.88 33.94 Q 339.28 32.08 341.2 28.82 A 13.537 13.537 0 0 0 342.352 26.315 A 14.876 14.876 0 0 0 343.12 21.48 A 16.831 16.831 0 0 0 343.101 20.66 A 13.988 13.988 0 0 0 341.2 14.14 Q 339.28 10.88 335.88 9.02 A 14.737 14.737 0 0 0 333.333 7.923 A 16.338 16.338 0 0 0 328.28 7.16 A 18.485 18.485 0 0 0 326.976 7.205 A 15.281 15.281 0 0 0 320.64 9.02 Q 317.24 10.88 315.3 14.16 A 13.748 13.748 0 0 0 314.363 16.065 A 14.473 14.473 0 0 0 313.36 21.48 A 16.66 16.66 0 0 0 313.363 21.763 A 14.047 14.047 0 0 0 315.3 28.8 Q 317.24 32.08 320.64 33.94 A 14.687 14.687 0 0 0 323.425 35.109 Z M 72.92 32.24 A 11.64 11.64 0 0 0 76.444 31.72 A 10.389 10.389 0 0 0 78.46 30.84 Q 80.92 29.44 82.34 26.98 A 10.691 10.691 0 0 0 83.752 21.951 A 12.735 12.735 0 0 0 83.76 21.48 A 11.204 11.204 0 0 0 83.119 17.657 A 10.382 10.382 0 0 0 82.34 15.98 Q 80.92 13.52 78.46 12.12 A 10.784 10.784 0 0 0 73.728 10.745 A 13.037 13.037 0 0 0 72.92 10.72 A 11.694 11.694 0 0 0 69.128 11.323 A 10.72 10.72 0 0 0 67.34 12.12 Q 64.84 13.52 63.42 15.98 A 10.691 10.691 0 0 0 62.009 21.009 A 12.735 12.735 0 0 0 62 21.48 A 11.204 11.204 0 0 0 62.641 25.303 A 10.382 10.382 0 0 0 63.42 26.98 Q 64.84 29.44 67.34 30.84 A 11.082 11.082 0 0 0 72.348 32.228 A 13.207 13.207 0 0 0 72.92 32.24 Z M 328.28 32.24 A 11.64 11.64 0 0 0 331.804 31.72 A 10.389 10.389 0 0 0 333.82 30.84 Q 336.28 29.44 337.7 26.98 A 10.691 10.691 0 0 0 339.112 21.951 A 12.735 12.735 0 0 0 339.12 21.48 A 11.204 11.204 0 0 0 338.479 17.657 A 10.382 10.382 0 0 0 337.7 15.98 Q 336.28 13.52 333.82 12.12 A 10.784 10.784 0 0 0 329.088 10.745 A 13.037 13.037 0 0 0 328.28 10.72 A 11.694 11.694 0 0 0 324.488 11.323 A 10.72 10.72 0 0 0 322.7 12.12 Q 320.2 13.52 318.78 15.98 A 10.691 10.691 0 0 0 317.369 21.009 A 12.735 12.735 0 0 0 317.36 21.48 A 11.204 11.204 0 0 0 318.001 25.303 A 10.382 10.382 0 0 0 318.78 26.98 Q 320.2 29.44 322.7 30.84 A 11.082 11.082 0 0 0 327.708 32.228 A 13.207 13.207 0 0 0 328.28 32.24 Z M 126.36 35.48 L 126.36 7.48 L 130.36 7.48 L 130.36 35.48 L 126.36 35.48 Z M 42 10.96 L 35.2 10.96 L 35.2 23.56 L 42 23.56 A 14.096 14.096 0 0 0 44.2 23.4 Q 45.347 23.218 46.269 22.83 A 6.174 6.174 0 0 0 47.8 21.92 A 5.327 5.327 0 0 0 49.691 18.588 A 7.912 7.912 0 0 0 49.8 17.24 A 7.376 7.376 0 0 0 49.564 15.318 A 5.157 5.157 0 0 0 47.8 12.58 Q 45.8 10.96 42 10.96 Z M 297.36 10.96 L 290.56 10.96 L 290.56 23.56 L 297.36 23.56 A 14.096 14.096 0 0 0 299.56 23.4 Q 300.707 23.218 301.629 22.83 A 6.174 6.174 0 0 0 303.16 21.92 A 5.327 5.327 0 0 0 305.051 18.588 A 7.912 7.912 0 0 0 305.16 17.24 A 7.376 7.376 0 0 0 304.924 15.318 A 5.157 5.157 0 0 0 303.16 12.58 Q 301.16 10.96 297.36 10.96 Z M 415.32 10.96 L 408.52 10.96 L 408.52 23.56 L 415.32 23.56 A 14.096 14.096 0 0 0 417.52 23.4 Q 418.667 23.218 419.589 22.83 A 6.174 6.174 0 0 0 421.12 21.92 A 5.327 5.327 0 0 0 423.011 18.588 A 7.912 7.912 0 0 0 423.12 17.24 A 7.376 7.376 0 0 0 422.884 15.318 A 5.157 5.157 0 0 0 421.12 12.58 Q 419.12 10.96 415.32 10.96 Z M 360.04 10.96 L 353.24 10.96 L 353.24 23.52 L 360.04 23.52 A 14.271 14.271 0 0 0 362.236 23.362 Q 363.35 23.188 364.251 22.823 A 6.221 6.221 0 0 0 365.84 21.9 A 5.259 5.259 0 0 0 367.729 18.598 A 7.883 7.883 0 0 0 367.84 17.24 A 7.376 7.376 0 0 0 367.604 15.318 A 5.157 5.157 0 0 0 365.84 12.58 Q 363.84 10.96 360.04 10.96 Z M 171.36 25.28 L 183.44 25.28 L 177.4 11.56 L 171.36 25.28 Z M 236.24 25.28 L 248.32 25.28 L 242.28 11.56 L 236.24 25.28 Z M 469 25.28 L 481.08 25.28 L 475.04 11.56 L 469 25.28 Z M 530.76 25.28 L 542.84 25.28 L 536.8 11.56 L 530.76 25.28 Z M 69.92 5.2 L 75.36 0 L 80.24 0 L 73.52 5.2 L 69.92 5.2 Z" vector-effect="non-scaling-stroke"/></g></svg>