<svg width="343.4" height="93.2" viewBox="0 0 343.4 93.2" xmlns="http://www.w3.org/2000/svg">
<g id="svgGroup" stroke-linecap="round" fill-rule="evenodd" font-size="9pt" stroke="#F1E9E5" stroke-width="0.25mm" fill="#F1E9E5" style="stroke:#F1E9E5;stroke-width:0.25mm;fill:#F1E9E5">
<path d="M 55.9 92 L 55.9 34.1 L 37.2 76.2 L 27.8 76.2 L 9 34.1 L 9 92 L 0 92 L 0 22 L 13.3 22 L 32.7 66.3 L 51.8 22 L 65.4 22 L 65.4 92 L 55.9 92 Z M 331 92 L 299.9 34.2 L 299.9 92 L 290.9 92 L 290.9 22 L 303.5 22 L 334.4 80.2 L 334.4 22 L 343.4 22 L 343.4 92 L 331 92 Z M 199.9 89 L 191 93.2 L 182.3 74.2 A 30.586 30.586 0 0 0 179.709 69.626 Q 177.203 66.022 174 64.1 Q 169.645 61.487 163.164 61.15 A 37.847 37.847 0 0 0 161.2 61.1 L 159.7 61.1 L 159.7 92 L 150.2 92 L 150.2 22.2 Q 155.6 21.7 160.35 21.45 Q 165.1 21.2 170.7 21.2 A 51.439 51.439 0 0 1 175.994 21.458 Q 178.599 21.728 180.87 22.28 A 29.796 29.796 0 0 1 181.9 22.55 A 27.344 27.344 0 0 1 185.985 24.039 A 19.912 19.912 0 0 1 189.9 26.4 Q 193.1 28.9 194.75 32.3 Q 196.4 35.7 196.4 39.8 A 19.88 19.88 0 0 1 195.749 45.02 A 14.672 14.672 0 0 1 192.05 51.55 Q 187.7 56 179.5 58.2 Q 181.5 59.1 183.2 60.25 Q 184.9 61.4 186.4 63.05 Q 187.9 64.7 189.35 67 A 35.914 35.914 0 0 1 190.445 68.866 Q 191.362 70.538 192.3 72.6 L 199.9 89 Z M 83.5 92.8 L 75.4 89.5 L 102.8 22 L 113.2 22 L 140.2 89.5 L 131.5 93 L 123.7 73 L 91.3 73 L 83.5 92.8 Z M 200.9 30.4 L 200.9 22 L 253.4 22 L 253.4 30.4 L 231.9 30.4 L 231.9 92 L 222.4 92 L 222.4 30.4 L 200.9 30.4 Z M 272.9 92 L 263.4 92 L 263.4 22 L 272.9 22 L 272.9 92 Z M 107.5 31.4 L 94.3 65 L 120.6 65 L 107.5 31.4 Z M 159.7 29.6 L 159.7 53.1 L 170.7 53.1 A 26.489 26.489 0 0 0 175.623 52.669 Q 179.552 51.925 182.4 49.9 Q 186.9 46.7 186.9 40.7 A 9.811 9.811 0 0 0 183.627 33.236 A 13.272 13.272 0 0 0 182.7 32.45 A 13.923 13.923 0 0 0 178.336 30.228 Q 176.407 29.618 174.077 29.37 A 31.944 31.944 0 0 0 170.7 29.2 Q 167.526 29.2 164.962 29.287 A 118.974 118.974 0 0 0 164.6 29.3 Q 161.9 29.4 159.7 29.6 Z M 259.5 18.6 L 256.4 12.5 L 275.3 0 L 279.5 8.4 L 259.5 18.6 Z" vector-effect="non-scaling-stroke"/>
</g>
</svg>