<svg width="293" height="72.401" viewBox="0 0 293 72.401" xmlns="http://www.w3.org/2000/svg">
<g id="svgGroup" stroke-linecap="round" fill-rule="evenodd" font-size="9pt" stroke="#845460" stroke-width="0.25mm" fill="#845460" style="stroke:#845460;stroke-width:0.25mm;fill:#845460">
<path d="M 172.9 68.201 L 164 72.401 L 155.3 53.401 A 30.586 30.586 0 0 0 152.709 48.827 Q 150.203 45.222 147 43.301 Q 142.645 40.687 136.164 40.35 A 37.847 37.847 0 0 0 134.2 40.301 L 132.7 40.301 L 132.7 71.201 L 123.2 71.201 L 123.2 1.401 Q 128.6 0.901 133.35 0.651 Q 138.1 0.401 143.7 0.401 A 51.439 51.439 0 0 1 148.994 0.659 Q 151.599 0.929 153.87 1.481 A 29.796 29.796 0 0 1 154.9 1.751 A 27.344 27.344 0 0 1 158.985 3.239 A 19.912 19.912 0 0 1 162.9 5.601 Q 166.1 8.101 167.75 11.501 Q 169.4 14.901 169.4 19.001 A 19.88 19.88 0 0 1 168.749 24.22 A 14.672 14.672 0 0 1 165.05 30.751 Q 160.7 35.201 152.5 37.401 Q 154.5 38.301 156.2 39.451 Q 157.9 40.601 159.4 42.251 Q 160.9 43.901 162.35 46.201 A 35.914 35.914 0 0 1 163.445 48.066 Q 164.363 49.738 165.3 51.801 L 172.9 68.201 Z M 234.6 68.201 L 225.7 72.401 L 217 53.401 A 30.586 30.586 0 0 0 214.409 48.827 Q 211.903 45.222 208.7 43.301 Q 204.345 40.687 197.864 40.35 A 37.847 37.847 0 0 0 195.9 40.301 L 194.4 40.301 L 194.4 71.201 L 184.9 71.201 L 184.9 1.401 Q 190.3 0.901 195.05 0.651 Q 199.8 0.401 205.4 0.401 A 51.439 51.439 0 0 1 210.694 0.659 Q 213.299 0.929 215.57 1.481 A 29.796 29.796 0 0 1 216.6 1.751 A 27.344 27.344 0 0 1 220.685 3.239 A 19.912 19.912 0 0 1 224.6 5.601 Q 227.8 8.101 229.45 11.501 Q 231.1 14.901 231.1 19.001 A 19.88 19.88 0 0 1 230.449 24.22 A 14.672 14.672 0 0 1 226.75 30.751 Q 222.4 35.201 214.2 37.401 Q 216.2 38.301 217.9 39.451 Q 219.6 40.601 221.1 42.251 Q 222.6 43.901 224.05 46.201 A 35.914 35.914 0 0 1 225.145 48.066 Q 226.063 49.738 227 51.801 L 234.6 68.201 Z M 243.1 0.301 L 264.5 35.801 L 285.5 0.701 L 293 5.101 L 268.9 44.601 L 268.9 71.201 L 259.4 71.201 L 259.4 44.601 L 235.1 5.101 L 243.1 0.301 Z M 41.6 62.701 L 41.6 71.201 L 0 71.201 L 0 1.201 L 9.5 1.201 L 9.5 62.701 L 41.6 62.701 Z M 44.069 26.468 A 46.437 46.437 0 0 0 43.1 36.101 A 48.913 48.913 0 0 0 43.135 37.961 A 42.769 42.769 0 0 0 45.35 50.201 A 39.376 39.376 0 0 0 45.789 51.424 A 34.353 34.353 0 0 0 51.85 61.751 Q 56.1 66.701 62.2 69.551 A 29.142 29.142 0 0 0 68.508 71.643 A 36.51 36.51 0 0 0 76.1 72.401 A 38.35 38.35 0 0 0 81.262 72.064 A 30.074 30.074 0 0 0 90 69.551 Q 96.1 66.701 100.4 61.751 Q 104.7 56.801 106.95 50.201 Q 109.2 43.601 109.2 36.101 Q 109.2 28.601 106.9 22.051 A 39.664 39.664 0 0 0 106.452 20.837 A 34.562 34.562 0 0 0 100.35 10.601 Q 96.1 5.701 89.95 2.851 A 29.531 29.531 0 0 0 84.165 0.877 A 35.739 35.739 0 0 0 76.1 0.001 A 39.631 39.631 0 0 0 70.826 0.34 A 30.859 30.859 0 0 0 62.2 2.751 Q 56.1 5.501 51.85 10.351 A 31.476 31.476 0 0 0 49.618 13.217 A 34.76 34.76 0 0 0 45.35 21.801 A 40.316 40.316 0 0 0 44.069 26.468 Z M 52.8 36.101 Q 52.8 41.501 54.35 46.601 A 28.9 28.9 0 0 0 57.327 53.312 A 26.021 26.021 0 0 0 58.9 55.601 Q 61.9 59.501 66.25 61.851 A 19.631 19.631 0 0 0 73.749 64.088 A 24.113 24.113 0 0 0 76.1 64.201 A 26.486 26.486 0 0 0 81.219 63.728 A 20.027 20.027 0 0 0 86.25 62.051 Q 90.6 59.901 93.55 56.151 A 24.679 24.679 0 0 0 97.042 50.037 A 30.056 30.056 0 0 0 98 47.251 A 37.865 37.865 0 0 0 99.381 39.408 A 45.286 45.286 0 0 0 99.5 36.101 Q 99.5 30.701 97.9 25.701 A 29.351 29.351 0 0 0 94.247 18.11 A 27.264 27.264 0 0 0 93.3 16.801 Q 90.3 12.901 85.95 10.551 A 19.631 19.631 0 0 0 78.451 8.313 A 24.113 24.113 0 0 0 76.1 8.201 Q 70.6 8.201 66.25 10.351 Q 61.9 12.501 58.9 16.251 A 25.203 25.203 0 0 0 55.156 22.784 A 30.211 30.211 0 0 0 54.35 25.101 Q 52.8 30.201 52.8 36.101 Z M 132.7 8.801 L 132.7 32.301 L 143.7 32.301 A 26.489 26.489 0 0 0 148.623 31.869 Q 152.552 31.126 155.4 29.101 Q 159.9 25.901 159.9 19.901 A 9.811 9.811 0 0 0 156.627 12.436 A 13.272 13.272 0 0 0 155.7 11.651 A 13.923 13.923 0 0 0 151.336 9.429 Q 149.407 8.818 147.077 8.57 A 31.944 31.944 0 0 0 143.7 8.401 Q 140.526 8.401 137.962 8.488 A 118.974 118.974 0 0 0 137.6 8.501 Q 134.9 8.601 132.7 8.801 Z M 194.4 8.801 L 194.4 32.301 L 205.4 32.301 A 26.489 26.489 0 0 0 210.323 31.869 Q 214.252 31.126 217.1 29.101 Q 221.6 25.901 221.6 19.901 A 9.811 9.811 0 0 0 218.327 12.436 A 13.272 13.272 0 0 0 217.4 11.651 A 13.923 13.923 0 0 0 213.036 9.429 Q 211.107 8.818 208.777 8.57 A 31.944 31.944 0 0 0 205.4 8.401 Q 202.226 8.401 199.662 8.488 A 118.974 118.974 0 0 0 199.3 8.501 Q 196.6 8.601 194.4 8.801 Z" vector-effect="non-scaling-stroke"/></g></svg>