<svg width="421.9" height="72.401" viewBox="0 0 421.9 72.401" xmlns="http://www.w3.org/2000/svg">
<g id="svgGroup" stroke-linecap="round" fill-rule="evenodd" font-size="9pt" stroke="#845460" stroke-width="0.25mm" fill="#845460" style="stroke:#845460;stroke-width:0.25mm;fill:#845460">
<path d="M 236.1 71.201 L 236.1 1.201 L 278.1 1.201 L 278.1 9.401 L 245.6 9.401 L 245.6 30.701 L 273.6 30.701 L 273.6 38.701 L 245.6 38.701 L 245.6 63.001 L 278.1 63.001 L 278.1 71.201 L 236.1 71.201 Z M 0 65.301 L 4.8 57.301 Q 8.4 60.301 12.9 62.201 A 23.348 23.348 0 0 0 18.27 63.71 A 32.118 32.118 0 0 0 23.4 64.101 A 27.981 27.981 0 0 0 27.947 63.754 Q 30.37 63.354 32.331 62.494 A 13.701 13.701 0 0 0 34.8 61.101 Q 38.848 58.209 38.995 53.366 A 12.116 12.116 0 0 0 39 53.001 Q 39 50.901 38.4 49.101 A 7.214 7.214 0 0 0 37.438 47.23 Q 36.87 46.424 36.05 45.651 Q 34.779 44.452 32.768 43.253 A 33.644 33.644 0 0 0 31.15 42.351 A 51.221 51.221 0 0 0 28.647 41.132 Q 26.203 40.018 23 38.801 Q 18.866 37.193 15.698 35.614 A 55.037 55.037 0 0 1 13.85 34.651 A 29.576 29.576 0 0 1 10.846 32.78 Q 9.094 31.529 7.8 30.151 A 15.293 15.293 0 0 1 5.187 26.414 A 13.936 13.936 0 0 1 4.5 24.751 A 18.339 18.339 0 0 1 3.705 21.27 A 24.866 24.866 0 0 1 3.5 18.001 Q 3.5 14.301 5.05 11.001 A 15.944 15.944 0 0 1 9.091 5.717 A 18.684 18.684 0 0 1 9.65 5.251 A 20.424 20.424 0 0 1 13.765 2.711 A 26.899 26.899 0 0 1 17.15 1.401 A 29.368 29.368 0 0 1 22.231 0.308 A 39.853 39.853 0 0 1 27.3 0.001 A 52.816 52.816 0 0 1 33.001 0.294 A 38.808 38.808 0 0 1 38.4 1.251 Q 43.3 2.501 48.1 4.801 L 44.6 12.901 A 31.496 31.496 0 0 0 40.474 10.882 A 41.686 41.686 0 0 0 36.65 9.551 Q 32.1 8.201 27.1 8.201 A 27.711 27.711 0 0 0 23.07 8.475 Q 19.253 9.037 16.7 10.751 A 9.496 9.496 0 0 0 14.479 12.772 A 7.461 7.461 0 0 0 12.9 17.501 A 12.395 12.395 0 0 0 13.029 19.332 A 9.192 9.192 0 0 0 13.45 21.051 A 5.878 5.878 0 0 0 14.207 22.482 Q 14.627 23.074 15.219 23.651 A 11.219 11.219 0 0 0 15.65 24.051 Q 16.846 25.102 18.725 26.179 A 34.591 34.591 0 0 0 20.25 27.001 A 46.93 46.93 0 0 0 22.509 28.067 Q 24.884 29.119 28.1 30.301 A 89.068 89.068 0 0 1 32.515 32.105 Q 35.525 33.435 37.9 34.801 A 33.937 33.937 0 0 1 40.99 36.795 Q 42.492 37.891 43.667 39.048 A 19.029 19.029 0 0 1 44.3 39.701 A 17.193 17.193 0 0 1 46.724 43.018 A 14.737 14.737 0 0 1 47.75 45.301 A 18.723 18.723 0 0 1 48.697 49.709 A 22.892 22.892 0 0 1 48.8 51.901 Q 48.8 56.801 46.9 60.601 Q 45 64.401 41.65 67.051 A 21.611 21.611 0 0 1 36.472 70.052 A 26.983 26.983 0 0 1 33.6 71.051 A 34.832 34.832 0 0 1 26.759 72.269 A 41.937 41.937 0 0 1 23.4 72.401 Q 16.1 72.401 10.1 70.451 A 38.206 38.206 0 0 1 4.733 68.268 A 28.433 28.433 0 0 1 0 65.301 Z M 220.2 59.801 L 223.1 67.701 A 37.561 37.561 0 0 1 218.605 69.745 A 47.894 47.894 0 0 1 214.65 71.051 A 33.592 33.592 0 0 1 209.685 72.042 Q 207.203 72.356 204.406 72.395 A 57.414 57.414 0 0 1 203.6 72.401 A 32.995 32.995 0 0 1 195.847 71.519 A 28.104 28.104 0 0 1 191.05 69.901 Q 185.4 67.401 181.3 62.751 Q 177.2 58.101 174.95 51.451 A 41.976 41.976 0 0 1 173.071 42.972 A 54.408 54.408 0 0 1 172.7 36.501 A 49.695 49.695 0 0 1 173.493 27.459 A 41.367 41.367 0 0 1 174.95 21.801 A 35.774 35.774 0 0 1 178.688 13.889 A 31.258 31.258 0 0 1 181.4 10.251 Q 185.6 5.401 191.55 2.701 A 30.352 30.352 0 0 1 201.234 0.169 A 36.94 36.94 0 0 1 204.8 0.001 A 47.013 47.013 0 0 1 209.566 0.231 A 34.567 34.567 0 0 1 213.95 0.951 Q 218 1.901 221.6 3.601 L 218.7 11.601 Q 215.6 10.101 212.35 9.201 Q 209.557 8.427 205.915 8.318 A 40.705 40.705 0 0 0 204.7 8.301 A 21.835 21.835 0 0 0 197.627 9.43 A 20.396 20.396 0 0 0 195.8 10.151 Q 191.7 12.001 188.7 15.601 A 23.93 23.93 0 0 0 185.344 20.993 A 30.168 30.168 0 0 0 184.05 24.351 Q 182.4 29.501 182.4 36.101 A 41.653 41.653 0 0 0 182.893 42.647 A 33.093 33.093 0 0 0 184.05 47.551 A 30.164 30.164 0 0 0 186.318 52.885 A 24.704 24.704 0 0 0 188.65 56.401 Q 191.6 60.101 195.7 62.101 A 20.009 20.009 0 0 0 203.788 64.083 A 23.478 23.478 0 0 0 204.7 64.101 A 35.165 35.165 0 0 0 208.671 63.888 Q 210.683 63.659 212.415 63.183 A 19.903 19.903 0 0 0 213.2 62.951 Q 216.8 61.801 220.2 59.801 Z M 62.9 72.001 L 54.8 68.701 L 82.2 1.201 L 92.6 1.201 L 119.6 68.701 L 110.9 72.201 L 103.1 52.201 L 70.7 52.201 L 62.9 72.001 Z M 171.2 62.701 L 171.2 71.201 L 129.6 71.201 L 129.6 1.201 L 139.1 1.201 L 139.1 62.701 L 171.2 62.701 Z M 291.6 71.001 L 291.6 1.401 Q 296.3 0.901 300.8 0.651 A 151.31 151.31 0 0 1 304.986 0.48 Q 307.838 0.401 311.1 0.401 A 48.65 48.65 0 0 1 318.249 0.899 Q 322.842 1.582 326.6 3.201 A 31.116 31.116 0 0 1 334.341 7.911 A 27.99 27.99 0 0 1 337.4 10.901 Q 341.7 15.801 343.75 22.301 A 45.124 45.124 0 0 1 345.78 34.682 A 51.177 51.177 0 0 1 345.8 36.101 A 45.458 45.458 0 0 1 344.09 48.664 A 42.542 42.542 0 0 1 343.7 49.951 Q 341.6 56.501 337.25 61.401 Q 332.9 66.301 326.15 69.151 Q 319.875 71.8 311.309 71.986 A 60.192 60.192 0 0 1 310 72.001 Q 305.636 72.001 302.122 71.854 A 121.597 121.597 0 0 1 300.05 71.751 Q 295.8 71.501 291.6 71.001 Z M 356.769 26.468 A 46.437 46.437 0 0 0 355.8 36.101 A 48.913 48.913 0 0 0 355.835 37.961 A 42.769 42.769 0 0 0 358.05 50.201 A 39.376 39.376 0 0 0 358.489 51.424 A 34.353 34.353 0 0 0 364.55 61.751 Q 368.8 66.701 374.9 69.551 A 29.142 29.142 0 0 0 381.208 71.643 A 36.51 36.51 0 0 0 388.8 72.401 A 38.35 38.35 0 0 0 393.962 72.064 A 30.074 30.074 0 0 0 402.7 69.551 Q 408.8 66.701 413.1 61.751 Q 417.4 56.801 419.65 50.201 Q 421.9 43.601 421.9 36.101 Q 421.9 28.601 419.6 22.051 A 39.664 39.664 0 0 0 419.152 20.837 A 34.562 34.562 0 0 0 413.05 10.601 Q 408.8 5.701 402.65 2.851 A 29.531 29.531 0 0 0 396.865 0.877 A 35.739 35.739 0 0 0 388.8 0.001 A 39.631 39.631 0 0 0 383.526 0.34 A 30.859 30.859 0 0 0 374.9 2.751 Q 368.8 5.501 364.55 10.351 A 31.476 31.476 0 0 0 362.318 13.217 A 34.76 34.76 0 0 0 358.05 21.801 A 40.316 40.316 0 0 0 356.769 26.468 Z M 365.5 36.101 Q 365.5 41.501 367.05 46.601 A 28.9 28.9 0 0 0 370.027 53.312 A 26.021 26.021 0 0 0 371.6 55.601 Q 374.6 59.501 378.95 61.851 A 19.631 19.631 0 0 0 386.449 64.088 A 24.113 24.113 0 0 0 388.8 64.201 A 26.486 26.486 0 0 0 393.919 63.728 A 20.027 20.027 0 0 0 398.95 62.051 Q 403.3 59.901 406.25 56.151 A 24.679 24.679 0 0 0 409.742 50.037 A 30.056 30.056 0 0 0 410.7 47.251 A 37.865 37.865 0 0 0 412.081 39.408 A 45.286 45.286 0 0 0 412.2 36.101 Q 412.2 30.701 410.6 25.701 A 29.351 29.351 0 0 0 406.947 18.11 A 27.264 27.264 0 0 0 406 16.801 Q 403 12.901 398.65 10.551 A 19.631 19.631 0 0 0 391.151 8.313 A 24.113 24.113 0 0 0 388.8 8.201 Q 383.3 8.201 378.95 10.351 Q 374.6 12.501 371.6 16.251 A 25.203 25.203 0 0 0 367.856 22.784 A 30.211 30.211 0 0 0 367.05 25.101 Q 365.5 30.201 365.5 36.101 Z M 301.1 9.101 L 301.1 63.201 Q 303.2 63.501 305.5 63.601 A 107.265 107.265 0 0 0 309.063 63.694 A 121.297 121.297 0 0 0 310.3 63.701 A 36.818 36.818 0 0 0 315.818 63.308 Q 319.144 62.804 321.9 61.651 A 22.642 22.642 0 0 0 327.222 58.558 A 19.769 19.769 0 0 0 329.95 55.951 A 22.682 22.682 0 0 0 334.036 48.945 A 26.898 26.898 0 0 0 334.6 47.251 A 35.959 35.959 0 0 0 335.889 40.528 A 45.132 45.132 0 0 0 336.1 36.101 A 35.493 35.493 0 0 0 334.6 25.751 Q 333.1 20.801 330 16.951 A 21.631 21.631 0 0 0 322.985 11.286 A 25.328 25.328 0 0 0 322.1 10.851 A 23.096 23.096 0 0 0 316.162 9.031 A 31.81 31.81 0 0 0 310.8 8.601 Q 307.9 8.601 305.5 8.751 Q 303.1 8.901 301.1 9.101 Z M 86.9 10.601 L 73.7 44.201 L 100 44.201 L 86.9 10.601 Z" vector-effect="non-scaling-stroke"/>
</g>
</svg>