<svg width="695" height="71.602" viewBox="0 0 695 71.602" xmlns="http://www.w3.org/2000/svg">
<g id="svgGroup" stroke-linecap="round" fill-rule="evenodd" font-size="9pt" stroke="#845460" stroke-width="0.25mm" fill="#845460" style="stroke:#845460;stroke-width:0.25mm;fill:#845460">
<path d="M 546.8 70.801 L 537.2 70.801 L 537.1 19.801 L 511.8 62.301 L 507.2 62.301 L 481.9 20.101 L 481.9 70.801 L 472.3 70.801 L 472.3 0.801 L 480.5 0.801 L 509.7 50.001 L 538.5 0.801 L 546.7 0.801 L 546.8 70.801 Z M 685 0.801 L 695 0.801 L 695 70.801 L 686.8 70.801 L 644.8 18.601 L 644.8 70.801 L 634.8 70.801 L 634.8 0.801 L 643 0.801 L 685 53.001 L 685 0.801 Z M 112.5 62.101 L 153.3 62.101 L 153.3 70.801 L 102.5 70.801 L 102.5 0.801 L 151.9 0.801 L 151.9 9.501 L 112.5 9.501 L 112.5 31.001 L 147.6 31.001 L 147.6 39.501 L 112.5 39.501 L 112.5 62.101 Z M 577.8 62.101 L 618.6 62.101 L 618.6 70.801 L 567.8 70.801 L 567.8 0.801 L 617.2 0.801 L 617.2 9.501 L 577.8 9.501 L 577.8 31.001 L 612.9 31.001 L 612.9 39.501 L 577.8 39.501 L 577.8 62.101 Z M 313.8 10.901 L 307.3 17.201 A 25.965 25.965 0 0 0 288.425 8.911 A 32.979 32.979 0 0 0 287.6 8.901 A 29.922 29.922 0 0 0 278.222 10.337 A 27.06 27.06 0 0 0 273.5 12.401 Q 267.2 15.901 263.65 22.051 A 26.728 26.728 0 0 0 260.122 34.622 A 31.837 31.837 0 0 0 260.1 35.801 A 28.01 28.01 0 0 0 261.703 45.358 A 25.955 25.955 0 0 0 263.65 49.551 Q 267.2 55.701 273.5 59.201 A 28.037 28.037 0 0 0 285.673 62.646 A 33.573 33.573 0 0 0 287.6 62.701 A 26.709 26.709 0 0 0 300.041 59.817 A 27.337 27.337 0 0 0 307.3 54.301 L 313.8 60.601 Q 309 66.001 302.15 68.801 A 37.994 37.994 0 0 1 290.746 71.457 A 45.512 45.512 0 0 1 287.1 71.601 Q 276.6 71.601 268.15 66.951 Q 259.7 62.301 254.9 54.151 A 34.97 34.97 0 0 1 250.15 37.851 A 42.078 42.078 0 0 1 250.1 35.801 A 37.191 37.191 0 0 1 252.022 23.712 A 33.842 33.842 0 0 1 254.9 17.451 Q 259.7 9.301 268.2 4.651 A 38.24 38.24 0 0 1 284.606 0.073 A 45.807 45.807 0 0 1 287.2 0.001 A 42.503 42.503 0 0 1 296.674 1.022 A 36.164 36.164 0 0 1 302.2 2.751 Q 309 5.501 313.8 10.901 Z M 457.3 70.801 L 446.4 70.801 L 431.3 49.301 Q 428.5 49.501 426.9 49.501 L 409.6 49.501 L 409.6 70.801 L 399.6 70.801 L 399.6 0.801 L 426.9 0.801 A 45.927 45.927 0 0 1 435.519 1.56 Q 443.166 3.022 448.3 7.301 A 21.256 21.256 0 0 1 455.928 21.924 A 30.375 30.375 0 0 1 456.1 25.201 A 27.315 27.315 0 0 1 455.286 32.021 A 21.251 21.251 0 0 1 452.1 39.001 A 21.625 21.625 0 0 1 443.775 46.015 A 27.841 27.841 0 0 1 440.7 47.301 L 457.3 70.801 Z M 65.5 0.801 L 37.7 46.601 L 37.7 70.801 L 27.8 70.801 L 27.8 46.401 L 0 0.801 L 10.7 0.801 L 33.1 37.701 L 55.6 0.801 L 65.5 0.801 Z M 378.7 70.801 L 371 53.301 L 333.8 53.301 L 326.1 70.801 L 315.8 70.801 L 347.5 0.801 L 357.4 0.801 L 389.2 70.801 L 378.7 70.801 Z M 169.5 70.801 L 169.5 0.801 L 179.5 0.801 L 179.5 62.101 L 217.4 62.101 L 217.4 70.801 L 169.5 70.801 Z M 426.6 9.501 L 409.6 9.501 L 409.6 41.001 L 426.6 41.001 A 35.239 35.239 0 0 0 432.098 40.6 Q 437.663 39.719 441.1 36.901 A 13.317 13.317 0 0 0 445.825 28.571 A 19.781 19.781 0 0 0 446.1 25.201 A 18.44 18.44 0 0 0 445.509 20.395 A 12.892 12.892 0 0 0 441.1 13.551 A 16.243 16.243 0 0 0 435.864 10.782 Q 433.536 10.021 430.707 9.712 A 37.866 37.866 0 0 0 426.6 9.501 Z M 337.3 45.301 L 367.5 45.301 L 352.4 11.001 L 337.3 45.301 Z" vector-effect="non-scaling-stroke"/>
</g>
</svg>