<svg width="739.081" height="64.802" viewBox="0 0 739.081 64.802" xmlns="http://www.w3.org/2000/svg"><g id="svgGroup" stroke-linecap="round" fill-rule="evenodd" font-size="9pt" stroke="#000" stroke-width="0.25mm" fill="black" style="stroke:#000;stroke-width:0.25mm;fill:black"><path d="M 647.19 0.901 L 658.8 0.901 L 658.8 63.901 L 649.17 63.901 L 614.43 21.241 L 614.43 63.901 L 602.82 63.901 L 602.82 0.901 L 612.45 0.901 L 647.19 43.561 L 647.19 0.901 Z M 351.36 54.091 L 386.91 54.091 L 386.91 63.901 L 339.66 63.901 L 339.66 0.901 L 385.65 0.901 L 385.65 10.711 L 351.36 10.711 L 351.36 27.091 L 381.78 27.091 L 381.78 36.721 L 351.36 36.721 L 351.36 54.091 Z M 465.21 36.451 L 465.21 0.901 L 476.91 0.901 L 476.91 36.001 A 31.207 31.207 0 0 0 477.623 42.998 Q 480.289 54.541 492.93 54.541 A 19.428 19.428 0 0 0 499.688 53.462 Q 508.86 50.069 508.86 36.001 L 508.86 0.901 L 520.38 0.901 L 520.38 36.451 A 41.335 41.335 0 0 1 519.6 44.745 Q 518.589 49.676 516.269 53.461 A 22.169 22.169 0 0 1 513.135 57.466 A 23.726 23.726 0 0 1 501.811 63.769 Q 498.02 64.728 493.524 64.796 A 45.627 45.627 0 0 1 492.84 64.801 Q 481.463 64.801 474.463 59.226 A 22.753 22.753 0 0 1 472.5 57.466 A 23.694 23.694 0 0 1 466.605 47.206 Q 465.21 42.436 465.21 36.451 Z M 122.31 10.711 L 88.02 10.711 L 88.02 29.881 L 118.44 29.881 L 118.44 39.781 L 88.02 39.781 L 88.02 63.901 L 76.32 63.901 L 76.32 0.901 L 122.31 0.901 L 122.31 10.711 Z M 187.47 63.901 L 174.87 63.901 L 162 45.451 Q 161.38 45.52 160.285 45.536 A 48.617 48.617 0 0 1 159.57 45.541 L 145.35 45.541 L 145.35 63.901 L 133.65 63.901 L 133.65 0.901 L 159.57 0.901 A 41.899 41.899 0 0 1 166.558 1.455 A 30.286 30.286 0 0 1 173.835 3.601 Q 179.91 6.301 183.15 11.341 A 20.262 20.262 0 0 1 186.119 19.462 A 26.498 26.498 0 0 1 186.39 23.311 A 24.449 24.449 0 0 1 185.629 29.541 A 19.505 19.505 0 0 1 182.925 35.551 A 19.777 19.777 0 0 1 175.58 42.022 A 25.294 25.294 0 0 1 172.98 43.201 L 187.47 63.901 Z M 453.78 63.901 L 441.18 63.901 L 428.31 45.451 Q 427.69 45.52 426.595 45.536 A 48.617 48.617 0 0 1 425.88 45.541 L 411.66 45.541 L 411.66 63.901 L 399.96 63.901 L 399.96 0.901 L 425.88 0.901 A 41.899 41.899 0 0 1 432.868 1.455 A 30.286 30.286 0 0 1 440.145 3.601 Q 446.22 6.301 449.46 11.341 A 20.262 20.262 0 0 1 452.429 19.462 A 26.498 26.498 0 0 1 452.7 23.311 A 24.449 24.449 0 0 1 451.939 29.541 A 19.505 19.505 0 0 1 449.235 35.551 A 19.777 19.777 0 0 1 441.89 42.022 A 25.294 25.294 0 0 1 439.29 43.201 L 453.78 63.901 Z M 56.07 63.901 L 49.77 49.321 L 18.27 49.321 L 12.06 63.901 L 0 63.901 L 28.35 0.901 L 39.87 0.901 L 68.31 63.901 L 56.07 63.901 Z M 582.57 63.901 L 576.27 49.321 L 544.77 49.321 L 538.56 63.901 L 526.5 63.901 L 554.85 0.901 L 566.37 0.901 L 594.81 63.901 L 582.57 63.901 Z M 301.14 45.721 L 286.92 45.721 L 286.92 63.901 L 275.22 63.901 L 275.22 0.901 L 301.14 0.901 A 41.899 41.899 0 0 1 308.128 1.455 A 30.286 30.286 0 0 1 315.405 3.601 Q 321.48 6.301 324.72 11.341 A 20.262 20.262 0 0 1 327.689 19.462 A 26.498 26.498 0 0 1 327.96 23.311 Q 327.96 30.151 324.72 35.236 A 20.064 20.064 0 0 1 317.322 42.071 A 25.051 25.051 0 0 1 315.405 43.021 A 30.286 30.286 0 0 1 308.128 45.167 A 41.899 41.899 0 0 1 301.14 45.721 Z M 217.835 63.247 A 38.123 38.123 0 0 0 228.87 64.801 A 42.392 42.392 0 0 0 231.842 64.698 A 35.067 35.067 0 0 0 246.24 60.616 Q 253.98 56.431 258.39 49.051 Q 262.8 41.671 262.8 32.401 Q 262.8 23.131 258.39 15.751 Q 253.98 8.371 246.24 4.186 A 33.683 33.683 0 0 0 239.905 1.555 A 38.123 38.123 0 0 0 228.87 0.001 A 42.392 42.392 0 0 0 225.898 0.104 A 35.067 35.067 0 0 0 211.5 4.186 Q 203.76 8.371 199.35 15.796 Q 194.94 23.221 194.94 32.401 A 37.715 37.715 0 0 0 194.95 33.258 A 31.71 31.71 0 0 0 199.35 49.006 Q 203.76 56.431 211.5 60.616 A 33.683 33.683 0 0 0 217.835 63.247 Z M 694.115 63.247 A 38.123 38.123 0 0 0 705.15 64.801 A 42.392 42.392 0 0 0 708.122 64.698 A 35.067 35.067 0 0 0 722.52 60.616 Q 730.26 56.431 734.67 49.051 Q 739.08 41.671 739.08 32.401 Q 739.08 23.131 734.67 15.751 Q 730.26 8.371 722.52 4.186 A 33.683 33.683 0 0 0 716.185 1.555 A 38.123 38.123 0 0 0 705.15 0.001 A 42.392 42.392 0 0 0 702.178 0.104 A 35.067 35.067 0 0 0 687.78 4.186 Q 680.04 8.371 675.63 15.796 Q 671.22 23.221 671.22 32.401 A 37.715 37.715 0 0 0 671.23 33.258 A 31.71 31.71 0 0 0 675.63 49.006 Q 680.04 56.431 687.78 60.616 A 33.683 33.683 0 0 0 694.115 63.247 Z M 228.87 54.541 A 24.06 24.06 0 0 0 236.08 53.488 A 21.429 21.429 0 0 0 240.21 51.706 Q 245.25 48.871 248.13 43.786 A 22.376 22.376 0 0 0 250.98 33.668 A 26.786 26.786 0 0 0 251.01 32.401 A 23.715 23.715 0 0 0 249.799 24.741 A 21.622 21.622 0 0 0 248.13 21.016 Q 245.25 15.931 240.21 13.096 A 22.25 22.25 0 0 0 230.617 10.317 A 26.883 26.883 0 0 0 228.87 10.261 A 24.06 24.06 0 0 0 221.66 11.314 A 21.429 21.429 0 0 0 217.53 13.096 Q 212.49 15.931 209.61 21.016 A 22.376 22.376 0 0 0 206.76 31.134 A 26.786 26.786 0 0 0 206.73 32.401 A 23.715 23.715 0 0 0 207.941 40.06 A 21.622 21.622 0 0 0 209.61 43.786 Q 212.49 48.871 217.53 51.706 A 22.25 22.25 0 0 0 227.123 54.485 A 26.883 26.883 0 0 0 228.87 54.541 Z M 705.15 54.541 A 24.06 24.06 0 0 0 712.36 53.488 A 21.429 21.429 0 0 0 716.49 51.706 Q 721.53 48.871 724.41 43.786 A 22.376 22.376 0 0 0 727.26 33.668 A 26.786 26.786 0 0 0 727.29 32.401 A 23.715 23.715 0 0 0 726.079 24.741 A 21.622 21.622 0 0 0 724.41 21.016 Q 721.53 15.931 716.49 13.096 A 22.25 22.25 0 0 0 706.897 10.317 A 26.883 26.883 0 0 0 705.15 10.261 A 24.06 24.06 0 0 0 697.94 11.314 A 21.429 21.429 0 0 0 693.81 13.096 Q 688.77 15.931 685.89 21.016 A 22.376 22.376 0 0 0 683.04 31.134 A 26.786 26.786 0 0 0 683.01 32.401 A 23.715 23.715 0 0 0 684.221 40.06 A 21.622 21.622 0 0 0 685.89 43.786 Q 688.77 48.871 693.81 51.706 A 22.25 22.25 0 0 0 703.403 54.485 A 26.883 26.883 0 0 0 705.15 54.541 Z M 159.03 10.801 L 145.35 10.801 L 145.35 35.911 L 159.03 35.911 A 28.472 28.472 0 0 0 163.4 35.598 Q 165.651 35.248 167.461 34.505 A 12.187 12.187 0 0 0 170.64 32.626 Q 174.6 29.341 174.6 23.311 A 14.691 14.691 0 0 0 174.132 19.495 A 10.322 10.322 0 0 0 170.64 14.041 A 12.757 12.757 0 0 0 166.512 11.84 Q 164.667 11.231 162.415 10.979 A 30.46 30.46 0 0 0 159.03 10.801 Z M 425.34 10.801 L 411.66 10.801 L 411.66 35.911 L 425.34 35.911 A 28.472 28.472 0 0 0 429.71 35.598 Q 431.961 35.248 433.771 34.505 A 12.187 12.187 0 0 0 436.95 32.626 Q 440.91 29.341 440.91 23.311 A 14.691 14.691 0 0 0 440.442 19.495 A 10.322 10.322 0 0 0 436.95 14.041 A 12.757 12.757 0 0 0 432.822 11.84 Q 430.977 11.231 428.725 10.979 A 30.46 30.46 0 0 0 425.34 10.801 Z M 300.6 10.801 L 286.92 10.801 L 286.92 35.821 L 300.6 35.821 A 28.942 28.942 0 0 0 304.919 35.52 Q 307.17 35.18 308.982 34.454 A 12.251 12.251 0 0 0 312.21 32.581 A 10.527 10.527 0 0 0 315.952 25.984 A 15.709 15.709 0 0 0 316.17 23.311 A 14.691 14.691 0 0 0 315.702 19.495 A 10.322 10.322 0 0 0 312.21 14.041 A 12.757 12.757 0 0 0 308.082 11.84 Q 306.237 11.231 303.985 10.979 A 30.46 30.46 0 0 0 300.6 10.801 Z M 22.23 40.141 L 45.9 40.141 L 34.02 12.601 L 22.23 40.141 Z M 548.73 40.141 L 572.4 40.141 L 560.52 12.601 L 548.73 40.141 Z" vector-effect="non-scaling-stroke"/></g></svg>