<svg width="794.221" height="50.402" viewBox="0 0 794.221 50.402" xmlns="http://www.w3.org/2000/svg">
<g id="svgGroup" stroke-linecap="round" fill-rule="evenodd" font-size="9pt" stroke="#000" stroke-width="0.25mm" fill="black" style="stroke:#000;stroke-width:0.25mm;fill:black">
<path d="M 721.42 42.071 L 749.07 42.071 L 749.07 49.701 L 712.32 49.701 L 712.32 0.701 L 748.09 0.701 L 748.09 8.331 L 721.42 8.331 L 721.42 21.071 L 745.08 21.071 L 745.08 28.561 L 721.42 28.561 L 721.42 42.071 Z M 76.02 44.521 L 79.17 37.451 A 21.952 21.952 0 0 0 82.988 39.851 A 29.282 29.282 0 0 0 86.555 41.336 Q 90.93 42.841 95.34 42.841 Q 100.8 42.841 103.495 41.091 A 6.76 6.76 0 0 0 105.002 39.789 A 4.992 4.992 0 0 0 106.19 36.471 Q 106.19 34.371 104.685 33.006 Q 103.18 31.641 100.87 30.871 Q 98.56 30.101 94.57 29.121 A 110.759 110.759 0 0 1 90.972 28.206 Q 89.376 27.77 88.009 27.333 A 46.39 46.39 0 0 1 85.505 26.461 Q 82.04 25.131 79.555 22.296 A 9.597 9.597 0 0 1 77.496 18.288 Q 77.07 16.631 77.07 14.631 Q 77.07 10.571 79.275 7.246 A 13.281 13.281 0 0 1 82.794 3.7 A 18.457 18.457 0 0 1 85.925 1.961 Q 89.78 0.261 95.135 0.035 A 39.787 39.787 0 0 1 96.81 0.001 Q 101.29 0.001 105.63 1.121 Q 109.97 2.241 113.12 4.341 L 110.25 11.411 Q 107.03 9.521 103.53 8.541 A 26.36 26.36 0 0 0 98.817 7.656 A 22.841 22.841 0 0 0 96.74 7.561 A 25.586 25.586 0 0 0 93.927 7.705 Q 90.941 8.036 89.114 9.13 A 6.937 6.937 0 0 0 88.725 9.381 A 6.561 6.561 0 0 0 87.125 10.913 A 5.475 5.475 0 0 0 86.1 14.211 A 4.77 4.77 0 0 0 86.409 15.956 A 4.328 4.328 0 0 0 87.605 17.641 A 9.588 9.588 0 0 0 89.553 18.96 A 12.947 12.947 0 0 0 91.42 19.741 Q 93.73 20.511 97.72 21.491 A 95.863 95.863 0 0 1 101.391 22.41 Q 104.438 23.241 106.68 24.116 Q 110.18 25.481 112.665 28.281 A 9.458 9.458 0 0 1 114.74 32.297 Q 115.15 33.907 115.15 35.841 Q 115.15 39.901 112.945 43.191 A 13.168 13.168 0 0 1 109.552 46.609 A 18.63 18.63 0 0 1 106.26 48.441 A 21.846 21.846 0 0 1 101.629 49.848 Q 99.478 50.262 97.016 50.366 A 39.831 39.831 0 0 1 95.34 50.401 Q 89.67 50.401 84.385 48.791 Q 80.184 47.511 77.376 45.568 A 16.023 16.023 0 0 1 76.02 44.521 Z M 276.99 44.521 L 280.14 37.451 A 21.952 21.952 0 0 0 283.958 39.851 A 29.282 29.282 0 0 0 287.525 41.336 Q 291.9 42.841 296.31 42.841 Q 301.77 42.841 304.465 41.091 A 6.76 6.76 0 0 0 305.972 39.789 A 4.992 4.992 0 0 0 307.16 36.471 Q 307.16 34.371 305.655 33.006 Q 304.15 31.641 301.84 30.871 Q 299.53 30.101 295.54 29.121 A 110.759 110.759 0 0 1 291.942 28.206 Q 290.346 27.77 288.979 27.333 A 46.39 46.39 0 0 1 286.475 26.461 Q 283.01 25.131 280.525 22.296 A 9.597 9.597 0 0 1 278.466 18.288 Q 278.04 16.631 278.04 14.631 Q 278.04 10.571 280.245 7.246 A 13.281 13.281 0 0 1 283.764 3.7 A 18.457 18.457 0 0 1 286.895 1.961 Q 290.75 0.261 296.105 0.035 A 39.787 39.787 0 0 1 297.78 0.001 Q 302.26 0.001 306.6 1.121 Q 310.94 2.241 314.09 4.341 L 311.22 11.411 Q 308 9.521 304.5 8.541 A 26.36 26.36 0 0 0 299.787 7.656 A 22.841 22.841 0 0 0 297.71 7.561 A 25.586 25.586 0 0 0 294.897 7.705 Q 291.911 8.036 290.084 9.13 A 6.937 6.937 0 0 0 289.695 9.381 A 6.561 6.561 0 0 0 288.095 10.913 A 5.475 5.475 0 0 0 287.07 14.211 A 4.77 4.77 0 0 0 287.379 15.956 A 4.328 4.328 0 0 0 288.575 17.641 A 9.588 9.588 0 0 0 290.523 18.96 A 12.947 12.947 0 0 0 292.39 19.741 Q 294.7 20.511 298.69 21.491 A 95.863 95.863 0 0 1 302.361 22.41 Q 305.408 23.241 307.65 24.116 Q 311.15 25.481 313.635 28.281 A 9.458 9.458 0 0 1 315.71 32.297 Q 316.12 33.907 316.12 35.841 Q 316.12 39.901 313.915 43.191 A 13.168 13.168 0 0 1 310.522 46.609 A 18.63 18.63 0 0 1 307.23 48.441 A 21.846 21.846 0 0 1 302.599 49.848 Q 300.448 50.262 297.986 50.366 A 39.831 39.831 0 0 1 296.31 50.401 Q 290.64 50.401 285.355 48.791 Q 281.154 47.511 278.346 45.568 A 16.023 16.023 0 0 1 276.99 44.521 Z M 379.96 44.521 L 383.11 37.451 A 21.952 21.952 0 0 0 386.928 39.851 A 29.282 29.282 0 0 0 390.495 41.336 Q 394.87 42.841 399.28 42.841 Q 404.74 42.841 407.435 41.091 A 6.76 6.76 0 0 0 408.942 39.789 A 4.992 4.992 0 0 0 410.13 36.471 Q 410.13 34.371 408.625 33.006 Q 407.12 31.641 404.81 30.871 Q 402.5 30.101 398.51 29.121 A 110.759 110.759 0 0 1 394.912 28.206 Q 393.316 27.77 391.949 27.333 A 46.39 46.39 0 0 1 389.445 26.461 Q 385.98 25.131 383.495 22.296 A 9.597 9.597 0 0 1 381.436 18.288 Q 381.01 16.631 381.01 14.631 Q 381.01 10.571 383.215 7.246 A 13.281 13.281 0 0 1 386.734 3.7 A 18.457 18.457 0 0 1 389.865 1.961 Q 393.72 0.261 399.075 0.035 A 39.787 39.787 0 0 1 400.75 0.001 Q 405.23 0.001 409.57 1.121 Q 413.91 2.241 417.06 4.341 L 414.19 11.411 Q 410.97 9.521 407.47 8.541 A 26.36 26.36 0 0 0 402.757 7.656 A 22.841 22.841 0 0 0 400.68 7.561 A 25.586 25.586 0 0 0 397.867 7.705 Q 394.881 8.036 393.054 9.13 A 6.937 6.937 0 0 0 392.665 9.381 A 6.561 6.561 0 0 0 391.065 10.913 A 5.475 5.475 0 0 0 390.04 14.211 A 4.77 4.77 0 0 0 390.349 15.956 A 4.328 4.328 0 0 0 391.545 17.641 A 9.588 9.588 0 0 0 393.493 18.96 A 12.947 12.947 0 0 0 395.36 19.741 Q 397.67 20.511 401.66 21.491 A 95.863 95.863 0 0 1 405.331 22.41 Q 408.378 23.241 410.62 24.116 Q 414.12 25.481 416.605 28.281 A 9.458 9.458 0 0 1 418.68 32.297 Q 419.09 33.907 419.09 35.841 Q 419.09 39.901 416.885 43.191 A 13.168 13.168 0 0 1 413.492 46.609 A 18.63 18.63 0 0 1 410.2 48.441 A 21.846 21.846 0 0 1 405.569 49.848 Q 403.418 50.262 400.956 50.366 A 39.831 39.831 0 0 1 399.28 50.401 Q 393.61 50.401 388.325 48.791 Q 384.124 47.511 381.316 45.568 A 16.023 16.023 0 0 1 379.96 44.521 Z M 515.62 44.521 L 518.77 37.451 A 21.952 21.952 0 0 0 522.588 39.851 A 29.282 29.282 0 0 0 526.155 41.336 Q 530.53 42.841 534.94 42.841 Q 540.4 42.841 543.095 41.091 A 6.76 6.76 0 0 0 544.602 39.789 A 4.992 4.992 0 0 0 545.79 36.471 Q 545.79 34.371 544.285 33.006 Q 542.78 31.641 540.47 30.871 Q 538.16 30.101 534.17 29.121 A 110.759 110.759 0 0 1 530.572 28.206 Q 528.976 27.77 527.609 27.333 A 46.39 46.39 0 0 1 525.105 26.461 Q 521.64 25.131 519.155 22.296 A 9.597 9.597 0 0 1 517.096 18.288 Q 516.67 16.631 516.67 14.631 Q 516.67 10.571 518.875 7.246 A 13.281 13.281 0 0 1 522.394 3.7 A 18.457 18.457 0 0 1 525.525 1.961 Q 529.38 0.261 534.735 0.035 A 39.787 39.787 0 0 1 536.41 0.001 Q 540.89 0.001 545.23 1.121 Q 549.57 2.241 552.72 4.341 L 549.85 11.411 Q 546.63 9.521 543.13 8.541 A 26.36 26.36 0 0 0 538.417 7.656 A 22.841 22.841 0 0 0 536.34 7.561 A 25.586 25.586 0 0 0 533.527 7.705 Q 530.541 8.036 528.714 9.13 A 6.937 6.937 0 0 0 528.325 9.381 A 6.561 6.561 0 0 0 526.725 10.913 A 5.475 5.475 0 0 0 525.7 14.211 A 4.77 4.77 0 0 0 526.009 15.956 A 4.328 4.328 0 0 0 527.205 17.641 A 9.588 9.588 0 0 0 529.153 18.96 A 12.947 12.947 0 0 0 531.02 19.741 Q 533.33 20.511 537.32 21.491 A 95.863 95.863 0 0 1 540.991 22.41 Q 544.038 23.241 546.28 24.116 Q 549.78 25.481 552.265 28.281 A 9.458 9.458 0 0 1 554.34 32.297 Q 554.75 33.907 554.75 35.841 Q 554.75 39.901 552.545 43.191 A 13.168 13.168 0 0 1 549.152 46.609 A 18.63 18.63 0 0 1 545.86 48.441 A 21.846 21.846 0 0 1 541.229 49.848 Q 539.078 50.262 536.616 50.366 A 39.831 39.831 0 0 1 534.94 50.401 Q 529.27 50.401 523.985 48.791 Q 519.784 47.511 516.976 45.568 A 16.023 16.023 0 0 1 515.62 44.521 Z M 755.09 44.521 L 758.24 37.451 A 21.952 21.952 0 0 0 762.058 39.851 A 29.282 29.282 0 0 0 765.625 41.336 Q 770 42.841 774.41 42.841 Q 779.87 42.841 782.565 41.091 A 6.76 6.76 0 0 0 784.072 39.789 A 4.992 4.992 0 0 0 785.26 36.471 Q 785.26 34.371 783.755 33.006 Q 782.25 31.641 779.94 30.871 Q 777.63 30.101 773.64 29.121 A 110.759 110.759 0 0 1 770.042 28.206 Q 768.446 27.77 767.079 27.333 A 46.39 46.39 0 0 1 764.575 26.461 Q 761.11 25.131 758.625 22.296 A 9.597 9.597 0 0 1 756.566 18.288 Q 756.14 16.631 756.14 14.631 Q 756.14 10.571 758.345 7.246 A 13.281 13.281 0 0 1 761.864 3.7 A 18.457 18.457 0 0 1 764.995 1.961 Q 768.85 0.261 774.205 0.035 A 39.787 39.787 0 0 1 775.88 0.001 Q 780.36 0.001 784.7 1.121 Q 789.04 2.241 792.19 4.341 L 789.32 11.411 Q 786.1 9.521 782.6 8.541 A 26.36 26.36 0 0 0 777.887 7.656 A 22.841 22.841 0 0 0 775.81 7.561 A 25.586 25.586 0 0 0 772.997 7.705 Q 770.011 8.036 768.184 9.13 A 6.937 6.937 0 0 0 767.795 9.381 A 6.561 6.561 0 0 0 766.195 10.913 A 5.475 5.475 0 0 0 765.17 14.211 A 4.77 4.77 0 0 0 765.479 15.956 A 4.328 4.328 0 0 0 766.675 17.641 A 9.588 9.588 0 0 0 768.623 18.96 A 12.947 12.947 0 0 0 770.49 19.741 Q 772.8 20.511 776.79 21.491 A 95.863 95.863 0 0 1 780.461 22.41 Q 783.508 23.241 785.75 24.116 Q 789.25 25.481 791.735 28.281 A 9.458 9.458 0 0 1 793.81 32.297 Q 794.22 33.907 794.22 35.841 Q 794.22 39.901 792.015 43.191 A 13.168 13.168 0 0 1 788.622 46.609 A 18.63 18.63 0 0 1 785.33 48.441 A 21.846 21.846 0 0 1 780.699 49.848 Q 778.548 50.262 776.086 50.366 A 39.831 39.831 0 0 1 774.41 50.401 Q 768.74 50.401 763.455 48.791 Q 759.254 47.511 756.446 45.568 A 16.023 16.023 0 0 1 755.09 44.521 Z M 174.3 28.351 L 174.3 0.701 L 183.4 0.701 L 183.4 28.001 A 24.272 24.272 0 0 0 183.954 33.443 Q 186.028 42.421 195.86 42.421 A 15.11 15.11 0 0 0 201.116 41.582 Q 207.78 39.116 208.219 29.407 A 31.131 31.131 0 0 0 208.25 28.001 L 208.25 0.701 L 217.21 0.701 L 217.21 28.351 A 32.149 32.149 0 0 1 216.603 34.802 Q 215.361 40.863 211.575 44.696 A 18.454 18.454 0 0 1 202.768 49.598 Q 199.819 50.344 196.322 50.397 A 35.487 35.487 0 0 1 195.79 50.401 A 29.028 29.028 0 0 1 189.341 49.727 Q 183.691 48.44 179.97 44.696 A 18.428 18.428 0 0 1 175.385 36.716 Q 174.537 33.817 174.352 30.342 A 37.373 37.373 0 0 1 174.3 28.351 Z M 563.36 28.351 L 563.36 0.701 L 572.46 0.701 L 572.46 28.001 A 24.272 24.272 0 0 0 573.014 33.443 Q 575.088 42.421 584.92 42.421 A 15.11 15.11 0 0 0 590.176 41.582 Q 596.84 39.116 597.279 29.407 A 31.131 31.131 0 0 0 597.31 28.001 L 597.31 0.701 L 606.27 0.701 L 606.27 28.351 A 32.149 32.149 0 0 1 605.663 34.802 Q 604.421 40.863 600.635 44.696 A 18.454 18.454 0 0 1 591.828 49.598 Q 588.879 50.344 585.382 50.397 A 35.487 35.487 0 0 1 584.85 50.401 A 29.028 29.028 0 0 1 578.401 49.727 Q 572.751 48.44 569.03 44.696 A 18.428 18.428 0 0 1 564.445 36.716 Q 563.597 33.817 563.412 30.342 A 37.373 37.373 0 0 1 563.36 28.351 Z M 166.32 8.191 L 160.44 13.721 A 17.599 17.599 0 0 0 153.68 9.079 A 17.887 17.887 0 0 0 147.35 7.981 A 19.732 19.732 0 0 0 141.873 8.718 A 17.082 17.082 0 0 0 138.32 10.186 Q 134.33 12.391 132.09 16.311 A 17.108 17.108 0 0 0 129.916 23.523 A 20.93 20.93 0 0 0 129.85 25.201 A 18.875 18.875 0 0 0 130.599 30.596 A 16.457 16.457 0 0 0 132.09 34.091 Q 134.33 38.011 138.32 40.216 Q 142.31 42.421 147.35 42.421 A 16.969 16.969 0 0 0 159.893 37.186 A 21.125 21.125 0 0 0 160.44 36.611 L 166.32 42.211 Q 162.89 46.201 157.885 48.301 Q 152.88 50.401 146.86 50.401 A 29.114 29.114 0 0 1 138.146 49.129 A 25.988 25.988 0 0 1 133.455 47.146 Q 127.47 43.891 124.075 38.151 A 24.562 24.562 0 0 1 120.721 26.76 A 29.645 29.645 0 0 1 120.68 25.201 Q 120.68 17.991 124.11 12.251 Q 127.54 6.511 133.525 3.256 A 27.024 27.024 0 0 1 144.872 0.065 A 32.522 32.522 0 0 1 146.93 0.001 A 30.038 30.038 0 0 1 153.709 0.741 A 25.61 25.61 0 0 1 157.92 2.101 Q 162.89 4.201 166.32 8.191 Z M 483.14 0.701 L 492.24 0.701 L 470.89 49.701 L 461.93 49.701 L 440.51 0.701 L 450.38 0.701 L 466.69 38.501 L 483.14 0.701 Z M 271.81 49.701 L 262.01 49.701 L 252 35.351 Q 251.518 35.404 250.666 35.417 A 37.811 37.811 0 0 1 250.11 35.421 L 239.05 35.421 L 239.05 49.701 L 229.95 49.701 L 229.95 0.701 L 250.11 0.701 Q 256.48 0.701 261.205 2.801 A 17.655 17.655 0 0 1 265.589 5.534 A 15.073 15.073 0 0 1 268.45 8.821 A 15.759 15.759 0 0 1 270.759 15.137 A 20.609 20.609 0 0 1 270.97 18.131 A 19.016 19.016 0 0 1 270.378 22.977 A 15.171 15.171 0 0 1 268.275 27.651 A 15.382 15.382 0 0 1 262.562 32.683 A 19.673 19.673 0 0 1 260.54 33.601 L 271.81 49.701 Z M 654.64 49.701 L 649.74 38.361 L 625.24 38.361 L 620.41 49.701 L 611.03 49.701 L 633.08 0.701 L 642.04 0.701 L 664.16 49.701 L 654.64 49.701 Z M 0 49.701 L 0 0.701 L 21.42 0.701 A 34.455 34.455 0 0 1 29.04 1.51 A 27.745 27.745 0 0 1 35.35 3.746 Q 41.44 6.791 44.8 12.356 A 23.386 23.386 0 0 1 47.999 22.098 A 29.305 29.305 0 0 1 48.16 25.201 A 26.767 26.767 0 0 1 47.212 32.452 A 22.535 22.535 0 0 1 44.8 38.046 Q 41.44 43.611 35.35 46.656 A 28.725 28.725 0 0 1 26.149 49.403 A 36.538 36.538 0 0 1 21.42 49.701 L 0 49.701 Z M 670.39 49.701 L 670.39 0.701 L 679.49 0.701 L 679.49 42.001 L 705.11 42.001 L 705.11 49.701 L 670.39 49.701 Z M 339.457 49.192 A 29.651 29.651 0 0 0 348.04 50.401 A 32.971 32.971 0 0 0 350.352 50.321 A 27.274 27.274 0 0 0 361.55 47.146 Q 367.57 43.891 371 38.151 Q 374.43 32.411 374.43 25.201 Q 374.43 17.991 371 12.251 Q 367.57 6.511 361.55 3.256 A 26.198 26.198 0 0 0 356.623 1.209 A 29.651 29.651 0 0 0 348.04 0.001 A 32.971 32.971 0 0 0 345.728 0.081 A 27.274 27.274 0 0 0 334.53 3.256 Q 328.51 6.511 325.08 12.286 A 24.085 24.085 0 0 0 323.327 15.883 A 25.55 25.55 0 0 0 321.65 25.201 A 29.335 29.335 0 0 0 321.658 25.867 A 24.663 24.663 0 0 0 325.08 38.116 Q 328.51 43.891 334.53 47.146 A 26.198 26.198 0 0 0 339.457 49.192 Z M 57.82 49.701 L 57.82 0.701 L 66.92 0.701 L 66.92 49.701 L 57.82 49.701 Z M 497.42 49.701 L 497.42 0.701 L 506.52 0.701 L 506.52 49.701 L 497.42 49.701 Z M 9.1 42.001 L 21 42.001 A 23.897 23.897 0 0 0 25.918 41.516 A 18.571 18.571 0 0 0 30.485 39.936 Q 34.58 37.871 36.785 34.056 A 16.375 16.375 0 0 0 38.816 27.939 A 20.901 20.901 0 0 0 38.99 25.201 A 19.54 19.54 0 0 0 38.439 20.467 A 15.836 15.836 0 0 0 36.785 16.346 Q 34.58 12.531 30.485 10.466 A 19.046 19.046 0 0 0 24.707 8.667 A 24.865 24.865 0 0 0 21 8.401 L 9.1 8.401 L 9.1 42.001 Z M 348.04 42.421 A 18.713 18.713 0 0 0 353.648 41.602 A 16.667 16.667 0 0 0 356.86 40.216 Q 360.78 38.011 363.02 34.056 A 17.403 17.403 0 0 0 365.237 26.186 A 20.833 20.833 0 0 0 365.26 25.201 A 18.445 18.445 0 0 0 364.318 19.243 A 16.817 16.817 0 0 0 363.02 16.346 Q 360.78 12.391 356.86 10.186 A 17.306 17.306 0 0 0 349.399 8.024 A 20.909 20.909 0 0 0 348.04 7.981 A 18.713 18.713 0 0 0 342.432 8.799 A 16.667 16.667 0 0 0 339.22 10.186 Q 335.3 12.391 333.06 16.346 A 17.403 17.403 0 0 0 330.843 24.215 A 20.833 20.833 0 0 0 330.82 25.201 A 18.445 18.445 0 0 0 331.762 31.158 A 16.817 16.817 0 0 0 333.06 34.056 Q 335.3 38.011 339.22 40.216 A 17.306 17.306 0 0 0 346.681 42.377 A 20.909 20.909 0 0 0 348.04 42.421 Z M 249.69 8.401 L 239.05 8.401 L 239.05 27.931 L 249.69 27.931 A 22.145 22.145 0 0 0 253.089 27.687 Q 254.84 27.415 256.247 26.837 A 9.479 9.479 0 0 0 258.72 25.376 A 8.317 8.317 0 0 0 261.642 20.146 A 12.312 12.312 0 0 0 261.8 18.131 A 11.427 11.427 0 0 0 261.436 15.163 A 8.028 8.028 0 0 0 258.72 10.921 A 9.922 9.922 0 0 0 255.509 9.209 Q 253.06 8.401 249.69 8.401 Z M 628.32 31.221 L 646.73 31.221 L 637.49 9.801 L 628.32 31.221 Z" vector-effect="non-scaling-stroke"/>
</g>
</svg>