<svg width="315.481" height="43.201" viewBox="0 0 315.481 43.201" xmlns="http://www.w3.org/2000/svg">
<g id="svgGroup" stroke-linecap="round" fill-rule="evenodd" font-size="9pt" stroke="#000" stroke-width="0.25mm" fill="black" style="stroke:#000;stroke-width:0.25mm;fill:black">
<path d="M 189.12 36.061 L 212.82 36.061 L 212.82 42.601 L 181.32 42.601 L 181.32 0.601 L 211.98 0.601 L 211.98 7.141 L 189.12 7.141 L 189.12 18.061 L 209.4 18.061 L 209.4 24.481 L 189.12 24.481 L 189.12 36.061 Z M 0 38.161 L 2.7 32.101 A 18.816 18.816 0 0 0 5.973 34.158 A 25.099 25.099 0 0 0 9.03 35.431 Q 12.78 36.721 16.56 36.721 A 23.464 23.464 0 0 0 19.005 36.602 Q 21.577 36.332 23.176 35.445 A 6.267 6.267 0 0 0 23.55 35.221 A 5.794 5.794 0 0 0 24.841 34.104 A 4.279 4.279 0 0 0 25.86 31.261 A 4.098 4.098 0 0 0 25.557 29.665 A 3.85 3.85 0 0 0 24.57 28.291 A 8.111 8.111 0 0 0 22.795 27.081 A 10.799 10.799 0 0 0 21.3 26.461 A 41.402 41.402 0 0 0 19.922 26.031 Q 18.362 25.571 16.209 25.037 A 142.96 142.96 0 0 0 15.9 24.961 Q 12.675 24.195 10.276 23.429 A 39.763 39.763 0 0 1 8.13 22.681 Q 5.16 21.541 3.03 19.111 A 8.226 8.226 0 0 1 1.265 15.676 Q 0.946 14.432 0.906 12.965 A 15.587 15.587 0 0 1 0.9 12.541 Q 0.9 9.061 2.79 6.211 A 11.384 11.384 0 0 1 5.806 3.172 A 15.82 15.82 0 0 1 8.49 1.681 Q 12.3 0.001 17.82 0.001 Q 21.66 0.001 25.38 0.961 A 23.755 23.755 0 0 1 28.945 2.174 A 18.38 18.38 0 0 1 31.8 3.721 L 29.34 9.781 Q 26.58 8.161 23.58 7.321 A 22.594 22.594 0 0 0 19.54 6.563 A 19.578 19.578 0 0 0 17.76 6.481 Q 13.14 6.481 10.89 8.041 Q 8.64 9.601 8.64 12.181 A 4.088 4.088 0 0 0 8.905 13.676 A 3.71 3.71 0 0 0 9.93 15.121 A 8.218 8.218 0 0 0 11.6 16.251 A 11.097 11.097 0 0 0 13.2 16.921 A 41.402 41.402 0 0 0 14.578 17.351 Q 16.138 17.81 18.291 18.344 A 142.96 142.96 0 0 0 18.6 18.421 A 82.169 82.169 0 0 1 21.747 19.208 Q 23.216 19.609 24.466 20.022 A 36.268 36.268 0 0 1 26.28 20.671 Q 29.28 21.841 31.41 24.241 Q 33.432 26.519 33.535 30.311 A 15.149 15.149 0 0 1 33.54 30.721 Q 33.54 34.201 31.65 37.021 A 11.287 11.287 0 0 1 28.742 39.951 A 15.968 15.968 0 0 1 25.92 41.521 Q 22.59 42.977 17.997 43.171 A 34.141 34.141 0 0 1 16.56 43.201 Q 11.7 43.201 7.17 41.821 A 26.428 26.428 0 0 1 4.038 40.659 Q 2.434 39.938 1.162 39.058 A 13.734 13.734 0 0 1 0 38.161 Z M 173.34 42.601 L 164.94 42.601 L 156.36 30.301 A 6.977 6.977 0 0 1 156.056 30.327 Q 155.708 30.35 155.217 30.357 A 32.409 32.409 0 0 1 154.74 30.361 L 145.26 30.361 L 145.26 42.601 L 137.46 42.601 L 137.46 0.601 L 154.74 0.601 A 27.932 27.932 0 0 1 159.399 0.97 A 20.191 20.191 0 0 1 164.25 2.401 Q 168.3 4.201 170.46 7.561 A 13.508 13.508 0 0 1 172.44 12.975 A 17.665 17.665 0 0 1 172.62 15.541 A 16.299 16.299 0 0 1 172.112 19.694 A 13.004 13.004 0 0 1 170.31 23.701 Q 168 27.121 163.68 28.801 L 173.34 42.601 Z M 112.68 42.601 L 91.8 42.601 L 91.8 0.601 L 111.48 0.601 A 30.617 30.617 0 0 1 115.796 0.885 Q 117.986 1.197 119.772 1.854 A 13.04 13.04 0 0 1 122.94 3.511 A 9.204 9.204 0 0 1 126.881 10.13 A 11.869 11.869 0 0 1 126.96 11.521 A 11.495 11.495 0 0 1 126.542 14.675 A 9.762 9.762 0 0 1 125.52 17.041 Q 124.08 19.441 121.56 20.761 Q 125.04 21.901 127.08 24.571 A 9.79 9.79 0 0 1 128.931 28.907 A 13.35 13.35 0 0 1 129.12 31.201 A 11.332 11.332 0 0 1 128.529 34.945 A 9.471 9.471 0 0 1 124.92 39.631 Q 120.72 42.601 112.68 42.601 Z M 238.08 42.601 L 238.08 0.601 L 245.88 0.601 L 245.88 36.001 L 267.84 36.001 L 267.84 42.601 L 238.08 42.601 Z M 53.544 42.165 A 25.415 25.415 0 0 0 60.9 43.201 A 28.261 28.261 0 0 0 62.882 43.132 A 23.378 23.378 0 0 0 72.48 40.411 Q 77.64 37.621 80.58 32.701 A 20.256 20.256 0 0 0 82.372 28.833 A 22.278 22.278 0 0 0 83.52 21.601 A 25.237 25.237 0 0 0 83.492 20.406 A 20.928 20.928 0 0 0 80.58 10.501 Q 77.64 5.581 72.48 2.791 A 22.455 22.455 0 0 0 68.256 1.037 A 25.415 25.415 0 0 0 60.9 0.001 A 28.261 28.261 0 0 0 58.918 0.069 A 23.378 23.378 0 0 0 49.32 2.791 Q 44.16 5.581 41.22 10.531 Q 38.28 15.481 38.28 21.601 Q 38.28 27.721 41.22 32.671 Q 44.16 37.621 49.32 40.411 A 22.455 22.455 0 0 0 53.544 42.165 Z M 285.504 42.165 A 25.415 25.415 0 0 0 292.86 43.201 A 28.261 28.261 0 0 0 294.842 43.132 A 23.378 23.378 0 0 0 304.44 40.411 Q 309.6 37.621 312.54 32.701 A 20.256 20.256 0 0 0 314.332 28.833 A 22.278 22.278 0 0 0 315.48 21.601 A 25.237 25.237 0 0 0 315.452 20.406 A 20.928 20.928 0 0 0 312.54 10.501 Q 309.6 5.581 304.44 2.791 A 22.455 22.455 0 0 0 300.216 1.037 A 25.415 25.415 0 0 0 292.86 0.001 A 28.261 28.261 0 0 0 290.878 0.069 A 23.378 23.378 0 0 0 281.28 2.791 Q 276.12 5.581 273.18 10.531 Q 270.24 15.481 270.24 21.601 Q 270.24 27.721 273.18 32.671 Q 276.12 37.621 281.28 40.411 A 22.455 22.455 0 0 0 285.504 42.165 Z M 60.9 36.361 A 16.04 16.04 0 0 0 65.707 35.659 A 14.286 14.286 0 0 0 68.46 34.471 Q 71.82 32.581 73.74 29.191 A 14.917 14.917 0 0 0 75.64 22.445 A 17.857 17.857 0 0 0 75.66 21.601 A 15.81 15.81 0 0 0 74.853 16.494 A 14.415 14.415 0 0 0 73.74 14.011 Q 71.82 10.621 68.46 8.731 A 14.833 14.833 0 0 0 62.065 6.878 A 17.922 17.922 0 0 0 60.9 6.841 A 16.04 16.04 0 0 0 56.093 7.542 A 14.286 14.286 0 0 0 53.34 8.731 Q 49.98 10.621 48.06 14.011 A 14.917 14.917 0 0 0 46.16 20.756 A 17.857 17.857 0 0 0 46.14 21.601 A 15.81 15.81 0 0 0 46.947 26.707 A 14.415 14.415 0 0 0 48.06 29.191 Q 49.98 32.581 53.34 34.471 A 14.833 14.833 0 0 0 59.735 36.323 A 17.922 17.922 0 0 0 60.9 36.361 Z M 292.86 36.361 A 16.04 16.04 0 0 0 297.667 35.659 A 14.286 14.286 0 0 0 300.42 34.471 Q 303.78 32.581 305.7 29.191 A 14.917 14.917 0 0 0 307.6 22.445 A 17.857 17.857 0 0 0 307.62 21.601 A 15.81 15.81 0 0 0 306.813 16.494 A 14.415 14.415 0 0 0 305.7 14.011 Q 303.78 10.621 300.42 8.731 A 14.833 14.833 0 0 0 294.025 6.878 A 17.922 17.922 0 0 0 292.86 6.841 A 16.04 16.04 0 0 0 288.053 7.542 A 14.286 14.286 0 0 0 285.3 8.731 Q 281.94 10.621 280.02 14.011 A 14.917 14.917 0 0 0 278.12 20.756 A 17.857 17.857 0 0 0 278.1 21.601 A 15.81 15.81 0 0 0 278.907 26.707 A 14.415 14.415 0 0 0 280.02 29.191 Q 281.94 32.581 285.3 34.471 A 14.833 14.833 0 0 0 291.695 36.323 A 17.922 17.922 0 0 0 292.86 36.361 Z M 154.38 7.201 L 145.26 7.201 L 145.26 23.941 L 154.38 23.941 A 18.981 18.981 0 0 0 157.293 23.732 Q 160.295 23.265 162.12 21.751 A 7.129 7.129 0 0 0 164.624 17.268 A 10.553 10.553 0 0 0 164.76 15.541 A 9.794 9.794 0 0 0 164.448 12.997 A 6.881 6.881 0 0 0 162.12 9.361 A 8.505 8.505 0 0 0 159.368 7.894 Q 158.138 7.488 156.637 7.319 A 20.307 20.307 0 0 0 154.38 7.201 Z M 112.2 24.361 L 99.6 24.361 L 99.6 36.481 L 112.2 36.481 A 20.04 20.04 0 0 0 115.393 36.249 Q 121.017 35.336 121.25 30.817 A 7.717 7.717 0 0 0 121.26 30.421 A 5.571 5.571 0 0 0 120.397 27.258 Q 118.464 24.361 112.2 24.361 Z M 110.64 6.721 L 99.6 6.721 L 99.6 18.301 L 110.64 18.301 A 18.197 18.197 0 0 0 112.992 18.159 Q 115.4 17.844 116.91 16.831 Q 119.1 15.361 119.1 12.541 A 5.985 5.985 0 0 0 118.823 10.671 A 4.685 4.685 0 0 0 116.91 8.191 A 7.503 7.503 0 0 0 114.911 7.266 Q 113.126 6.721 110.64 6.721 Z" vector-effect="non-scaling-stroke"/>
</g>
</svg>