<svg width="81.04" height="7.12" viewBox="0 0 81.04 7.12" xmlns="http://www.w3.org/2000/svg">
<g id="svgGroup" stroke-linecap="round" fill-rule="evenodd" font-size="9pt" stroke="#fff" stroke-width="0.25mm" fill="white" style="stroke:#fff;stroke-width:0.25mm;fill:white">
<path d="M 71.3 0.06 L 72.03 0.06 L 72.03 7.06 L 71.42 7.06 L 66.92 1.38 L 66.92 7.06 L 66.18 7.06 L 66.18 0.06 L 66.79 0.06 L 71.3 5.74 L 71.3 0.06 Z M 38.06 6.42 L 42.27 6.42 L 42.27 7.06 L 37.32 7.06 L 37.32 0.06 L 42.12 0.06 L 42.12 0.7 L 38.06 0.7 L 38.06 3.19 L 41.68 3.19 L 41.68 3.82 L 38.06 3.82 L 38.06 6.42 Z M 51.18 4.07 L 51.18 0.06 L 51.92 0.06 L 51.92 4.04 A 4.312 4.312 0 0 0 51.968 4.71 Q 52.083 5.438 52.47 5.86 Q 53.02 6.46 54.06 6.46 A 2.929 2.929 0 0 0 54.695 6.396 Q 55.29 6.263 55.66 5.86 A 1.867 1.867 0 0 0 56.041 5.203 Q 56.14 4.918 56.181 4.568 A 4.539 4.539 0 0 0 56.21 4.04 L 56.21 0.06 L 56.93 0.06 L 56.93 4.07 Q 56.93 5.112 56.561 5.807 A 2.342 2.342 0 0 1 56.175 6.34 A 2.47 2.47 0 0 1 54.959 7.019 Q 54.574 7.114 54.121 7.12 A 4.671 4.671 0 0 1 54.06 7.12 A 3.815 3.815 0 0 1 53.196 7.028 Q 52.439 6.852 51.94 6.34 A 2.498 2.498 0 0 1 51.35 5.32 Q 51.18 4.774 51.18 4.07 Z M 13.09 0.7 L 9.03 0.7 L 9.03 3.45 L 12.65 3.45 L 12.65 4.09 L 9.03 4.09 L 9.03 7.06 L 8.29 7.06 L 8.29 0.06 L 13.09 0.06 L 13.09 0.7 Z M 20.21 7.06 L 19.4 7.06 L 17.8 4.81 Q 17.53 4.84 17.24 4.84 L 15.36 4.84 L 15.36 7.06 L 14.62 7.06 L 14.62 0.06 L 17.24 0.06 Q 18.246 0.06 18.926 0.421 A 2.361 2.361 0 0 1 19.34 0.7 A 2.095 2.095 0 0 1 20.081 2.122 A 2.996 2.996 0 0 1 20.1 2.46 Q 20.1 3.28 19.685 3.845 A 2.159 2.159 0 0 1 18.889 4.502 A 2.858 2.858 0 0 1 18.5 4.66 L 20.21 7.06 Z M 49.6 7.06 L 48.79 7.06 L 47.19 4.81 Q 46.92 4.84 46.63 4.84 L 44.75 4.84 L 44.75 7.06 L 44.01 7.06 L 44.01 0.06 L 46.63 0.06 Q 47.636 0.06 48.316 0.421 A 2.361 2.361 0 0 1 48.73 0.7 A 2.095 2.095 0 0 1 49.471 2.122 A 2.996 2.996 0 0 1 49.49 2.46 Q 49.49 3.28 49.075 3.845 A 2.159 2.159 0 0 1 48.279 4.502 A 2.858 2.858 0 0 1 47.89 4.66 L 49.6 7.06 Z M 6.35 7.06 L 5.51 5.19 L 1.61 5.19 L 0.77 7.06 L 0 7.06 L 3.2 0.06 L 3.93 0.06 L 7.13 7.06 L 6.35 7.06 Z M 64.24 7.06 L 63.4 5.19 L 59.5 5.19 L 58.66 7.06 L 57.89 7.06 L 61.09 0.06 L 61.82 0.06 L 65.02 7.06 L 64.24 7.06 Z M 32.86 4.85 L 30.98 4.85 L 30.98 7.06 L 30.24 7.06 L 30.24 0.06 L 32.86 0.06 Q 33.866 0.06 34.546 0.421 A 2.361 2.361 0 0 1 34.96 0.7 A 2.095 2.095 0 0 1 35.701 2.122 A 2.996 2.996 0 0 1 35.72 2.46 A 2.647 2.647 0 0 1 35.613 3.231 A 2.022 2.022 0 0 1 34.96 4.215 Q 34.298 4.768 33.195 4.84 A 5.204 5.204 0 0 1 32.86 4.85 Z M 23.629 6.92 A 4.012 4.012 0 0 0 24.91 7.12 A 4.498 4.498 0 0 0 25.23 7.109 A 3.732 3.732 0 0 0 26.785 6.66 Q 27.62 6.2 28.1 5.385 A 3.403 3.403 0 0 0 28.363 4.829 A 3.656 3.656 0 0 0 28.58 3.56 Q 28.58 2.55 28.1 1.735 Q 27.62 0.92 26.785 0.46 A 3.595 3.595 0 0 0 26.101 0.171 A 4.047 4.047 0 0 0 24.91 0 A 4.515 4.515 0 0 0 24.685 0.006 A 3.787 3.787 0 0 0 23.025 0.465 Q 22.18 0.93 21.705 1.74 Q 21.23 2.55 21.23 3.56 A 4.18 4.18 0 0 0 21.234 3.748 A 3.485 3.485 0 0 0 21.705 5.38 Q 22.18 6.19 23.025 6.655 A 3.657 3.657 0 0 0 23.629 6.92 Z M 76.089 6.92 A 4.012 4.012 0 0 0 77.37 7.12 A 4.498 4.498 0 0 0 77.69 7.109 A 3.732 3.732 0 0 0 79.245 6.66 Q 80.08 6.2 80.56 5.385 A 3.403 3.403 0 0 0 80.823 4.829 A 3.656 3.656 0 0 0 81.04 3.56 Q 81.04 2.55 80.56 1.735 Q 80.08 0.92 79.245 0.46 A 3.595 3.595 0 0 0 78.561 0.171 A 4.047 4.047 0 0 0 77.37 0 A 4.515 4.515 0 0 0 77.145 0.006 A 3.787 3.787 0 0 0 75.485 0.465 Q 74.64 0.93 74.165 1.74 Q 73.69 2.55 73.69 3.56 A 4.18 4.18 0 0 0 73.694 3.748 A 3.485 3.485 0 0 0 74.165 5.38 Q 74.64 6.19 75.485 6.655 A 3.657 3.657 0 0 0 76.089 6.92 Z M 24.91 6.46 Q 25.74 6.46 26.41 6.085 Q 27.08 5.71 27.46 5.045 Q 27.84 4.38 27.84 3.56 A 3.049 3.049 0 0 0 27.668 2.528 A 2.823 2.823 0 0 0 27.46 2.075 Q 27.08 1.41 26.41 1.035 A 2.966 2.966 0 0 0 25.115 0.666 A 3.548 3.548 0 0 0 24.91 0.66 A 3.174 3.174 0 0 0 23.887 0.822 A 2.909 2.909 0 0 0 23.405 1.035 Q 22.73 1.41 22.345 2.075 A 2.886 2.886 0 0 0 21.962 3.458 A 3.433 3.433 0 0 0 21.96 3.56 A 3.007 3.007 0 0 0 22.142 4.614 A 2.807 2.807 0 0 0 22.345 5.045 Q 22.73 5.71 23.405 6.085 A 3.008 3.008 0 0 0 24.756 6.457 A 3.581 3.581 0 0 0 24.91 6.46 Z M 77.37 6.46 Q 78.2 6.46 78.87 6.085 Q 79.54 5.71 79.92 5.045 Q 80.3 4.38 80.3 3.56 A 3.049 3.049 0 0 0 80.128 2.528 A 2.823 2.823 0 0 0 79.92 2.075 Q 79.54 1.41 78.87 1.035 A 2.966 2.966 0 0 0 77.575 0.666 A 3.548 3.548 0 0 0 77.37 0.66 A 3.174 3.174 0 0 0 76.347 0.822 A 2.909 2.909 0 0 0 75.865 1.035 Q 75.19 1.41 74.805 2.075 A 2.886 2.886 0 0 0 74.422 3.458 A 3.433 3.433 0 0 0 74.42 3.56 A 3.007 3.007 0 0 0 74.602 4.614 A 2.807 2.807 0 0 0 74.805 5.045 Q 75.19 5.71 75.865 6.085 A 3.008 3.008 0 0 0 77.216 6.457 A 3.581 3.581 0 0 0 77.37 6.46 Z M 17.22 0.7 L 15.36 0.7 L 15.36 4.21 L 17.22 4.21 A 3.771 3.771 0 0 0 17.822 4.165 Q 18.141 4.113 18.397 4.002 A 1.691 1.691 0 0 0 18.81 3.75 A 1.501 1.501 0 0 0 19.336 2.788 A 2.193 2.193 0 0 0 19.36 2.46 Q 19.36 1.61 18.81 1.155 A 1.789 1.789 0 0 0 18.211 0.836 Q 17.789 0.7 17.22 0.7 Z M 46.61 0.7 L 44.75 0.7 L 44.75 4.21 L 46.61 4.21 A 3.771 3.771 0 0 0 47.212 4.165 Q 47.531 4.113 47.787 4.002 A 1.691 1.691 0 0 0 48.2 3.75 A 1.501 1.501 0 0 0 48.726 2.788 A 2.193 2.193 0 0 0 48.75 2.46 Q 48.75 1.61 48.2 1.155 A 1.789 1.789 0 0 0 47.601 0.836 Q 47.179 0.7 46.61 0.7 Z M 32.84 0.7 L 30.98 0.7 L 30.98 4.2 L 32.84 4.2 Q 33.534 4.2 34.009 3.998 A 1.698 1.698 0 0 0 34.43 3.745 A 1.48 1.48 0 0 0 34.954 2.805 A 2.173 2.173 0 0 0 34.98 2.46 Q 34.98 1.61 34.43 1.155 A 1.789 1.789 0 0 0 33.831 0.836 Q 33.409 0.7 32.84 0.7 Z M 1.88 4.59 L 5.24 4.59 L 3.56 0.83 L 1.88 4.59 Z M 59.77 4.59 L 63.13 4.59 L 61.45 0.83 L 59.77 4.59 Z" vector-effect="non-scaling-stroke"/>
</g>
</svg>