<svg width="122.232" height="7.832" viewBox="0 0 122.232 7.832" xmlns="http://www.w3.org/2000/svg">
<g id="svgGroup" stroke-linecap="round" fill-rule="evenodd" font-size="9pt" stroke="#fff" stroke-width="0.25mm" fill="white" style="stroke:#fff;stroke-width:0.25mm;fill:white">
<path d="M 110.693 7.062 L 115.324 7.062 L 115.324 7.766 L 109.879 7.766 L 109.879 0.066 L 115.159 0.066 L 115.159 0.77 L 110.693 0.77 L 110.693 3.509 L 114.675 3.509 L 114.675 4.202 L 110.693 4.202 L 110.693 7.062 Z M 11.671 6.831 L 11.99 6.204 A 2.611 2.611 0 0 0 12.512 6.603 Q 12.76 6.75 13.061 6.865 A 4.397 4.397 0 0 0 13.101 6.881 Q 13.794 7.139 14.531 7.139 Q 15.565 7.139 16.082 6.76 A 1.347 1.347 0 0 0 16.407 6.429 A 1.142 1.142 0 0 0 16.599 5.775 A 1.232 1.232 0 0 0 16.56 5.455 A 0.898 0.898 0 0 0 16.318 5.038 A 1.834 1.834 0 0 0 15.791 4.68 A 2.2 2.2 0 0 0 15.631 4.615 A 6.165 6.165 0 0 0 15.345 4.519 Q 14.997 4.411 14.498 4.29 A 18.938 18.938 0 0 1 13.989 4.154 Q 13.484 4.011 13.135 3.876 A 5.536 5.536 0 0 1 13.112 3.867 Q 12.595 3.663 12.227 3.245 A 1.409 1.409 0 0 1 11.924 2.663 Q 11.858 2.414 11.858 2.112 Q 11.858 1.529 12.166 1.051 A 1.86 1.86 0 0 1 12.648 0.55 A 2.616 2.616 0 0 1 13.112 0.286 A 3.021 3.021 0 0 1 13.753 0.086 Q 14.059 0.024 14.412 0.007 A 5.805 5.805 0 0 1 14.696 0 Q 15.356 0 15.989 0.182 A 4.173 4.173 0 0 1 16.612 0.413 A 3.282 3.282 0 0 1 17.083 0.682 L 16.808 1.331 Q 16.324 1.012 15.774 0.853 A 3.979 3.979 0 0 0 14.961 0.703 A 3.559 3.559 0 0 0 14.696 0.693 Q 14.068 0.693 13.632 0.844 A 1.628 1.628 0 0 0 13.172 1.084 A 1.361 1.361 0 0 0 12.841 1.438 A 1.197 1.197 0 0 0 12.661 2.09 A 1.234 1.234 0 0 0 12.703 2.42 A 0.92 0.92 0 0 0 12.942 2.833 A 1.741 1.741 0 0 0 13.419 3.168 A 2.159 2.159 0 0 0 13.645 3.262 Q 14.05 3.403 14.719 3.57 A 24.529 24.529 0 0 0 14.784 3.586 Q 15.353 3.727 15.776 3.864 A 7.21 7.21 0 0 1 16.154 3.999 Q 16.676 4.202 17.039 4.615 Q 17.383 5.006 17.401 5.659 A 2.645 2.645 0 0 1 17.402 5.731 Q 17.402 6.314 17.089 6.793 A 1.85 1.85 0 0 1 16.598 7.291 A 2.628 2.628 0 0 1 16.126 7.552 A 3.176 3.176 0 0 1 15.465 7.751 Q 15.041 7.832 14.531 7.832 Q 13.673 7.832 12.887 7.557 A 4.051 4.051 0 0 1 12.347 7.326 Q 11.939 7.113 11.671 6.831 Z M 42.988 6.831 L 43.307 6.204 A 2.611 2.611 0 0 0 43.829 6.603 Q 44.077 6.75 44.378 6.865 A 4.397 4.397 0 0 0 44.418 6.881 Q 45.111 7.139 45.848 7.139 Q 46.882 7.139 47.399 6.76 A 1.347 1.347 0 0 0 47.724 6.429 A 1.142 1.142 0 0 0 47.916 5.775 A 1.232 1.232 0 0 0 47.877 5.455 A 0.898 0.898 0 0 0 47.635 5.038 A 1.834 1.834 0 0 0 47.108 4.68 A 2.2 2.2 0 0 0 46.948 4.615 A 6.165 6.165 0 0 0 46.662 4.519 Q 46.314 4.411 45.815 4.29 A 18.938 18.938 0 0 1 45.306 4.154 Q 44.801 4.011 44.452 3.876 A 5.536 5.536 0 0 1 44.429 3.867 Q 43.912 3.663 43.543 3.245 A 1.409 1.409 0 0 1 43.241 2.663 Q 43.175 2.414 43.175 2.112 Q 43.175 1.529 43.483 1.051 A 1.86 1.86 0 0 1 43.965 0.55 A 2.616 2.616 0 0 1 44.429 0.286 A 3.021 3.021 0 0 1 45.07 0.086 Q 45.376 0.024 45.729 0.007 A 5.805 5.805 0 0 1 46.013 0 Q 46.673 0 47.305 0.182 A 4.173 4.173 0 0 1 47.929 0.413 A 3.282 3.282 0 0 1 48.4 0.682 L 48.125 1.331 Q 47.641 1.012 47.091 0.853 A 3.979 3.979 0 0 0 46.278 0.703 A 3.559 3.559 0 0 0 46.013 0.693 Q 45.385 0.693 44.949 0.844 A 1.628 1.628 0 0 0 44.489 1.084 A 1.361 1.361 0 0 0 44.158 1.438 A 1.197 1.197 0 0 0 43.978 2.09 A 1.234 1.234 0 0 0 44.02 2.42 A 0.92 0.92 0 0 0 44.259 2.833 A 1.741 1.741 0 0 0 44.736 3.168 A 2.159 2.159 0 0 0 44.962 3.262 Q 45.367 3.403 46.036 3.57 A 24.529 24.529 0 0 0 46.101 3.586 Q 46.67 3.727 47.093 3.864 A 7.21 7.21 0 0 1 47.471 3.999 Q 47.993 4.202 48.356 4.615 Q 48.7 5.006 48.718 5.659 A 2.645 2.645 0 0 1 48.719 5.731 Q 48.719 6.314 48.405 6.793 A 1.85 1.85 0 0 1 47.915 7.291 A 2.628 2.628 0 0 1 47.443 7.552 A 3.176 3.176 0 0 1 46.782 7.751 Q 46.358 7.832 45.848 7.832 Q 44.99 7.832 44.204 7.557 A 4.051 4.051 0 0 1 43.664 7.326 Q 43.256 7.113 42.988 6.831 Z M 58.982 6.831 L 59.301 6.204 A 2.611 2.611 0 0 0 59.823 6.603 Q 60.071 6.75 60.372 6.865 A 4.397 4.397 0 0 0 60.412 6.881 Q 61.105 7.139 61.842 7.139 Q 62.876 7.139 63.393 6.76 A 1.347 1.347 0 0 0 63.718 6.429 A 1.142 1.142 0 0 0 63.91 5.775 A 1.232 1.232 0 0 0 63.871 5.455 A 0.898 0.898 0 0 0 63.629 5.038 A 1.834 1.834 0 0 0 63.102 4.68 A 2.2 2.2 0 0 0 62.942 4.615 A 6.165 6.165 0 0 0 62.656 4.519 Q 62.308 4.411 61.809 4.29 A 18.938 18.938 0 0 1 61.3 4.154 Q 60.795 4.011 60.446 3.876 A 5.536 5.536 0 0 1 60.423 3.867 Q 59.906 3.663 59.537 3.245 A 1.409 1.409 0 0 1 59.235 2.663 Q 59.169 2.414 59.169 2.112 Q 59.169 1.529 59.477 1.051 A 1.86 1.86 0 0 1 59.959 0.55 A 2.616 2.616 0 0 1 60.423 0.286 A 3.021 3.021 0 0 1 61.064 0.086 Q 61.37 0.024 61.723 0.007 A 5.805 5.805 0 0 1 62.007 0 Q 62.667 0 63.3 0.182 A 4.173 4.173 0 0 1 63.923 0.413 A 3.282 3.282 0 0 1 64.394 0.682 L 64.119 1.331 Q 63.635 1.012 63.085 0.853 A 3.979 3.979 0 0 0 62.272 0.703 A 3.559 3.559 0 0 0 62.007 0.693 Q 61.379 0.693 60.943 0.844 A 1.628 1.628 0 0 0 60.483 1.084 A 1.361 1.361 0 0 0 60.152 1.438 A 1.197 1.197 0 0 0 59.972 2.09 A 1.234 1.234 0 0 0 60.014 2.42 A 0.92 0.92 0 0 0 60.253 2.833 A 1.741 1.741 0 0 0 60.73 3.168 A 2.159 2.159 0 0 0 60.956 3.262 Q 61.361 3.403 62.03 3.57 A 24.529 24.529 0 0 0 62.095 3.586 Q 62.664 3.727 63.087 3.864 A 7.21 7.21 0 0 1 63.465 3.999 Q 63.987 4.202 64.35 4.615 Q 64.694 5.006 64.712 5.659 A 2.645 2.645 0 0 1 64.713 5.731 Q 64.713 6.314 64.399 6.793 A 1.85 1.85 0 0 1 63.909 7.291 A 2.628 2.628 0 0 1 63.437 7.552 A 3.176 3.176 0 0 1 62.776 7.751 Q 62.352 7.832 61.842 7.832 Q 60.984 7.832 60.198 7.557 A 4.051 4.051 0 0 1 59.658 7.326 Q 59.25 7.113 58.982 6.831 Z M 79.464 6.831 L 79.783 6.204 A 2.611 2.611 0 0 0 80.305 6.603 Q 80.553 6.75 80.854 6.865 A 4.397 4.397 0 0 0 80.894 6.881 Q 81.587 7.139 82.324 7.139 Q 83.358 7.139 83.875 6.76 A 1.347 1.347 0 0 0 84.2 6.429 A 1.142 1.142 0 0 0 84.392 5.775 A 1.232 1.232 0 0 0 84.353 5.455 A 0.898 0.898 0 0 0 84.111 5.038 A 1.834 1.834 0 0 0 83.584 4.68 A 2.2 2.2 0 0 0 83.424 4.615 A 6.165 6.165 0 0 0 83.138 4.519 Q 82.79 4.411 82.291 4.29 A 18.938 18.938 0 0 1 81.782 4.154 Q 81.277 4.011 80.928 3.876 A 5.536 5.536 0 0 1 80.905 3.867 Q 80.388 3.663 80.02 3.245 A 1.409 1.409 0 0 1 79.717 2.663 Q 79.651 2.414 79.651 2.112 Q 79.651 1.529 79.959 1.051 A 1.86 1.86 0 0 1 80.441 0.55 A 2.616 2.616 0 0 1 80.905 0.286 A 3.021 3.021 0 0 1 81.546 0.086 Q 81.852 0.024 82.205 0.007 A 5.805 5.805 0 0 1 82.489 0 Q 83.149 0 83.782 0.182 A 4.173 4.173 0 0 1 84.405 0.413 A 3.282 3.282 0 0 1 84.876 0.682 L 84.601 1.331 Q 84.117 1.012 83.567 0.853 A 3.979 3.979 0 0 0 82.754 0.703 A 3.559 3.559 0 0 0 82.489 0.693 Q 81.861 0.693 81.425 0.844 A 1.628 1.628 0 0 0 80.965 1.084 A 1.361 1.361 0 0 0 80.634 1.438 A 1.197 1.197 0 0 0 80.454 2.09 A 1.234 1.234 0 0 0 80.496 2.42 A 0.92 0.92 0 0 0 80.735 2.833 A 1.741 1.741 0 0 0 81.212 3.168 A 2.159 2.159 0 0 0 81.438 3.262 Q 81.843 3.403 82.512 3.57 A 24.529 24.529 0 0 0 82.577 3.586 Q 83.146 3.727 83.569 3.864 A 7.21 7.21 0 0 1 83.947 3.999 Q 84.469 4.202 84.832 4.615 Q 85.176 5.006 85.194 5.659 A 2.645 2.645 0 0 1 85.195 5.731 Q 85.195 6.314 84.881 6.793 A 1.85 1.85 0 0 1 84.391 7.291 A 2.628 2.628 0 0 1 83.919 7.552 A 3.176 3.176 0 0 1 83.258 7.751 Q 82.834 7.832 82.324 7.832 Q 81.466 7.832 80.679 7.557 A 4.051 4.051 0 0 1 80.14 7.326 Q 79.732 7.113 79.464 6.831 Z M 116.501 6.831 L 116.82 6.204 A 2.611 2.611 0 0 0 117.342 6.603 Q 117.59 6.75 117.891 6.865 A 4.397 4.397 0 0 0 117.931 6.881 Q 118.624 7.139 119.361 7.139 Q 120.395 7.139 120.912 6.76 A 1.347 1.347 0 0 0 121.237 6.429 A 1.142 1.142 0 0 0 121.429 5.775 A 1.232 1.232 0 0 0 121.39 5.455 A 0.898 0.898 0 0 0 121.148 5.038 A 1.834 1.834 0 0 0 120.621 4.68 A 2.2 2.2 0 0 0 120.461 4.615 A 6.165 6.165 0 0 0 120.175 4.519 Q 119.827 4.411 119.328 4.29 A 18.938 18.938 0 0 1 118.819 4.154 Q 118.314 4.011 117.965 3.876 A 5.536 5.536 0 0 1 117.942 3.867 Q 117.425 3.663 117.056 3.245 A 1.409 1.409 0 0 1 116.754 2.663 Q 116.688 2.414 116.688 2.112 Q 116.688 1.529 116.996 1.051 A 1.86 1.86 0 0 1 117.478 0.55 A 2.616 2.616 0 0 1 117.942 0.286 A 3.021 3.021 0 0 1 118.583 0.086 Q 118.889 0.024 119.242 0.007 A 5.805 5.805 0 0 1 119.526 0 Q 120.186 0 120.818 0.182 A 4.173 4.173 0 0 1 121.442 0.413 A 3.282 3.282 0 0 1 121.913 0.682 L 121.638 1.331 Q 121.154 1.012 120.604 0.853 A 3.979 3.979 0 0 0 119.791 0.703 A 3.559 3.559 0 0 0 119.526 0.693 Q 118.898 0.693 118.462 0.844 A 1.628 1.628 0 0 0 118.002 1.084 A 1.361 1.361 0 0 0 117.671 1.438 A 1.197 1.197 0 0 0 117.491 2.09 A 1.234 1.234 0 0 0 117.533 2.42 A 0.92 0.92 0 0 0 117.772 2.833 A 1.741 1.741 0 0 0 118.249 3.168 A 2.159 2.159 0 0 0 118.475 3.262 Q 118.88 3.403 119.549 3.57 A 24.529 24.529 0 0 0 119.614 3.586 Q 120.183 3.727 120.606 3.864 A 7.21 7.21 0 0 1 120.984 3.999 Q 121.506 4.202 121.869 4.615 Q 122.213 5.006 122.231 5.659 A 2.645 2.645 0 0 1 122.232 5.731 Q 122.232 6.314 121.918 6.793 A 1.85 1.85 0 0 1 121.428 7.291 A 2.628 2.628 0 0 1 120.956 7.552 A 3.176 3.176 0 0 1 120.295 7.751 Q 119.871 7.832 119.361 7.832 Q 118.503 7.832 117.716 7.557 A 4.051 4.051 0 0 1 117.177 7.326 Q 116.769 7.113 116.501 6.831 Z M 26.994 4.477 L 26.994 0.066 L 27.808 0.066 L 27.808 4.444 Q 27.808 5.786 28.413 6.446 A 1.95 1.95 0 0 0 29.38 7.013 Q 29.733 7.106 30.162 7.106 A 3.222 3.222 0 0 0 30.86 7.035 Q 31.515 6.89 31.922 6.446 A 2.054 2.054 0 0 0 32.341 5.723 Q 32.527 5.188 32.527 4.444 L 32.527 0.066 L 33.319 0.066 L 33.319 4.477 A 5.19 5.19 0 0 1 33.238 5.425 Q 33.138 5.965 32.913 6.387 A 2.576 2.576 0 0 1 32.488 6.974 Q 31.658 7.832 30.162 7.832 Q 28.666 7.832 27.83 6.974 Q 26.994 6.116 26.994 4.477 Z M 86.9 4.477 L 86.9 0.066 L 87.714 0.066 L 87.714 4.444 Q 87.714 5.786 88.319 6.446 A 1.95 1.95 0 0 0 89.286 7.013 Q 89.639 7.106 90.068 7.106 A 3.222 3.222 0 0 0 90.766 7.035 Q 91.421 6.89 91.828 6.446 A 2.054 2.054 0 0 0 92.247 5.723 Q 92.433 5.188 92.433 4.444 L 92.433 0.066 L 93.225 0.066 L 93.225 4.477 A 5.19 5.19 0 0 1 93.144 5.425 Q 93.044 5.965 92.819 6.387 A 2.576 2.576 0 0 1 92.394 6.974 Q 91.564 7.832 90.068 7.832 Q 88.572 7.832 87.736 6.974 Q 86.9 6.116 86.9 4.477 Z M 25.344 1.122 L 24.827 1.639 Q 23.925 0.726 22.55 0.726 A 3.444 3.444 0 0 0 21.335 0.937 A 3.231 3.231 0 0 0 20.889 1.144 Q 20.141 1.562 19.717 2.288 Q 19.294 3.014 19.294 3.916 A 3.302 3.302 0 0 0 19.476 5.024 A 3.04 3.04 0 0 0 19.717 5.544 Q 20.141 6.27 20.889 6.688 A 3.32 3.32 0 0 0 22.437 7.104 A 3.923 3.923 0 0 0 22.55 7.106 Q 23.936 7.106 24.827 6.182 L 25.344 6.699 A 3.327 3.327 0 0 1 24.118 7.536 A 3.798 3.798 0 0 1 24.106 7.541 A 4.159 4.159 0 0 1 22.795 7.824 A 4.877 4.877 0 0 1 22.517 7.832 A 4.452 4.452 0 0 1 21.206 7.644 A 3.955 3.955 0 0 1 20.455 7.326 Q 19.536 6.82 19.013 5.924 A 3.873 3.873 0 0 1 18.494 4.088 A 4.621 4.621 0 0 1 18.491 3.916 A 4.062 4.062 0 0 1 18.724 2.528 A 3.761 3.761 0 0 1 19.014 1.909 Q 19.536 1.012 20.46 0.506 A 4.155 4.155 0 0 1 22.237 0.009 A 4.99 4.99 0 0 1 22.528 0 A 4.509 4.509 0 0 1 23.597 0.123 A 3.951 3.951 0 0 1 24.112 0.286 Q 24.838 0.572 25.344 1.122 Z M 74.943 0.066 L 75.768 0.066 L 72.358 7.766 L 71.555 7.766 L 68.145 0.066 L 69.025 0.066 L 71.973 6.754 L 74.943 0.066 Z M 41.921 7.766 L 41.03 7.766 L 39.27 5.291 A 5.509 5.509 0 0 1 38.733 5.324 A 6.089 6.089 0 0 1 38.654 5.324 L 36.586 5.324 L 36.586 7.766 L 35.772 7.766 L 35.772 0.066 L 38.654 0.066 A 4.982 4.982 0 0 1 39.572 0.146 Q 40.409 0.303 40.964 0.77 Q 41.8 1.474 41.8 2.706 A 2.956 2.956 0 0 1 41.713 3.442 A 2.268 2.268 0 0 1 41.344 4.23 A 2.375 2.375 0 0 1 40.468 4.953 A 3.144 3.144 0 0 1 40.04 5.126 L 41.921 7.766 Z M 101.266 7.766 L 100.342 5.709 L 96.052 5.709 L 95.128 7.766 L 94.281 7.766 L 97.801 0.066 L 98.604 0.066 L 102.124 7.766 L 101.266 7.766 Z M 0 7.766 L 0 0.066 L 3.135 0.066 Q 4.356 0.066 5.291 0.556 Q 6.226 1.045 6.743 1.92 A 3.729 3.729 0 0 1 7.242 3.504 A 4.589 4.589 0 0 1 7.26 3.916 A 4.154 4.154 0 0 1 7.096 5.1 A 3.594 3.594 0 0 1 6.743 5.913 Q 6.226 6.787 5.291 7.277 A 4.268 4.268 0 0 1 3.879 7.717 A 5.479 5.479 0 0 1 3.135 7.766 L 0 7.766 Z M 103.4 7.766 L 103.4 0.066 L 104.214 0.066 L 104.214 7.062 L 108.526 7.062 L 108.526 7.766 L 103.4 7.766 Z M 52.447 7.612 A 4.413 4.413 0 0 0 53.856 7.832 A 4.948 4.948 0 0 0 54.208 7.82 A 4.105 4.105 0 0 0 55.919 7.326 Q 56.837 6.82 57.365 5.924 A 3.744 3.744 0 0 0 57.655 5.312 A 4.022 4.022 0 0 0 57.893 3.916 A 4.593 4.593 0 0 0 57.891 3.778 A 3.85 3.85 0 0 0 57.365 1.909 Q 56.837 1.012 55.918 0.506 A 3.955 3.955 0 0 0 55.167 0.188 A 4.452 4.452 0 0 0 53.856 0 A 4.967 4.967 0 0 0 53.608 0.006 A 4.166 4.166 0 0 0 51.783 0.512 Q 50.853 1.023 50.33 1.914 A 3.714 3.714 0 0 0 50.022 2.583 A 4.06 4.06 0 0 0 49.808 3.916 A 4.598 4.598 0 0 0 49.813 4.122 A 3.834 3.834 0 0 0 50.33 5.918 Q 50.853 6.809 51.783 7.321 A 4.023 4.023 0 0 0 52.447 7.612 Z M 0.814 7.062 L 3.091 7.062 Q 4.103 7.062 4.862 6.661 Q 5.621 6.259 6.039 5.55 Q 6.457 4.84 6.457 3.916 A 3.472 3.472 0 0 0 6.339 2.995 A 2.914 2.914 0 0 0 6.039 2.283 Q 5.621 1.573 4.862 1.172 A 3.414 3.414 0 0 0 3.786 0.822 A 4.487 4.487 0 0 0 3.091 0.77 L 0.814 0.77 L 0.814 7.062 Z M 53.856 7.106 A 3.479 3.479 0 0 0 54.954 6.937 A 3.153 3.153 0 0 0 55.506 6.694 Q 56.243 6.281 56.661 5.55 A 3.201 3.201 0 0 0 57.076 4.056 A 3.81 3.81 0 0 0 57.079 3.916 A 3.354 3.354 0 0 0 56.89 2.781 A 3.105 3.105 0 0 0 56.661 2.283 Q 56.243 1.551 55.506 1.139 A 3.262 3.262 0 0 0 54.082 0.733 A 3.903 3.903 0 0 0 53.856 0.726 A 3.491 3.491 0 0 0 52.731 0.904 A 3.2 3.2 0 0 0 52.2 1.139 Q 51.458 1.551 51.034 2.283 A 3.175 3.175 0 0 0 50.613 3.804 A 3.776 3.776 0 0 0 50.611 3.916 A 3.307 3.307 0 0 0 50.811 5.076 A 3.088 3.088 0 0 0 51.034 5.55 Q 51.458 6.281 52.201 6.694 A 3.309 3.309 0 0 0 53.686 7.102 A 3.939 3.939 0 0 0 53.856 7.106 Z M 9.086 7.766 L 9.086 0.066 L 9.9 0.066 L 9.9 7.766 L 9.086 7.766 Z M 76.879 7.766 L 76.879 0.066 L 77.693 0.066 L 77.693 7.766 L 76.879 7.766 Z M 38.632 0.77 L 36.586 0.77 L 36.586 4.631 L 38.632 4.631 A 4.148 4.148 0 0 0 39.294 4.582 Q 39.965 4.473 40.381 4.125 A 1.651 1.651 0 0 0 40.96 3.067 A 2.412 2.412 0 0 0 40.986 2.706 A 2.308 2.308 0 0 0 40.915 2.115 A 1.597 1.597 0 0 0 40.381 1.271 Q 39.903 0.875 39.087 0.792 A 4.509 4.509 0 0 0 38.632 0.77 Z M 96.349 5.049 L 100.045 5.049 L 98.197 0.913 L 96.349 5.049 Z" vector-effect="non-scaling-stroke"/>
</g>
</svg>