<svg width="56.947" height="7.832" viewBox="0 0 56.947 7.832" xmlns="http://www.w3.org/2000/svg">
<g id="svgGroup" stroke-linecap="round" fill-rule="evenodd" font-size="9pt" stroke="#fff" stroke-width="0.25mm" fill="white" style="stroke:#fff;stroke-width:0.25mm;fill:white">
<path d="M 33.792 7.062 L 38.423 7.062 L 38.423 7.766 L 32.978 7.766 L 32.978 0.066 L 38.258 0.066 L 38.258 0.77 L 33.792 0.77 L 33.792 3.509 L 37.774 3.509 L 37.774 4.202 L 33.792 4.202 L 33.792 7.062 Z M 0 6.831 L 0.319 6.204 A 2.611 2.611 0 0 0 0.841 6.603 Q 1.089 6.75 1.39 6.865 A 4.397 4.397 0 0 0 1.43 6.881 Q 2.123 7.139 2.86 7.139 Q 3.894 7.139 4.411 6.76 A 1.347 1.347 0 0 0 4.736 6.429 A 1.142 1.142 0 0 0 4.928 5.775 A 1.232 1.232 0 0 0 4.889 5.455 A 0.898 0.898 0 0 0 4.647 5.038 A 1.834 1.834 0 0 0 4.12 4.68 A 2.2 2.2 0 0 0 3.96 4.615 A 6.165 6.165 0 0 0 3.674 4.519 Q 3.326 4.411 2.827 4.29 A 18.938 18.938 0 0 1 2.318 4.154 Q 1.813 4.011 1.464 3.876 A 5.536 5.536 0 0 1 1.441 3.867 Q 0.924 3.663 0.556 3.245 A 1.409 1.409 0 0 1 0.253 2.663 Q 0.187 2.414 0.187 2.112 Q 0.187 1.529 0.495 1.051 A 1.86 1.86 0 0 1 0.977 0.55 A 2.616 2.616 0 0 1 1.441 0.286 A 3.021 3.021 0 0 1 2.082 0.086 Q 2.388 0.024 2.741 0.007 A 5.805 5.805 0 0 1 3.025 0 Q 3.685 0 4.318 0.182 A 4.173 4.173 0 0 1 4.941 0.413 A 3.282 3.282 0 0 1 5.412 0.682 L 5.137 1.331 Q 4.653 1.012 4.103 0.853 A 3.979 3.979 0 0 0 3.29 0.703 A 3.559 3.559 0 0 0 3.025 0.693 Q 2.397 0.693 1.961 0.844 A 1.628 1.628 0 0 0 1.502 1.084 A 1.361 1.361 0 0 0 1.17 1.438 A 1.197 1.197 0 0 0 0.99 2.09 A 1.234 1.234 0 0 0 1.032 2.42 A 0.92 0.92 0 0 0 1.271 2.833 A 1.741 1.741 0 0 0 1.748 3.168 A 2.159 2.159 0 0 0 1.975 3.262 Q 2.379 3.403 3.048 3.57 A 24.529 24.529 0 0 0 3.113 3.586 Q 3.682 3.727 4.105 3.864 A 7.21 7.21 0 0 1 4.483 3.999 Q 5.005 4.202 5.368 4.615 Q 5.712 5.006 5.73 5.659 A 2.645 2.645 0 0 1 5.731 5.731 Q 5.731 6.314 5.418 6.793 A 1.85 1.85 0 0 1 4.927 7.291 A 2.628 2.628 0 0 1 4.455 7.552 A 3.176 3.176 0 0 1 3.794 7.751 Q 3.37 7.832 2.86 7.832 Q 2.002 7.832 1.216 7.557 A 4.051 4.051 0 0 1 0.676 7.326 Q 0.268 7.113 0 6.831 Z M 31.174 7.766 L 30.283 7.766 L 28.523 5.291 A 5.509 5.509 0 0 1 27.986 5.324 A 6.089 6.089 0 0 1 27.907 5.324 L 25.839 5.324 L 25.839 7.766 L 25.025 7.766 L 25.025 0.066 L 27.907 0.066 A 4.982 4.982 0 0 1 28.825 0.146 Q 29.662 0.303 30.217 0.77 Q 31.053 1.474 31.053 2.706 A 2.956 2.956 0 0 1 30.966 3.442 A 2.268 2.268 0 0 1 30.597 4.23 A 2.375 2.375 0 0 1 29.721 4.953 A 3.144 3.144 0 0 1 29.293 5.126 L 31.174 7.766 Z M 20.273 7.766 L 16.731 7.766 L 16.731 0.066 L 20.053 0.066 A 5.188 5.188 0 0 1 20.801 0.117 Q 21.193 0.174 21.513 0.296 A 2.301 2.301 0 0 1 22.05 0.583 Q 22.759 1.1 22.759 2.046 A 2.164 2.164 0 0 1 22.699 2.568 A 1.661 1.661 0 0 1 22.445 3.13 A 1.843 1.843 0 0 1 21.716 3.737 A 2.265 2.265 0 0 1 21.582 3.795 A 2.54 2.54 0 0 1 22.132 3.978 A 1.818 1.818 0 0 1 22.753 4.45 A 1.715 1.715 0 0 1 23.122 5.234 A 2.425 2.425 0 0 1 23.166 5.709 A 2.134 2.134 0 0 1 23.067 6.375 A 1.694 1.694 0 0 1 22.434 7.233 Q 21.912 7.614 21.033 7.723 A 6.199 6.199 0 0 1 20.273 7.766 Z M 43.219 7.766 L 43.219 0.066 L 44.033 0.066 L 44.033 7.062 L 48.345 7.062 L 48.345 7.766 L 43.219 7.766 Z M 9.459 7.612 A 4.413 4.413 0 0 0 10.868 7.832 A 4.948 4.948 0 0 0 11.22 7.82 A 4.105 4.105 0 0 0 12.931 7.326 Q 13.849 6.82 14.377 5.924 A 3.744 3.744 0 0 0 14.667 5.312 A 4.022 4.022 0 0 0 14.905 3.916 A 4.593 4.593 0 0 0 14.903 3.778 A 3.85 3.85 0 0 0 14.377 1.909 Q 13.849 1.012 12.931 0.506 A 3.955 3.955 0 0 0 12.179 0.188 A 4.452 4.452 0 0 0 10.868 0 A 4.967 4.967 0 0 0 10.62 0.006 A 4.166 4.166 0 0 0 8.795 0.512 Q 7.865 1.023 7.343 1.914 A 3.714 3.714 0 0 0 7.034 2.583 A 4.06 4.06 0 0 0 6.82 3.916 A 4.598 4.598 0 0 0 6.825 4.122 A 3.834 3.834 0 0 0 7.342 5.918 Q 7.865 6.809 8.795 7.321 A 4.023 4.023 0 0 0 9.459 7.612 Z M 51.501 7.612 A 4.413 4.413 0 0 0 52.91 7.832 A 4.948 4.948 0 0 0 53.262 7.82 A 4.105 4.105 0 0 0 54.973 7.326 Q 55.891 6.82 56.419 5.924 A 3.744 3.744 0 0 0 56.709 5.312 A 4.022 4.022 0 0 0 56.947 3.916 A 4.593 4.593 0 0 0 56.945 3.778 A 3.85 3.85 0 0 0 56.419 1.909 Q 55.891 1.012 54.973 0.506 A 3.955 3.955 0 0 0 54.221 0.188 A 4.452 4.452 0 0 0 52.91 0 A 4.967 4.967 0 0 0 52.662 0.006 A 4.166 4.166 0 0 0 50.837 0.512 Q 49.907 1.023 49.385 1.914 A 3.714 3.714 0 0 0 49.076 2.583 A 4.06 4.06 0 0 0 48.862 3.916 A 4.598 4.598 0 0 0 48.867 4.122 A 3.834 3.834 0 0 0 49.384 5.918 Q 49.907 6.809 50.837 7.321 A 4.023 4.023 0 0 0 51.501 7.612 Z M 10.868 7.106 A 3.479 3.479 0 0 0 11.966 6.937 A 3.153 3.153 0 0 0 12.518 6.694 Q 13.255 6.281 13.673 5.55 A 3.201 3.201 0 0 0 14.088 4.056 A 3.81 3.81 0 0 0 14.091 3.916 A 3.354 3.354 0 0 0 13.902 2.781 A 3.105 3.105 0 0 0 13.673 2.283 Q 13.255 1.551 12.518 1.139 A 3.262 3.262 0 0 0 11.094 0.733 A 3.903 3.903 0 0 0 10.868 0.726 A 3.491 3.491 0 0 0 9.743 0.904 A 3.2 3.2 0 0 0 9.212 1.139 Q 8.47 1.551 8.047 2.283 A 3.175 3.175 0 0 0 7.625 3.804 A 3.776 3.776 0 0 0 7.623 3.916 A 3.307 3.307 0 0 0 7.823 5.076 A 3.088 3.088 0 0 0 8.046 5.55 Q 8.47 6.281 9.213 6.694 A 3.309 3.309 0 0 0 10.698 7.102 A 3.939 3.939 0 0 0 10.868 7.106 Z M 52.91 7.106 A 3.479 3.479 0 0 0 54.008 6.937 A 3.153 3.153 0 0 0 54.56 6.694 Q 55.297 6.281 55.715 5.55 A 3.201 3.201 0 0 0 56.13 4.056 A 3.81 3.81 0 0 0 56.133 3.916 A 3.354 3.354 0 0 0 55.944 2.781 A 3.105 3.105 0 0 0 55.715 2.283 Q 55.297 1.551 54.56 1.139 A 3.262 3.262 0 0 0 53.136 0.733 A 3.903 3.903 0 0 0 52.91 0.726 A 3.491 3.491 0 0 0 51.785 0.904 A 3.2 3.2 0 0 0 51.254 1.139 Q 50.512 1.551 50.089 2.283 A 3.175 3.175 0 0 0 49.667 3.804 A 3.776 3.776 0 0 0 49.665 3.916 A 3.307 3.307 0 0 0 49.865 5.076 A 3.088 3.088 0 0 0 50.088 5.55 Q 50.512 6.281 51.255 6.694 A 3.309 3.309 0 0 0 52.74 7.102 A 3.939 3.939 0 0 0 52.91 7.106 Z M 27.885 0.77 L 25.839 0.77 L 25.839 4.631 L 27.885 4.631 A 4.148 4.148 0 0 0 28.547 4.582 Q 29.218 4.473 29.634 4.125 A 1.651 1.651 0 0 0 30.213 3.067 A 2.412 2.412 0 0 0 30.239 2.706 A 2.308 2.308 0 0 0 30.168 2.115 A 1.597 1.597 0 0 0 29.634 1.271 Q 29.156 0.875 28.34 0.792 A 4.509 4.509 0 0 0 27.885 0.77 Z M 20.262 4.202 L 17.545 4.202 L 17.545 7.095 L 20.262 7.095 A 4.864 4.864 0 0 0 20.831 7.064 Q 21.453 6.991 21.824 6.743 A 1.147 1.147 0 0 0 22.329 5.941 A 1.802 1.802 0 0 0 22.352 5.643 A 1.374 1.374 0 0 0 22.173 4.922 Q 21.74 4.202 20.262 4.202 Z M 19.998 0.737 L 17.545 0.737 L 17.545 3.531 L 19.998 3.531 A 3.936 3.936 0 0 0 20.54 3.496 Q 21.091 3.419 21.439 3.174 A 1.154 1.154 0 0 0 21.934 2.329 A 1.66 1.66 0 0 0 21.945 2.134 A 1.458 1.458 0 0 0 21.88 1.686 A 1.135 1.135 0 0 0 21.439 1.095 A 1.72 1.72 0 0 0 20.946 0.86 Q 20.546 0.737 19.998 0.737 Z" vector-effect="non-scaling-stroke"/>
</g>
</svg>